<svg xmlns="http://www.w3.org/2000/svg" xmlns:xlink="http://www.w3.org/1999/xlink" width="1200" zoomAndPan="magnify" viewBox="0 0 900 525.000007" height="700" preserveAspectRatio="xMidYMid meet" version="1.0"><defs><clipPath id="e85a10388b"><path d="M 312.730469 121.570312 L 450 121.570312 L 450 221 L 312.730469 221 Z M 312.730469 121.570312 " clip-rule="nonzero"/></clipPath><clipPath id="49fba4fbad"><path d="M 575 207 L 587.457031 207 L 587.457031 298 L 575 298 Z M 575 207 " clip-rule="nonzero"/></clipPath><clipPath id="951fe3f6ac"><path d="M 374 363 L 544 363 L 544 402.285156 L 374 402.285156 Z M 374 363 " clip-rule="nonzero"/></clipPath><clipPath id="ace681519e"><path d="M 253.472656 65.476562 L 646.476562 65.476562 L 646.476562 458.476562 L 253.472656 458.476562 Z M 253.472656 65.476562 " clip-rule="nonzero"/></clipPath></defs><path fill="#d9d9d9" d="M 446.894531 304.855469 C 423.203125 304.855469 403.917969 285.589844 403.917969 261.929688 C 403.917969 238.269531 423.203125 219.003906 446.894531 219.003906 C 470.585938 219.003906 489.875 238.269531 489.875 261.929688 C 489.875 285.589844 470.585938 304.855469 446.894531 304.855469 Z M 446.894531 219.917969 C 423.703125 219.917969 404.835938 238.765625 404.835938 261.929688 C 404.835938 285.09375 423.703125 303.9375 446.894531 303.9375 C 470.089844 303.9375 488.957031 285.09375 488.957031 261.929688 C 488.957031 238.765625 470.089844 219.917969 446.894531 219.917969 Z M 446.894531 219.917969 " fill-opacity="1" fill-rule="nonzero"/><path fill="#d9d9d9" d="M 446.894531 183.125 C 459.707031 183.125 471.820312 186.1875 482.542969 191.640625 C 482.679688 191.363281 482.839844 191.082031 482.980469 190.785156 C 471.941406 185.171875 459.648438 182.207031 446.894531 182.207031 C 425.574219 182.207031 405.53125 190.507812 390.449219 205.550781 C 375.367188 220.617188 367.078125 240.636719 367.078125 261.929688 C 367.078125 283.222656 375.386719 303.242188 390.449219 318.308594 C 400.273438 328.117188 412.1875 335.042969 425.199219 338.683594 C 425.257812 338.386719 425.316406 338.066406 425.355469 337.769531 C 392.28125 328.398438 367.972656 297.949219 367.972656 261.929688 C 367.972656 218.464844 403.378906 183.125 446.894531 183.125 Z M 446.894531 183.125 " fill-opacity="1" fill-rule="nonzero"/><path fill="#d9d9d9" d="M 525.320312 270.726562 C 522.050781 299.917969 502.765625 324.335938 476.464844 335.003906 C 476.5625 335.300781 476.644531 335.621094 476.742188 335.917969 C 486.585938 331.957031 495.613281 326.027344 503.34375 318.308594 C 516.332031 305.332031 524.285156 288.695312 526.234375 270.726562 Z M 525.320312 270.726562 " fill-opacity="1" fill-rule="nonzero"/><path fill="#d9d9d9" d="M 522.691406 169.632812 C 513.84375 162.367188 504.019531 156.4375 493.421875 151.941406 C 481.605469 146.945312 469.210938 143.941406 456.441406 142.925781 C 456.417969 143.222656 456.398438 143.542969 456.378906 143.839844 C 481.1875 145.808594 503.878906 155.441406 522.050781 170.367188 C 522.25 170.128906 522.46875 169.890625 522.691406 169.632812 Z M 522.691406 169.632812 " fill-opacity="1" fill-rule="nonzero"/><path fill="#d9d9d9" d="M 329.257812 277.113281 C 328.621094 272.136719 328.285156 267.0625 328.285156 261.929688 C 328.285156 241.191406 333.644531 221.691406 343.046875 204.734375 C 342.808594 204.515625 342.570312 204.277344 342.332031 204.058594 C 340.277344 207.742188 338.425781 211.5625 336.75 215.460938 C 330.515625 230.167969 327.367188 245.808594 327.367188 261.929688 C 327.367188 267.101562 327.6875 272.21875 328.34375 277.273438 C 328.660156 277.210938 328.960938 277.171875 329.257812 277.113281 Z M 329.257812 277.113281 " fill-opacity="1" fill-rule="nonzero"/><path fill="#d9d9d9" d="M 557 215.460938 C 551.382812 202.1875 543.492188 190.167969 533.527344 179.71875 C 533.25 179.898438 532.972656 180.078125 532.691406 180.238281 C 552.996094 201.511719 565.488281 230.289062 565.488281 261.929688 C 565.488281 327.242188 512.289062 380.375 446.894531 380.375 C 431.773438 380.375 417.289062 377.53125 403.976562 372.355469 C 403.878906 372.65625 403.777344 372.953125 403.679688 373.253906 C 417.445312 378.585938 431.953125 381.292969 446.894531 381.292969 C 463.035156 381.292969 478.675781 378.128906 493.421875 371.917969 C 507.644531 365.910156 520.4375 357.292969 531.417969 346.347656 C 542.394531 335.382812 551.003906 322.625 557.019531 308.398438 C 563.257812 293.691406 566.40625 278.046875 566.40625 261.929688 C 566.40625 245.808594 563.238281 230.1875 557 215.460938 Z M 557 215.460938 " fill-opacity="1" fill-rule="nonzero"/><path fill="#d9d9d9" d="M 332.804688 294.265625 C 332.507812 294.386719 332.226562 294.484375 331.929688 294.605469 C 333.265625 299.28125 334.878906 303.878906 336.792969 308.398438 C 342.808594 322.605469 351.4375 335.382812 362.394531 346.347656 C 367.238281 351.183594 372.417969 355.5625 377.9375 359.460938 C 378.15625 359.222656 378.394531 358.984375 378.613281 358.746094 C 356.734375 343.261719 340.296875 320.636719 332.804688 294.265625 Z M 332.804688 294.265625 " fill-opacity="1" fill-rule="nonzero"/><g clip-path="url(#e85a10388b)"><path fill="#d9d9d9" d="M 449.546875 122.507812 C 449.585938 122.207031 449.625 121.910156 449.664062 121.589844 C 448.75 121.570312 447.8125 121.570312 446.894531 121.570312 C 427.925781 121.570312 409.515625 125.273438 392.183594 132.597656 C 375.445312 139.660156 360.421875 149.789062 347.511719 162.6875 C 334.621094 175.582031 324.476562 190.585938 317.40625 207.300781 C 315.652344 211.441406 314.097656 215.660156 312.761719 219.917969 C 313.082031 219.960938 313.378906 220.019531 313.699219 220.078125 C 331.53125 163.582031 384.492188 122.488281 446.894531 122.488281 C 447.773438 122.488281 448.667969 122.488281 449.546875 122.507812 Z M 449.546875 122.507812 " fill-opacity="1" fill-rule="nonzero"/></g><g clip-path="url(#49fba4fbad)"><path fill="#d9d9d9" d="M 582.144531 296.617188 C 582.425781 296.753906 582.722656 296.914062 583 297.054688 C 585.949219 285.652344 587.425781 273.910156 587.425781 261.929688 C 587.425781 243.0625 583.738281 224.773438 576.488281 207.519531 C 576.207031 207.660156 575.929688 207.800781 575.628906 207.9375 C 582.644531 224.554688 586.507812 242.785156 586.507812 261.910156 C 586.507812 273.910156 584.996094 285.53125 582.144531 296.617188 Z M 582.144531 296.617188 " fill-opacity="1" fill-rule="nonzero"/></g><g clip-path="url(#951fe3f6ac)"><path fill="#d9d9d9" d="M 542.875 363.101562 C 517.847656 386.804688 484.035156 401.371094 446.894531 401.371094 C 420.675781 401.371094 396.105469 394.109375 375.125 381.511719 C 374.945312 381.789062 374.769531 382.046875 374.609375 382.328125 C 380.226562 385.691406 386.105469 388.675781 392.203125 391.261719 C 409.535156 398.585938 427.925781 402.285156 446.894531 402.285156 C 465.863281 402.285156 484.273438 398.585938 501.589844 391.261719 C 517.109375 384.695312 531.175781 375.5 543.429688 363.917969 C 543.25 363.640625 543.074219 363.363281 542.875 363.101562 Z M 542.875 363.101562 " fill-opacity="1" fill-rule="nonzero"/></g><g clip-path="url(#ace681519e)"><path fill="#d9d9d9" d="M 449.972656 458.476562 C 341.617188 458.476562 253.472656 370.324219 253.472656 261.976562 C 253.472656 153.625 341.617188 65.476562 449.972656 65.476562 C 558.332031 65.476562 646.476562 153.617188 646.476562 261.976562 C 646.476562 370.332031 558.324219 458.476562 449.972656 458.476562 Z M 449.972656 69.742188 C 343.980469 69.742188 257.742188 155.984375 257.742188 261.976562 C 257.742188 367.976562 343.972656 454.207031 449.964844 454.207031 C 555.96875 454.207031 642.199219 367.976562 642.199219 261.976562 C 642.207031 155.984375 555.96875 69.742188 449.972656 69.742188 Z M 449.972656 69.742188 " fill-opacity="1" fill-rule="nonzero"/></g></svg>