<svg width="76" height="76" xmlns="http://www.w3.org/2000/svg" xmlns:xlink="http://www.w3.org/1999/xlink" overflow="hidden"><defs><clipPath id="clip0"><rect x="0" y="0" width="76" height="76"/></clipPath></defs><g clip-path="url(#clip0)"><path d="M50.9734 17.5082C50.9734 18.6846 51.8706 19.6383 52.9773 19.6383 54.0841 19.6383 54.9813 18.6846 54.9813 17.5082 54.9813 16.3318 54.0841 15.3781 52.9773 15.3781 51.8706 15.3781 50.9734 16.3318 50.9734 17.5082Z" fill="#00A1E4"/><path d="M50.9734 34.2371C50.9734 35.4136 51.8706 36.3672 52.9773 36.3672 54.0841 36.3672 54.9813 35.4136 54.9813 34.2371 54.9813 33.0607 54.0841 32.107 52.9773 32.107 51.8706 32.107 50.9734 33.0607 50.9734 34.2371Z" fill="#00A1E4"/><path d="M57.4676 13.3816 13.3742 13.3816C12.1496 13.3816 11.1477 14.3836 11.1477 15.6082L11.1477 19.4156C11.1477 20.6402 12.1496 21.6422 13.3742 21.6422L57.4676 21.6422C58.6922 21.6422 59.6941 20.6402 59.6941 19.4156L59.6941 15.6082C59.6941 14.3762 58.6922 13.3816 57.4676 13.3816ZM33.1387 18.2504 15.3707 18.2504C14.9625 18.2504 14.6285 17.9164 14.6285 17.5082 14.6285 17.1 14.9625 16.766 15.3707 16.766L33.1387 16.766C33.5469 16.766 33.8809 17.1 33.8809 17.5082 33.8809 17.9164 33.5469 18.2504 33.1387 18.2504ZM52.9773 19.6457C51.8715 19.6457 50.9734 18.6883 50.9734 17.5156 50.9734 16.343 51.8715 15.3855 52.9773 15.3855 54.0832 15.3855 54.9813 16.343 54.9813 17.5156 54.9813 18.6883 54.0832 19.6457 52.9773 19.6457ZM59.6941 32.3297C59.6941 31.1051 58.6922 30.1031 57.4676 30.1031L13.3742 30.1031C12.1496 30.1031 11.1477 31.1051 11.1477 32.3297L11.1477 36.1445C11.1477 37.3691 12.1496 38.3711 13.3742 38.3711L42.6684 38.3711 45.0953 36.8867C45.5332 36.6195 46.0379 36.4711 46.5574 36.4637L46.6094 36.4637C47.0844 36.4637 47.5668 36.5824 47.9898 36.7977 48.4426 37.0277 48.8285 37.3691 49.1105 37.7848L49.5113 38.3711 53.1332 38.3711 53.4523 37.7477C53.6305 37.3988 53.8754 37.0945 54.1871 36.8496 54.4766 36.6121 54.8105 36.4414 55.1742 36.3375 55.4414 36.2559 55.7234 36.2188 55.998 36.2188 56.473 36.2188 56.948 36.3375 57.3711 36.5527L59.2266 37.5027C59.516 37.1242 59.6867 36.6566 59.6867 36.1445L59.6867 32.3297ZM52.9773 36.3672C51.8715 36.3672 50.9734 35.4098 50.9734 34.2371 50.9734 33.0645 51.8715 32.107 52.9773 32.107 54.0832 32.107 54.9813 33.0645 54.9813 34.2371 54.9813 35.4098 54.0832 36.3672 52.9773 36.3672Z" fill="#FFFFFF"/><path d="M57.4676 10.4129 13.3742 10.4129C10.5094 10.4129 8.17891 12.7434 8.17891 15.6082L8.17891 19.4156C8.17891 22.2805 10.5094 24.6109 13.3742 24.6109L57.4676 24.6109C60.3324 24.6109 62.6629 22.2805 62.6629 19.4156L62.6629 15.6082C62.6629 12.7434 60.3324 10.4129 57.4676 10.4129ZM59.6941 19.4156C59.6941 20.6402 58.6922 21.6422 57.4676 21.6422L13.3742 21.6422C12.1496 21.6422 11.1477 20.6402 11.1477 19.4156L11.1477 15.6082C11.1477 14.3836 12.1496 13.3816 13.3742 13.3816L57.4676 13.3816C58.6922 13.3816 59.6941 14.3836 59.6941 15.6082L59.6941 19.4156Z" fill="#00A1E4"/><path d="M33.1387 16.766 15.3707 16.766C14.9625 16.766 14.6285 17.1 14.6285 17.5082 14.6285 17.9164 14.9625 18.2504 15.3707 18.2504L33.1387 18.2504C33.5469 18.2504 33.8809 17.9164 33.8809 17.5082 33.8809 17.1 33.5469 16.766 33.1387 16.766Z" fill="#00A1E4"/><path d="M37.4434 54.2613C37.1465 53.8309 36.9684 53.341 36.9313 52.8215L36.6715 49.3109C36.6121 48.5391 36.8645 47.8043 37.3766 47.2402 37.5176 47.0844 37.666 46.9508 37.8293 46.832L13.3742 46.832C12.1496 46.832 11.1477 47.834 11.1477 49.0586L11.1477 52.866C11.1477 54.0906 12.1496 55.0926 13.3742 55.0926L38.3191 55.0926C37.9703 54.8773 37.6734 54.5953 37.4434 54.2613Z" fill="#E6E6E6"/><path d="M42.2898 56.577C42.0598 56.2355 41.852 55.8793 41.659 55.5156L39.9965 55.5602 39.9223 55.5602C39.4473 55.5602 38.9723 55.4488 38.5492 55.2262 38.4676 55.1891 38.3934 55.1445 38.3191 55.0926L13.3742 55.0926C12.1496 55.0926 11.1477 54.0906 11.1477 52.866L11.1477 49.0586C11.1477 47.834 12.1496 46.832 13.3742 46.832L37.8293 46.832C37.9703 46.7281 38.1262 46.6391 38.2895 46.5648 38.6457 46.4016 39.0316 46.3125 39.4324 46.3051L41.0133 46.2605C41.043 46.1789 41.0727 46.1047 41.1023 46.023 41.2285 45.7113 41.3621 45.3996 41.518 45.1102 41.7035 44.7465 41.9188 44.3828 42.1562 44.0266L42.0449 43.8559 13.3742 43.8559C10.5094 43.8559 8.17891 46.1863 8.17891 49.0512L8.17891 52.8586C8.17891 55.7234 10.5094 58.0539 13.3742 58.0539L43.0395 58.0539 43.1879 57.7645C42.8613 57.3934 42.5645 56.9926 42.2898 56.577Z" fill="#00A1E4"/><path d="M57.141 49.1031C56.9035 48.4352 56.5473 47.8266 56.0723 47.2922 55.9238 47.1289 55.7754 46.9805 55.6121 46.832 55.2559 46.5203 54.8625 46.2457 54.432 46.023 53.8086 45.7039 53.1406 45.5035 52.4504 45.4293 51.7379 45.3551 51.0328 45.4145 50.35 45.6148 50.0012 45.7188 49.6746 45.8523 49.3629 46.023 49.0734 46.1789 48.7914 46.3645 48.5391 46.5797 48.4426 46.6613 48.3535 46.743 48.2645 46.832 47.8859 47.2031 47.5742 47.6262 47.3293 48.0938 47.0324 48.6801 46.8543 49.3035 46.8098 49.9641 46.7578 50.6469 46.8543 51.3297 47.0844 51.9977 47.3219 52.6656 47.6781 53.2742 48.1531 53.8086 48.6133 54.3281 49.1699 54.7512 49.7934 55.0703 49.8082 55.0777 49.823 55.0852 49.8453 55.0926 50.4613 55.3969 51.107 55.5898 51.7824 55.6641 52.4949 55.7383 53.2 55.6789 53.8828 55.4785 54.2168 55.382 54.5285 55.2559 54.8254 55.1 55.1371 54.9367 55.4266 54.7437 55.6938 54.5211 56.1984 54.098 56.6066 53.5934 56.9035 53.007 57.2004 52.4207 57.3785 51.7973 57.423 51.1367 57.4676 50.4539 57.3785 49.7711 57.141 49.1031Z" fill="#FFFFFF"/><path d="M65.0527 48.5688C65.0453 48.4203 64.934 48.2793 64.7855 48.1977 64.7113 48.1605 64.6297 48.1383 64.548 48.1383L62.5887 48.1902 61.223 48.2273 61.1711 48.1012 60.8891 47.4555C60.7703 47.1734 60.6367 46.9062 60.4883 46.6391 60.0578 45.8672 59.5234 45.1547 58.8926 44.5164L58.3137 43.9301 58.2543 43.8707 59.7461 40.9688C59.7758 40.9168 59.7832 40.8574 59.7758 40.798 59.7609 40.6645 59.657 40.5234 59.5086 40.4418L56.243 38.7645C56.1688 38.7273 56.0871 38.7051 56.0055 38.7051 55.857 38.7051 55.7309 38.7719 55.6789 38.8758L54.4172 41.3324 54.1797 41.7852 53.2891 41.6441C52.777 41.5625 52.2574 41.5254 51.7453 41.5254 51.0699 41.5254 50.3871 41.5996 49.734 41.7406L48.9102 41.9188 48.5168 41.3398 47.0473 39.1875C46.9953 39.1133 46.9285 39.0539 46.8543 39.0168 46.7801 38.9797 46.691 38.9574 46.6094 38.9574 46.5277 38.9574 46.4535 38.9797 46.3941 39.0168L43.3883 40.8574C43.3141 40.902 43.2695 40.9613 43.2547 41.043 43.2324 41.1395 43.2547 41.2359 43.3215 41.3324L43.3363 41.3473 45.0582 43.8707 45.2289 44.123 44.6574 44.843C44.3531 45.2289 44.0859 45.6297 43.8559 46.0379 43.8113 46.1121 43.7742 46.1863 43.7371 46.2605 43.6406 46.4461 43.5516 46.6465 43.4699 46.8469 43.3363 47.166 43.225 47.4926 43.1285 47.834L42.8836 48.7172 39.5066 48.8062C39.3953 48.8062 39.2988 48.8508 39.232 48.9176 39.1801 48.977 39.1578 49.0512 39.1578 49.1328L39.4176 52.6434C39.425 52.7918 39.5363 52.9328 39.6848 53.0145 39.759 53.0516 39.8406 53.0738 39.9223 53.0738L43.2398 52.9848 43.5738 53.7566C43.7742 54.2242 44.0191 54.6695 44.2938 55.1 44.6352 55.627 45.0285 56.1242 45.4664 56.5844 45.5035 56.6215 45.5406 56.6586 45.5703 56.6957L46.2086 57.334 45.8301 58.0688 44.7168 60.2434C44.6648 60.3473 44.6871 60.4512 44.7094 60.5105 44.7539 60.6219 44.8355 60.7109 44.9543 60.7703L48.2199 62.4477C48.2941 62.4848 48.3758 62.507 48.4574 62.507 48.6059 62.507 48.732 62.4402 48.784 62.3363L50.2758 59.427 51.1664 59.568C51.6785 59.6496 52.198 59.6867 52.7102 59.6867 53.3855 59.6867 54.0684 59.6125 54.7215 59.4715L55.5453 59.2934 57.4082 62.0246C57.4602 62.0988 57.527 62.1582 57.6012 62.1953 57.6754 62.2324 57.7645 62.2547 57.8461 62.2547 57.9277 62.2547 58.002 62.2324 58.0613 62.1953L61.0672 60.3547C61.1414 60.3102 61.1859 60.2508 61.2008 60.1691 61.223 60.0504 61.1785 59.9465 61.134 59.8797L59.5828 57.6012 59.234 57.0816 59.7684 56.4137 59.8055 56.3691C60.1691 55.9164 60.4734 55.4414 60.7258 54.9516 60.8965 54.625 61.0449 54.2687 61.1711 53.9051 61.2305 53.7344 61.2898 53.5562 61.3344 53.3781L61.5867 52.4949 62.6555 52.4652 64.9637 52.4059C65.075 52.4059 65.1715 52.3613 65.2383 52.2945 65.2902 52.2352 65.3125 52.1609 65.3125 52.0793L65.0527 48.5688ZM49.0809 56.4582C48.3832 56.102 47.7598 55.6418 47.2254 55.0926 47.1437 55.0109 47.0695 54.9293 46.9879 54.8402 46.3719 54.15 45.9117 53.3633 45.6074 52.5023 45.3031 51.634 45.1844 50.7434 45.2437 49.8453 45.3031 48.977 45.5332 48.1457 45.934 47.3738 46.0305 47.1809 46.1344 47.0027 46.2531 46.8246 46.4387 46.5426 46.6465 46.268 46.8691 46.0156 47.077 45.7855 47.2996 45.5703 47.5371 45.3773 48.2273 44.8059 49.0215 44.3828 49.9047 44.123 50.3871 43.982 50.877 43.893 51.3742 43.8559 51.7008 43.8336 52.0273 43.8336 52.3613 43.8559L52.6063 43.8781C53.4895 43.9746 54.343 44.227 55.1371 44.6352 55.8422 44.9988 56.473 45.459 57.0148 46.023 57.0891 46.0973 57.1559 46.1715 57.2301 46.2531 57.4008 46.4461 57.5566 46.6391 57.7051 46.8469 58.091 47.3813 58.3953 47.9676 58.6105 48.591 58.9148 49.4594 59.0336 50.35 58.9742 51.248 58.9148 52.1164 58.6848 52.9477 58.284 53.7195 58.0242 54.2242 57.7051 54.6844 57.3266 55.1 57.1262 55.3227 56.9109 55.523 56.6809 55.716 56.2652 56.0574 55.8125 56.3469 55.3301 56.5844 55.0035 56.7402 54.6695 56.8738 54.3133 56.9777 53.4375 57.2375 52.5246 57.3191 51.6117 57.2227 50.8176 57.141 50.0531 56.9258 49.3332 56.5844 49.2516 56.5398 49.1699 56.5027 49.0809 56.4582Z" fill="#FFFFFF"/><path d="M67.7988 51.8937 67.5391 48.3832C67.502 47.8711 67.3238 47.3738 67.027 46.9434 66.7449 46.5352 66.359 46.2012 65.9211 45.9785 65.498 45.7633 65.023 45.6445 64.548 45.6445L64.4738 45.6445 62.8113 45.6891C62.3883 44.8875 61.8762 44.1305 61.2824 43.4328L61.9652 42.1043C62.1434 41.7555 62.2473 41.377 62.2695 40.9836 62.2918 40.6125 62.2324 40.2414 62.1063 39.8852 62.0098 39.618 61.8762 39.3656 61.7129 39.1355 62.3141 38.2895 62.6629 37.2578 62.6629 36.1445L62.6629 32.3371C62.6629 29.4723 60.3324 27.1418 57.4676 27.1418L13.3742 27.1418C10.5094 27.1418 8.17891 29.4723 8.17891 32.3371L8.17891 36.1445C8.17891 39.0094 10.5094 41.3398 13.3742 41.3398L40.7684 41.3398C40.7758 41.4438 40.7906 41.5402 40.8129 41.6441 40.8871 42.0301 41.043 42.3937 41.2656 42.7203L42.0449 43.8633 42.1562 44.034C41.9188 44.3902 41.7035 44.7465 41.518 45.1176 41.3695 45.407 41.2285 45.7188 41.1023 46.0305 41.0727 46.1121 41.043 46.1863 41.0133 46.268L39.4324 46.3125C39.0316 46.3199 38.6457 46.409 38.2895 46.5723 38.1262 46.6465 37.9703 46.7355 37.8293 46.8395 37.666 46.9582 37.5102 47.0918 37.3766 47.2477 36.8645 47.8191 36.6121 48.5539 36.6715 49.3184L36.9313 52.8289C36.9684 53.341 37.1465 53.8383 37.4434 54.2687 37.6734 54.6027 37.9777 54.8848 38.3191 55.1074 38.3934 55.152 38.4676 55.1965 38.5492 55.241 38.9723 55.4562 39.4473 55.575 39.9223 55.575L39.9965 55.575 41.659 55.5305C41.852 55.8941 42.0598 56.2504 42.2898 56.5918 42.5645 57.0074 42.8613 57.4008 43.1879 57.7867L43.0395 58.0762 42.5051 59.1152C42.327 59.4641 42.223 59.8426 42.2008 60.2359 42.1785 60.607 42.2379 60.9781 42.3641 61.3344 42.6164 62.0543 43.1359 62.6406 43.8262 62.9969L47.0918 64.6742C47.5223 64.8895 47.9973 65.0082 48.4648 65.0082 48.7469 65.0082 49.0215 64.9711 49.2887 64.8895 49.6523 64.7855 49.9863 64.6074 50.2758 64.3773 50.5801 64.1324 50.8324 63.8281 51.0105 63.4793L51.6934 62.1508C52.0348 62.1805 52.3762 62.1953 52.7176 62.1953 53.2891 62.1953 53.8531 62.1582 54.4172 62.0766L55.3523 63.4496C55.6344 63.8652 56.0203 64.2066 56.473 64.4367 56.8961 64.652 57.3785 64.7707 57.8535 64.7707L57.9055 64.7707C58.425 64.7633 58.9297 64.6148 59.3676 64.3477L62.3734 62.507C63.034 62.1063 63.4793 61.468 63.6426 60.7184 63.7242 60.3473 63.7242 59.9613 63.65 59.5828 63.5758 59.1969 63.4199 58.8332 63.1973 58.5066L62.3066 57.2004C62.5441 56.8441 62.7594 56.4879 62.9449 56.1168 63.1305 55.7531 63.3012 55.3672 63.4496 54.9664L65.0305 54.9219C65.4313 54.9145 65.8172 54.8254 66.1734 54.6621 66.5223 54.4988 66.834 54.2762 67.0863 53.9941 67.6059 53.4004 67.8582 52.6656 67.7988 51.8937ZM11.1477 36.1445 11.1477 32.3371C11.1477 31.1125 12.1496 30.1105 13.3742 30.1105L57.4676 30.1105C58.6922 30.1105 59.6941 31.1125 59.6941 32.3371L59.6941 36.1445C59.6941 36.6566 59.5234 37.1242 59.234 37.5027L57.3785 36.5527C56.948 36.3375 56.473 36.2188 56.0055 36.2188 55.7234 36.2188 55.4488 36.2559 55.1816 36.3375 54.818 36.4414 54.484 36.6195 54.1945 36.8496 53.8902 37.0945 53.6379 37.3988 53.4598 37.7477L53.1406 38.3711 49.5187 38.3711 49.118 37.7848C48.8359 37.3691 48.45 37.0277 47.9973 36.7977 47.5668 36.5824 47.0918 36.4637 46.6168 36.4637L46.5648 36.4637C46.0453 36.4711 45.5406 36.6195 45.1027 36.8867L42.6758 38.3711 13.3742 38.3711C12.1496 38.3711 11.1477 37.3691 11.1477 36.1445ZM65.2457 52.302C65.1789 52.3762 65.0898 52.4133 64.9711 52.4133L62.6629 52.4727 61.5941 52.5023 61.3418 53.3855C61.2898 53.5637 61.2379 53.7418 61.1785 53.9125 61.0523 54.2762 60.9039 54.6324 60.7332 54.959 60.4883 55.4414 60.1766 55.9164 59.8129 56.3766L59.7758 56.4211 59.2414 57.0891 59.5902 57.6086 61.1414 59.8871C61.1859 59.9539 61.2305 60.0578 61.2082 60.1766 61.1934 60.2508 61.1414 60.3176 61.0746 60.3621L58.0688 62.1953C58.0094 62.2324 57.9352 62.2547 57.8535 62.2547 57.7719 62.2547 57.6902 62.2324 57.6086 62.1953 57.527 62.1582 57.4602 62.0988 57.4156 62.0246L55.5527 59.2934 54.7289 59.4715C54.0684 59.6125 53.393 59.6867 52.7176 59.6867 52.2055 59.6867 51.6859 59.6422 51.1738 59.568L50.2832 59.427 48.7914 62.3363C48.7395 62.4402 48.6133 62.507 48.4648 62.507 48.3832 62.507 48.3016 62.4848 48.2273 62.4477L44.9617 60.7703C44.843 60.7109 44.7613 60.6145 44.7168 60.5105 44.6945 60.4586 44.6723 60.3473 44.7242 60.2434L45.8375 58.0688 46.216 57.334 45.5777 56.6957C45.5406 56.6586 45.5035 56.6215 45.4738 56.5844 45.0285 56.1242 44.6352 55.627 44.3012 55.1 44.0266 54.6695 43.7816 54.2242 43.5812 53.7566L43.2473 52.9848 39.9297 53.0738C39.848 53.0738 39.7664 53.0516 39.6922 53.0145 39.5363 52.9328 39.4324 52.7918 39.425 52.6434L39.1652 49.1328C39.1578 49.0512 39.1801 48.977 39.2395 48.9176 39.3062 48.8434 39.3953 48.8062 39.5141 48.8062L42.891 48.7172 43.1359 47.834C43.2324 47.4926 43.3438 47.1586 43.4773 46.8469 43.559 46.6465 43.648 46.4535 43.7445 46.2605 43.7816 46.1863 43.8262 46.1121 43.8633 46.0379 44.0859 45.6297 44.3605 45.2289 44.6648 44.843L45.2363 44.123 45.0656 43.8707 43.3438 41.3473 43.3289 41.3324C43.2621 41.2359 43.2398 41.1395 43.2621 41.043 43.277 40.9688 43.3289 40.902 43.3957 40.8574L46.4016 39.0168C46.4609 38.9797 46.5352 38.9574 46.6168 38.9574 46.6984 38.9574 46.7801 38.9797 46.8617 39.0168 46.9434 39.0539 47.0102 39.1133 47.0547 39.1875L48.5242 41.3398 48.9176 41.9188 49.7414 41.7406C50.402 41.5996 51.0773 41.5254 51.7527 41.5254 52.2648 41.5254 52.7844 41.5699 53.2965 41.6441L54.1871 41.7852 54.4172 41.3324 55.6789 38.8758C55.7309 38.7719 55.857 38.7051 56.0055 38.7051 56.0871 38.7051 56.1688 38.7273 56.243 38.7645L59.5086 40.4418C59.657 40.516 59.7609 40.657 59.7758 40.798 59.7832 40.8574 59.7758 40.9168 59.7461 40.9688L58.2543 43.8781 58.3137 43.9375 58.8926 44.5238C59.5309 45.1695 60.0652 45.8746 60.4883 46.6465 60.6367 46.9137 60.7703 47.1809 60.8891 47.4629L61.1711 48.1086 61.223 48.2348 62.5887 48.1977 64.548 48.1457C64.6297 48.1457 64.7113 48.168 64.7855 48.2051 64.9414 48.2867 65.0453 48.4277 65.0527 48.5762L65.3125 52.0867C65.3199 52.1684 65.2977 52.2426 65.2457 52.302Z" fill="#00A1E4"/><path d="M51.3742 43.8633 52.3613 43.8633C52.0273 43.841 51.7008 43.841 51.3742 43.8633Z" fill="#06F3FF"/><path d="M58.6105 48.591C58.3953 47.9676 58.0836 47.3813 57.7051 46.8469 57.5566 46.6391 57.4008 46.4461 57.2301 46.2531 57.1633 46.1789 57.0891 46.0973 57.0148 46.023 56.473 45.4664 55.8422 44.9988 55.1371 44.6352 54.343 44.227 53.4895 43.9746 52.6063 43.8781L52.3613 43.8559 51.3742 43.8559C50.877 43.893 50.3871 43.9746 49.9047 44.123 49.0215 44.3828 48.2273 44.8059 47.5371 45.3773 47.2996 45.5777 47.077 45.793 46.8691 46.0156 46.6391 46.268 46.4387 46.5352 46.2531 46.8246 46.1418 47.0027 46.0305 47.1883 45.934 47.3738 45.5406 48.1457 45.3105 48.977 45.2437 49.8453 45.177 50.7434 45.3031 51.634 45.6074 52.5023 45.9117 53.3633 46.3719 54.15 46.9879 54.8402 47.0621 54.9293 47.1437 55.0109 47.2254 55.0926 47.7672 55.6418 48.3906 56.102 49.0809 56.4582 49.1625 56.5027 49.2441 56.5398 49.3332 56.577 50.0605 56.9109 50.825 57.1262 51.6117 57.2152 52.5246 57.3117 53.4375 57.2301 54.3133 56.9703 54.6695 56.8664 55.0035 56.7328 55.3301 56.577 55.8125 56.3469 56.2652 56.0574 56.6809 55.7086 56.9109 55.5156 57.1262 55.3078 57.3266 55.0926 57.7051 54.677 58.0242 54.2168 58.284 53.7121 58.6773 52.9402 58.9074 52.109 58.9742 51.2406 59.041 50.35 58.9148 49.4594 58.6105 48.591ZM57.423 51.1367C57.3785 51.7898 57.2004 52.4207 56.9035 53.007 56.6066 53.5934 56.1984 54.098 55.6938 54.5211 55.4266 54.7437 55.1371 54.9367 54.8254 55.1 54.5285 55.2559 54.2168 55.382 53.8828 55.4785 53.2 55.6789 52.4949 55.7457 51.7824 55.6641 51.107 55.5898 50.4613 55.3969 49.8453 55.0926 49.8305 55.0852 49.8156 55.0777 49.7934 55.0703 49.1699 54.7512 48.6133 54.3207 48.1531 53.8086 47.6781 53.2742 47.3145 52.6656 47.0844 51.9977 46.8543 51.3297 46.7578 50.6469 46.8098 49.9641 46.8543 49.3109 47.0324 48.6801 47.3293 48.0938 47.5742 47.6187 47.8859 47.1957 48.2645 46.832 48.3535 46.743 48.4426 46.6613 48.5391 46.5797 48.7914 46.3645 49.0734 46.1789 49.3629 46.023 49.6746 45.8598 50.0012 45.7188 50.35 45.6148 51.0328 45.4145 51.7379 45.3477 52.4504 45.4293 53.1406 45.5035 53.8086 45.7039 54.432 46.023 54.8625 46.2457 55.2559 46.5129 55.6121 46.832 55.7754 46.973 55.9312 47.1289 56.0723 47.2922 56.5473 47.8266 56.9109 48.4352 57.141 49.1031 57.3785 49.7711 57.4676 50.4539 57.423 51.1367Z" fill="#06F3FF"/></g></svg>