<svg width="76" height="76" xmlns="http://www.w3.org/2000/svg" xmlns:xlink="http://www.w3.org/1999/xlink" overflow="hidden"><defs><clipPath id="clip0"><rect x="0" y="0" width="76" height="76"/></clipPath></defs><g clip-path="url(#clip0)"><path d="M20.8035 37.6957C20.8035 47.2094 28.516 54.9219 38.0297 54.9219 47.5434 54.9219 55.2559 47.2094 55.2559 37.6957 55.2559 28.182 47.5434 20.4695 38.0297 20.4695 28.516 20.4695 20.8035 28.182 20.8035 37.6957Z" fill="#FFFFFF"/><path d="M38.1336 64.934C37.7254 64.934 37.3914 64.6074 37.3914 64.1992 37.3914 63.791 37.718 63.457 38.1262 63.4496 38.3637 63.4496 38.6086 63.4422 38.8461 63.4348 39.2543 63.4199 39.5957 63.7391 39.6105 64.1547 39.6254 64.5629 39.3062 64.9043 38.8906 64.9191 38.6531 64.9266 38.3934 64.934 38.1336 64.934 38.141 64.934 38.141 64.934 38.1336 64.934ZM35.1723 64.793C35.15 64.793 35.1203 64.793 35.0906 64.7855L34.3336 64.6965C33.9254 64.6445 33.6434 64.266 33.6953 63.8652 33.7473 63.457 34.1258 63.175 34.5266 63.227 34.7641 63.2566 35.0016 63.2863 35.2391 63.3086 35.6473 63.3531 35.9441 63.7168 35.8996 64.125 35.8699 64.5109 35.5508 64.793 35.1723 64.793ZM41.8297 64.6594C41.466 64.6594 41.1469 64.3922 41.0949 64.0211 41.0355 63.6129 41.3176 63.2418 41.7258 63.1824L42.4383 63.0711C42.8391 63.0043 43.225 63.2715 43.2992 63.6723 43.3734 64.073 43.0988 64.459 42.698 64.5332 42.4457 64.5777 42.1934 64.6148 41.941 64.652 41.9039 64.6594 41.8668 64.6594 41.8297 64.6594ZM31.5281 64.1473C31.4688 64.1473 31.4094 64.1398 31.35 64.125 31.1051 64.0656 30.8602 63.9988 30.6152 63.932 30.2219 63.8207 29.9918 63.4125 30.1031 63.0191 30.2145 62.6258 30.6227 62.3957 31.016 62.507 31.2461 62.5738 31.4836 62.6332 31.7137 62.6926 32.1145 62.7891 32.352 63.1973 32.2555 63.5906 32.159 63.9246 31.8547 64.1473 31.5281 64.1473ZM45.4516 63.8652C45.1324 63.8652 44.8355 63.6574 44.7391 63.3309 44.6203 62.9375 44.8504 62.5219 45.2437 62.4105 45.4738 62.3438 45.7039 62.2695 45.934 62.1953 46.3273 62.0691 46.743 62.2844 46.8691 62.6703 46.9953 63.0637 46.7801 63.4793 46.3941 63.6055 46.1566 63.6871 45.9043 63.7613 45.6668 63.8281 45.5926 63.8578 45.5258 63.8652 45.4516 63.8652ZM27.9953 62.9969C27.8988 62.9969 27.8098 62.982 27.7133 62.9449 27.4758 62.8484 27.2383 62.752 27.0082 62.648 26.6297 62.4848 26.459 62.0469 26.6297 61.6684 26.793 61.2898 27.2309 61.1191 27.6094 61.2898 27.832 61.3863 28.0547 61.4828 28.2773 61.5719 28.6559 61.7277 28.8414 62.1582 28.6855 62.5367 28.5668 62.8262 28.2922 62.9969 27.9953 62.9969ZM48.9324 62.5812C48.6504 62.5812 48.3832 62.418 48.257 62.1434 48.0863 61.7723 48.2496 61.327 48.6281 61.1637 48.8434 61.0672 49.066 60.9633 49.2812 60.8594 49.6523 60.6812 50.0977 60.8297 50.2758 61.2008 50.4539 61.5719 50.3055 62.0172 49.9344 62.1953 49.7043 62.3066 49.4742 62.418 49.2441 62.5219 49.1328 62.559 49.0289 62.5812 48.9324 62.5812ZM24.6629 61.3641C24.5367 61.3641 24.4105 61.3344 24.2918 61.2602 24.0766 61.134 23.8539 61.0004 23.6387 60.8668 23.2898 60.6516 23.1785 60.1914 23.4012 59.8426 23.6164 59.4937 24.0766 59.3824 24.4254 59.6051 24.6332 59.7313 24.841 59.8574 25.0414 59.9762 25.3977 60.184 25.5164 60.6367 25.3086 60.993 25.1676 61.2379 24.9227 61.3641 24.6629 61.3641ZM52.1906 60.8148C51.9457 60.8148 51.7082 60.6961 51.5598 60.4734 51.3371 60.1246 51.441 59.6719 51.7898 59.4492 51.9902 59.323 52.1906 59.1895 52.391 59.0559 52.73 58.8261 53.191 58.9145 53.4208 59.2535 53.4214 59.2544 53.4221 59.2554 53.4227 59.2563 53.6524 59.5952 53.564 60.0563 53.225 60.286 53.2241 60.2866 53.2232 60.2873 53.2223 60.2879 53.0145 60.4289 52.7992 60.5699 52.584 60.7035 52.4578 60.7777 52.3242 60.8148 52.1906 60.8148ZM21.5977 59.2859C21.4344 59.2859 21.2785 59.234 21.1375 59.1301 20.9371 58.9742 20.7367 58.8109 20.5437 58.6477 20.232 58.3879 20.1875 57.9203 20.4473 57.6012 20.707 57.2895 21.1746 57.2449 21.4937 57.5047 21.6793 57.6605 21.8648 57.809 22.0578 57.9574 22.377 58.2098 22.4363 58.6773 22.184 58.9965 22.0355 59.1895 21.8129 59.2859 21.5977 59.2859ZM55.1668 58.618C54.959 58.618 54.7512 58.5289 54.6027 58.3582 54.3355 58.0465 54.3727 57.5789 54.6844 57.3117 54.8699 57.1559 55.048 57 55.2262 56.8367 55.5305 56.5621 55.998 56.5844 56.2727 56.8887 56.5473 57.193 56.525 57.6605 56.2207 57.9352 56.0352 58.1059 55.8422 58.2766 55.6492 58.4398 55.5082 58.5586 55.3375 58.618 55.1668 58.618ZM18.8441 56.7996C18.6512 56.7996 18.4582 56.7254 18.3098 56.5695 18.1316 56.3914 17.9609 56.1984 17.7902 56.0129 17.5156 55.7086 17.5379 55.241 17.8422 54.9664 18.1465 54.6918 18.6141 54.7141 18.8887 55.0184 19.052 55.1965 19.2152 55.3746 19.3785 55.5453 19.6605 55.8422 19.6531 56.3098 19.3562 56.5918 19.2152 56.7328 19.0297 56.7996 18.8441 56.7996ZM57.8164 56.0277C57.6383 56.0277 57.4676 55.9684 57.3266 55.8422 57.0223 55.5676 56.9926 55.1 57.2672 54.7957 57.423 54.6176 57.5863 54.432 57.7422 54.2465 58.0094 53.9348 58.477 53.8902 58.7887 54.1574 59.1004 54.4246 59.1449 54.8922 58.8777 55.2039 58.7145 55.3969 58.5438 55.5898 58.3805 55.7828 58.2246 55.9387 58.0242 56.0277 57.8164 56.0277ZM16.4691 53.957C16.2391 53.957 16.0164 53.8531 15.868 53.6527 15.7195 53.4449 15.5711 53.2371 15.4301 53.0293 15.2 52.6879 15.2816 52.2277 15.623 51.9977 15.9645 51.7676 16.4246 51.8492 16.6547 52.1906 16.7883 52.391 16.9293 52.584 17.0703 52.777 17.3078 53.1109 17.2336 53.5711 16.907 53.816 16.7734 53.9125 16.6176 53.957 16.4691 53.957ZM60.0875 53.0887C59.9465 53.0887 59.8055 53.0516 59.6793 52.9625 59.3379 52.7324 59.2488 52.2723 59.4715 51.9309 59.6051 51.7305 59.7387 51.5301 59.8648 51.3223 60.0801 50.9734 60.5402 50.8695 60.8891 51.0848 61.2379 51.3 61.3418 51.7602 61.1266 52.109 60.993 52.3242 60.852 52.5395 60.7109 52.7473 60.5625 52.9773 60.325 53.0887 60.0875 53.0887ZM14.5023 50.8176C14.2352 50.8176 13.9828 50.6766 13.8492 50.4242 13.7305 50.2016 13.6117 49.9715 13.5004 49.7488 13.3148 49.3852 13.4707 48.9398 13.8344 48.7543 14.2055 48.5688 14.6434 48.7246 14.8289 49.0883 14.9328 49.3035 15.0441 49.5187 15.1555 49.7266 15.3484 50.0902 15.2074 50.5355 14.8512 50.7285 14.7398 50.7879 14.6211 50.8176 14.5023 50.8176ZM61.9207 49.8676C61.8094 49.8676 61.7055 49.8453 61.6016 49.7934 61.2305 49.6152 61.0746 49.1699 61.2527 48.8062 61.3566 48.591 61.4605 48.3684 61.557 48.1531 61.7277 47.782 62.1656 47.6113 62.5367 47.7746 62.9078 47.9453 63.0785 48.3832 62.9152 48.7543 62.8113 48.9844 62.7074 49.2219 62.5961 49.4445 62.4625 49.7117 62.1953 49.8676 61.9207 49.8676ZM13.0031 47.4258C12.6988 47.4258 12.4168 47.2402 12.3055 46.9359 12.2164 46.6984 12.1348 46.4535 12.0531 46.216 11.927 45.8301 12.1348 45.407 12.5281 45.2809 12.9141 45.1547 13.3371 45.3625 13.4633 45.7559 13.5375 45.9859 13.6191 46.216 13.7008 46.4387 13.8418 46.8246 13.6414 47.2477 13.2555 47.3887 13.1738 47.4184 13.0848 47.4258 13.0031 47.4258ZM63.2863 46.4164C63.2121 46.4164 63.1379 46.4016 63.0637 46.3793 62.6703 46.2531 62.4551 45.8375 62.5812 45.4441 62.6555 45.2141 62.7223 44.984 62.7891 44.7539 62.9004 44.3605 63.316 44.1305 63.7094 44.2418 64.1027 44.3531 64.3328 44.7687 64.2215 45.1621 64.1547 45.407 64.0805 45.652 63.9988 45.8895 63.8949 46.216 63.6055 46.4164 63.2863 46.4164ZM11.9863 43.8633C11.6449 43.8633 11.3332 43.6258 11.259 43.277 11.207 43.032 11.1551 42.7797 11.1105 42.5273 11.0363 42.1266 11.3035 41.7406 11.7117 41.6664 12.1125 41.5922 12.4984 41.8594 12.5727 42.2676 12.6172 42.5051 12.6617 42.7426 12.7137 42.9727 12.7953 43.3734 12.543 43.7668 12.1422 43.8484 12.0902 43.8559 12.0383 43.8633 11.9863 43.8633ZM64.1547 42.8168C64.1176 42.8168 64.073 42.8168 64.0285 42.8094 63.6277 42.7426 63.3531 42.3566 63.4199 41.9559L63.5312 41.2434C63.5906 40.8352 63.9617 40.5531 64.3699 40.6125 64.7781 40.6719 65.0602 41.043 65.0008 41.4512 64.9637 41.7035 64.9266 41.9559 64.882 42.2082 64.8301 42.557 64.5109 42.8168 64.1547 42.8168ZM11.4816 40.1895C11.0957 40.1895 10.7691 39.8926 10.7395 39.4992 10.7246 39.2469 10.7098 38.9871 10.7023 38.7348 10.6875 38.3266 11.0066 37.9777 11.4148 37.9629 11.823 37.948 12.1719 38.2672 12.1867 38.6754 12.1941 38.9129 12.209 39.1578 12.2238 39.3953 12.2535 39.8035 11.9418 40.1598 11.5336 40.182 11.5113 40.1895 11.4965 40.1895 11.4816 40.1895ZM64.5184 39.1281 64.4961 39.1281C64.0879 39.1133 63.7613 38.7793 63.7762 38.3637 63.7836 38.1262 63.7836 37.8812 63.7836 37.6437 63.7836 37.2355 64.1176 36.9016 64.5258 36.9016 64.934 36.9016 65.268 37.2355 65.268 37.6437 65.268 37.8961 65.268 38.1559 65.2605 38.4082 65.2457 38.809 64.9191 39.1281 64.5184 39.1281ZM11.4891 36.4859 11.4371 36.4859C11.0289 36.4562 10.7172 36.1 10.7469 35.6918 10.7617 35.4395 10.784 35.1871 10.8137 34.9348 10.8508 34.5266 11.2145 34.2297 11.6227 34.2668 12.0309 34.3039 12.3277 34.6676 12.2906 35.0758 12.2684 35.3133 12.2461 35.5582 12.2312 35.7957 12.2016 36.1891 11.875 36.4859 11.4891 36.4859ZM64.3699 35.5211C63.9988 35.5211 63.6723 35.2391 63.6352 34.8605 63.6129 34.623 63.5832 34.3855 63.5461 34.148 63.4941 33.7398 63.7762 33.3688 64.1844 33.3094 64.5926 33.2574 64.9637 33.5395 65.023 33.9477 65.0602 34.2 65.0898 34.4523 65.1121 34.7047 65.1566 35.1129 64.8598 35.4766 64.4516 35.5211L64.3699 35.5211ZM12.0086 32.8121C11.9566 32.8121 11.9047 32.8047 11.8527 32.7973 11.452 32.7082 11.1996 32.3148 11.2812 31.9141 11.3332 31.6617 11.3926 31.4168 11.452 31.1719 11.5484 30.7711 11.9492 30.5262 12.35 30.6227 12.7508 30.7191 12.9957 31.1199 12.8992 31.5207 12.8398 31.7508 12.7879 31.9883 12.7359 32.2258 12.6543 32.5746 12.35 32.8121 12.0086 32.8121ZM63.7168 31.8695C63.3828 31.8695 63.0859 31.6469 62.9969 31.3055 62.9375 31.0754 62.8781 30.8379 62.8113 30.6078 62.7 30.2145 62.9301 29.8062 63.3234 29.6949 63.7168 29.5836 64.125 29.8137 64.2363 30.207L64.4367 30.9418C64.5406 31.3426 64.2957 31.7434 63.8949 31.8398 63.843 31.8621 63.7836 31.8695 63.7168 31.8695ZM13.0328 29.2496C12.9512 29.2496 12.8621 29.2348 12.7805 29.2051 12.3945 29.0641 12.2016 28.641 12.3426 28.2551 12.4316 28.0176 12.5207 27.7801 12.6172 27.5426 12.7656 27.1641 13.2035 26.9785 13.582 27.127 13.9605 27.2754 14.1461 27.7133 13.9977 28.0918 13.9086 28.3145 13.8195 28.5445 13.7379 28.7672 13.6191 29.0641 13.3371 29.2496 13.0328 29.2496ZM62.5664 28.3516C62.277 28.3516 61.9949 28.1809 61.8762 27.8914 61.7871 27.6687 61.6906 27.4461 61.5941 27.2309 61.4309 26.8523 61.6016 26.4145 61.9727 26.2512 62.3512 26.0879 62.7891 26.2586 62.9523 26.6297 63.0562 26.8598 63.1527 27.0973 63.2492 27.3273 63.4051 27.7059 63.2195 28.1438 62.841 28.2922 62.752 28.3293 62.6555 28.3516 62.5664 28.3516ZM14.5543 25.8652C14.4355 25.8652 14.3168 25.8355 14.2055 25.7762 13.8418 25.5832 13.7082 25.1305 13.9012 24.7742 14.0199 24.5516 14.1461 24.3215 14.2723 24.1062 14.4727 23.75 14.9328 23.6238 15.2816 23.8316 15.6379 24.032 15.7641 24.4922 15.5563 24.841 15.4375 25.0488 15.3187 25.2641 15.2074 25.4719 15.0738 25.7242 14.8141 25.8652 14.5543 25.8652ZM60.9262 25.0266C60.6738 25.0266 60.4215 24.893 60.2879 24.6555 60.1691 24.4477 60.043 24.2398 59.9168 24.0395 59.7016 23.6906 59.8055 23.2305 60.1543 23.0152 60.5031 22.8 60.9633 22.9039 61.1785 23.2527 61.3121 23.468 61.4457 23.6832 61.5719 23.9059 61.7797 24.2621 61.6609 24.7148 61.3047 24.9227 61.1859 24.9969 61.0523 25.0266 60.9262 25.0266ZM16.5285 22.7258C16.3801 22.7258 16.2242 22.6812 16.0906 22.5848 15.7566 22.3398 15.6898 21.8797 15.9273 21.5457 16.0758 21.3379 16.2316 21.1375 16.3875 20.9371 16.6398 20.6105 17.1074 20.5512 17.4266 20.8035 17.7531 21.0559 17.8125 21.5234 17.5602 21.8426 17.4117 22.0281 17.2707 22.2211 17.1297 22.4215 16.9813 22.6219 16.7586 22.7258 16.5285 22.7258ZM58.8406 21.9613C58.618 21.9613 58.4027 21.8648 58.2543 21.6793 58.1059 21.4937 57.9574 21.3008 57.8016 21.1227 57.5418 20.8109 57.5789 20.3434 57.898 20.0762 58.2098 19.8164 58.6773 19.8535 58.9445 20.1727 59.1078 20.3656 59.2711 20.566 59.427 20.7664 59.6793 21.0855 59.6273 21.5531 59.3008 21.8055 59.1672 21.9094 59.0039 21.9613 58.8406 21.9613ZM18.9184 19.8906C18.7328 19.8906 18.5473 19.8238 18.3988 19.6828 18.102 19.4008 18.0945 18.9258 18.384 18.6363 18.5621 18.4582 18.7402 18.2727 18.9258 18.0945 19.2227 17.8051 19.6902 17.8125 19.9723 18.1094 20.2617 18.4062 20.2543 18.8738 19.9574 19.1559L19.4453 19.668C19.3043 19.8164 19.1113 19.8906 18.9184 19.8906ZM56.3469 19.2227C56.1613 19.2227 55.9758 19.1559 55.8348 19.0148 55.6641 18.8516 55.4859 18.6809 55.3078 18.525 55.0035 18.2504 54.9813 17.7828 55.2559 17.4785 55.5305 17.1742 55.998 17.152 56.3023 17.4266 56.4879 17.5973 56.6809 17.7754 56.859 17.9461 57.1559 18.2281 57.1633 18.7031 56.8813 18.9926 56.7402 19.141 56.5473 19.2227 56.3469 19.2227ZM21.6793 17.4191C21.4566 17.4191 21.2414 17.3227 21.093 17.1297 20.8406 16.8031 20.9 16.343 21.2191 16.0906 21.4195 15.9348 21.6199 15.7789 21.8277 15.6305 22.1617 15.3855 22.6219 15.4598 22.8668 15.7863 23.1117 16.1203 23.0375 16.5805 22.7109 16.8254 22.518 16.9664 22.325 17.1148 22.1395 17.2633 21.9984 17.3672 21.8352 17.4191 21.6793 17.4191ZM53.5043 16.8477C53.3559 16.8477 53.2 16.8031 53.0738 16.7066 52.8809 16.5656 52.6805 16.4246 52.4801 16.291 52.1387 16.0609 52.057 15.6008 52.2871 15.2594 52.5172 14.918 52.9773 14.8363 53.3188 15.0664 53.5266 15.2074 53.7418 15.3559 53.9422 15.5043 54.2762 15.7418 54.3504 16.2094 54.1129 16.5434 53.957 16.7363 53.7344 16.8477 53.5043 16.8477ZM24.752 15.3484C24.4922 15.3484 24.2473 15.2148 24.1062 14.9773 23.8984 14.6211 24.0246 14.1684 24.3809 13.9605 24.6035 13.8344 24.8262 13.7082 25.0488 13.5895 25.4125 13.3965 25.8578 13.5301 26.0508 13.8938 26.2437 14.2574 26.1102 14.7027 25.7465 14.8957 25.5387 15.007 25.3234 15.1258 25.1156 15.2445 25.0043 15.3187 24.8781 15.3484 24.752 15.3484ZM50.35 14.8883C50.2313 14.8883 50.1125 14.8586 50.0012 14.7992 49.7859 14.6879 49.5707 14.5766 49.3555 14.4727 48.9844 14.2945 48.8359 13.8492 49.0141 13.4781 49.1922 13.107 49.6375 12.9586 50.0086 13.1367 50.2387 13.248 50.4613 13.3668 50.6914 13.4855 51.0551 13.6785 51.1961 14.1238 51.0031 14.4875 50.877 14.7473 50.6172 14.8883 50.35 14.8883ZM28.0844 13.7379C27.7875 13.7379 27.5129 13.5598 27.3941 13.2703 27.2383 12.8918 27.4238 12.4613 27.8098 12.3055 28.0473 12.209 28.2848 12.1199 28.5223 12.0309 28.9082 11.8898 29.3313 12.0828 29.4723 12.4688 29.6133 12.8547 29.4203 13.2777 29.0344 13.4187 28.8117 13.5004 28.5816 13.5895 28.359 13.6785 28.2699 13.7156 28.1809 13.7379 28.0844 13.7379ZM46.9582 13.3891C46.8766 13.3891 46.7875 13.3742 46.7059 13.3445 46.4758 13.2629 46.2457 13.1813 46.023 13.107 45.6371 12.9809 45.4219 12.5578 45.548 12.1719 45.6742 11.7859 46.0973 11.5707 46.4832 11.6969 46.7207 11.7785 46.9656 11.8602 47.2105 11.9492 47.5965 12.0902 47.7969 12.5133 47.6559 12.8992 47.5445 13.2035 47.2625 13.3891 46.9582 13.3891ZM31.6172 12.5949C31.2832 12.5949 30.9789 12.3648 30.8973 12.0309 30.8008 11.6301 31.0457 11.2293 31.4391 11.1328 31.684 11.0734 31.9363 11.0141 32.1813 10.9621 32.582 10.873 32.9754 11.1328 33.0645 11.5336 33.1535 11.9344 32.8937 12.3277 32.493 12.4168 32.2629 12.4688 32.0254 12.5207 31.7879 12.5801 31.7359 12.5949 31.6691 12.5949 31.6172 12.5949ZM43.3883 12.3871C43.3363 12.3871 43.2844 12.3797 43.2398 12.3723 43.0098 12.3203 42.7648 12.2758 42.5348 12.2387 42.134 12.1645 41.8594 11.7785 41.9336 11.3777 42.0078 10.977 42.3937 10.7023 42.7945 10.7766 43.0469 10.8211 43.2992 10.873 43.5441 10.9176 43.9449 10.9992 44.2047 11.3926 44.123 11.7934 44.0414 12.1422 43.7297 12.3871 43.3883 12.3871ZM35.2687 11.9715C34.8902 11.9715 34.5711 11.6895 34.534 11.3035 34.4895 10.8953 34.7863 10.5316 35.1945 10.4871L35.9516 10.4203C36.3598 10.3906 36.716 10.6949 36.7457 11.1031 36.7754 11.5113 36.4711 11.8676 36.0629 11.8973 35.8254 11.9121 35.5805 11.9344 35.343 11.9566 35.3133 11.9641 35.291 11.9715 35.2687 11.9715ZM39.7145 11.8898 39.6625 11.8898C39.425 11.875 39.1801 11.8602 38.9426 11.8527 38.5344 11.8379 38.2152 11.4965 38.2301 11.0809 38.2449 10.6727 38.5863 10.3535 39.002 10.3684 39.2543 10.3758 39.5141 10.3906 39.7664 10.4055 40.1746 10.4352 40.4863 10.784 40.4566 11.1922 40.427 11.5855 40.1004 11.8898 39.7145 11.8898Z" fill="#00A1E4"/><path d="M57.616 18.1762C56.5102 18.1762 55.6121 19.0742 55.6121 20.1801 55.6121 21.2859 56.5102 22.184 57.616 22.184 58.7219 22.184 59.6199 21.2859 59.6199 20.1801 59.6199 19.0742 58.7219 18.1762 57.616 18.1762Z" fill="#E6E6E6"/><path d="M57.616 16.6918C55.6938 16.6918 54.1277 18.2578 54.1277 20.1801 54.1277 22.1023 55.6938 23.6684 57.616 23.6684 59.5383 23.6684 61.1043 22.1023 61.1043 20.1801 61.1043 18.2578 59.5383 16.6918 57.616 16.6918ZM55.6047 20.1801C55.6047 19.0742 56.5027 18.1762 57.6086 18.1762 58.7145 18.1762 59.6125 19.0742 59.6125 20.1801 59.6125 21.2859 58.7145 22.184 57.6086 22.184 56.5027 22.184 55.6047 21.2859 55.6047 20.1801Z" fill="#00A1E4"/><path d="M53.6008 30.2812 22.3398 30.2812C22.1098 30.7637 21.902 31.2609 21.7238 31.7656L54.2242 31.7656C54.0387 31.2609 53.8309 30.7637 53.6008 30.2812Z" fill="#06F3FF"/><path d="M52.2871 23.327C48.4648 19.5047 43.3809 17.3969 37.9703 17.3969 32.5598 17.3969 27.4758 19.5047 23.6535 23.327 19.8313 27.1492 17.7234 32.2332 17.7234 37.6437 17.7234 43.0543 19.8313 48.1383 23.6535 51.9605 27.4758 55.7828 32.5598 57.8906 37.9703 57.8906 43.3809 57.8906 48.4648 55.7828 52.2871 51.9605 56.1094 48.1383 58.2172 43.0543 58.2172 37.6437 58.2172 32.2332 56.1168 27.1492 52.2871 23.327ZM22.5328 45.3848 28.9973 45.3848C29.0789 45.6223 29.168 45.8598 29.257 46.0973 30.0734 48.2051 31.209 50.2238 32.6266 52.0941 33.3836 53.0887 34.1332 53.9348 34.816 54.625 29.4352 53.6305 24.9227 50.1348 22.5328 45.3848ZM37.2281 54.8625C36.3375 54.0906 35.0461 52.8438 33.7695 51.1516 32.6785 49.7043 31.4762 47.7672 30.5781 45.3773L37.2281 45.3773 37.2281 54.8625ZM38.7125 54.8625 38.7125 45.3848 45.3625 45.3848C44.4645 47.7672 43.2621 49.7117 42.1711 51.159 40.8945 52.8512 39.6031 54.0906 38.7125 54.8625ZM41.132 54.6324C41.8148 53.9348 42.5645 53.0961 43.3215 52.1016 44.7465 50.2238 45.882 48.2125 46.691 46.1047 46.7801 45.8672 46.8691 45.6297 46.9508 45.3922L53.4152 45.3922C51.0254 50.1348 46.5129 53.6305 41.132 54.6324ZM54.0758 43.9004 47.4109 43.9004C47.9527 41.9336 48.2273 39.9 48.2273 37.8293 48.2273 35.7734 47.9527 33.7398 47.4184 31.7582L45.8672 31.7582C46.4016 33.584 46.7355 35.6102 46.7355 37.8293 46.7355 40.0559 46.3941 42.0895 45.8598 43.9004L38.7125 43.9004 38.7125 31.7656 37.2281 31.7656 37.2281 43.9004 30.0809 43.9004C29.5465 42.0895 29.2051 40.0633 29.2051 37.8293 29.2051 35.6176 29.5465 33.584 30.0734 31.7582L28.5223 31.7582C27.9879 33.7398 27.7133 35.7734 27.7133 37.8293 27.7133 39.9 27.9879 41.9262 28.5297 43.9004L21.8648 43.9004C21.1078 41.9559 20.6922 39.848 20.6922 37.6437 20.6922 35.5805 21.0559 33.5988 21.7238 31.7656 21.9094 31.2609 22.1172 30.7637 22.3398 30.2812 24.6926 25.3086 29.3535 21.6273 34.9348 20.6328 34.2223 21.3824 33.4207 22.2953 32.6191 23.3863 31.2016 25.316 30.066 27.3793 29.2496 29.5094 29.1531 29.7617 29.0641 30.0215 28.975 30.2812L30.5559 30.2812C31.4613 27.832 32.6785 25.8133 33.777 24.3066 35.0535 22.5699 36.3375 21.2785 37.2281 20.4695L37.2281 30.2812 38.7125 30.2812 38.7125 20.4695C39.6031 21.2785 40.8871 22.5773 42.1637 24.3066 43.2695 25.8133 44.4867 27.8246 45.3848 30.2812L46.9656 30.2812C46.8766 30.0215 46.7875 29.7691 46.691 29.5094 45.8746 27.3719 44.7465 25.316 43.3215 23.3863 42.5273 22.2953 41.7258 21.375 41.0133 20.6328 46.5945 21.6273 51.2555 25.3086 53.6082 30.2812 53.8383 30.7637 54.0461 31.2609 54.2242 31.7656 54.8922 33.5988 55.2559 35.5805 55.2559 37.6437 55.2484 39.848 54.8328 41.9633 54.0758 43.9004Z" fill="#00A1E4"/></g></svg>