<svg width="76" height="76" xmlns="http://www.w3.org/2000/svg" xmlns:xlink="http://www.w3.org/1999/xlink" overflow="hidden"><defs><clipPath id="clip0"><rect x="0" y="0" width="76" height="76"/></clipPath></defs><g clip-path="url(#clip0)"><path d="M19.193 34.3336C19.193 44.7328 27.6231 53.1629 38.0223 53.1629 48.4214 53.1629 56.8516 44.7328 56.8516 34.3336 56.8516 23.9344 48.4214 15.5043 38.0223 15.5043 27.6231 15.5043 19.193 23.9344 19.193 34.3336Z" fill="#FFFFFF"/><path d="M47.3664 64.5184 43.2918 55.4488C41.5922 55.8719 39.8258 56.0871 38.0297 56.0871 35.9516 56.0871 33.918 55.7977 31.9734 55.2336L27.7875 64.5629 47.3664 64.5184Z" fill="#E6E6E6"/><path d="M59.8203 34.2965C59.8203 28.4777 57.5566 23.0078 53.4375 18.8961 49.3184 14.7844 43.8559 12.5133 38.0371 12.5133 32.2184 12.5133 26.7484 14.777 22.6367 18.8961 18.525 23.0152 16.2539 28.4777 16.2539 34.2965 16.2539 40.1152 18.5176 45.5852 22.6367 49.6969 24.559 51.6191 26.7781 53.1406 29.1902 54.2094L24.2844 65.1418C24.0469 65.6687 24.0914 66.2773 24.4105 66.7598 24.7223 67.2422 25.2566 67.5316 25.8355 67.5316L25.843 67.5316 49.5187 67.4723C49.7934 67.4723 50.0531 67.3906 50.2758 67.2645 51.0031 66.923 51.3297 66.0547 50.9957 65.3125L46.1492 54.5211C48.8508 53.4375 51.3297 51.8121 53.4523 49.6895 57.5566 45.5852 59.8203 40.1152 59.8203 34.2965ZM47.3664 64.5184 27.7875 64.5629 31.9734 55.2336C33.918 55.7902 35.9516 56.0871 38.0297 56.0871 39.8258 56.0871 41.5922 55.8719 43.2918 55.4488L47.3664 64.5184ZM38.0371 53.1184C27.6613 53.1184 19.2227 44.6723 19.2227 34.2965 19.2227 23.9207 27.6613 15.482 38.0371 15.482 48.4129 15.482 56.8516 23.9207 56.8516 34.2965 56.8516 44.6723 48.4129 53.1184 38.0371 53.1184ZM21.0633 15.5859C21.234 15.5859 21.4121 15.5266 21.5531 15.4004 21.9168 15.0887 22.2879 14.777 22.6664 14.4801 22.993 14.2277 23.0449 13.7602 22.8 13.441 22.5477 13.1145 22.0801 13.0625 21.7609 13.3074 21.3602 13.6191 20.9668 13.9457 20.5809 14.2797 20.2691 14.5469 20.2395 15.0219 20.5066 15.3262 20.6477 15.5043 20.8555 15.5859 21.0633 15.5859ZM17.5082 18.6215C17.6492 18.7328 17.8125 18.7848 17.9758 18.7848 18.191 18.7848 18.4062 18.6883 18.5547 18.5102 18.859 18.1391 19.1707 17.768 19.4973 17.4191 19.7719 17.1148 19.7496 16.6473 19.4453 16.3727 19.141 16.098 18.6734 16.1203 18.3988 16.4246 18.0574 16.8031 17.7234 17.1891 17.4043 17.5824 17.1445 17.9016 17.1891 18.3691 17.5082 18.6215ZM28.6336 10.9918C28.7227 10.9918 28.8117 10.977 28.9008 10.9398 29.3461 10.7691 29.7988 10.6059 30.259 10.4574 30.6523 10.3313 30.8602 9.9082 30.734 9.52227 30.6078 9.13633 30.1848 8.92109 29.7988 9.04727 29.3164 9.20312 28.834 9.37383 28.3664 9.55937 27.9879 9.70781 27.7949 10.1383 27.9434 10.5242 28.0547 10.8137 28.3367 10.9918 28.6336 10.9918ZM37.3395 9.23281C37.5695 9.22539 37.807 9.22539 38.0371 9.22539 38.282 9.22539 38.5344 9.22539 38.7793 9.23281L38.8016 9.23281C39.2023 9.23281 39.5289 8.91367 39.5438 8.51289 39.5586 8.10469 39.232 7.76328 38.8238 7.74844 38.5641 7.74102 38.2969 7.73359 38.0371 7.73359 37.7922 7.73359 37.5398 7.73359 37.2949 7.74102 36.8867 7.75586 36.5602 8.09727 36.575 8.50547 36.5824 8.92109 36.9238 9.24766 37.3395 9.23281ZM41.6516 9.48516C42.1266 9.55195 42.6016 9.63359 43.0691 9.73008 43.1211 9.7375 43.1656 9.74492 43.2176 9.74492 43.5664 9.74492 43.8707 9.5 43.9449 9.15117 44.0266 8.75039 43.7668 8.35703 43.366 8.27539 42.8687 8.17148 42.3641 8.08984 41.8594 8.01562 41.4512 7.95625 41.0801 8.23828 41.0207 8.64648 40.9613 9.05469 41.2434 9.42578 41.6516 9.48516ZM32.8937 9.7375C32.9457 9.7375 32.9902 9.73008 33.0422 9.72266 33.5098 9.62617 33.9922 9.54453 34.4598 9.47773 34.868 9.41836 35.15 9.04727 35.0906 8.63906 35.0312 8.23086 34.6602 7.94883 34.252 8.0082 33.7473 8.08242 33.2426 8.16406 32.7453 8.26797 32.3445 8.34961 32.0848 8.74297 32.1664 9.14375 32.2406 9.49258 32.5523 9.7375 32.8937 9.7375ZM24.648 12.966C24.7816 12.966 24.9152 12.9289 25.034 12.8547 25.4422 12.6098 25.8652 12.3648 26.2883 12.1422 26.652 11.9492 26.7855 11.5039 26.5926 11.1402 26.3996 10.7766 25.9543 10.643 25.5906 10.8359 25.1453 11.0734 24.7 11.3258 24.2621 11.593 23.9133 11.8082 23.802 12.2609 24.0098 12.6098 24.1582 12.8324 24.4031 12.966 24.648 12.966ZM53.4523 14.5172C53.8309 14.8141 54.202 15.1184 54.5656 15.4375 54.7066 15.5637 54.8773 15.623 55.0555 15.623 55.2633 15.623 55.4637 15.534 55.6121 15.3707 55.8793 15.059 55.8496 14.5914 55.5453 14.3242 55.1668 13.9902 54.766 13.6637 54.3727 13.352 54.0461 13.0996 53.5859 13.159 53.3336 13.4781 53.0664 13.8047 53.1258 14.2648 53.4523 14.5172ZM49.8305 12.1645C50.2535 12.3871 50.6766 12.632 51.0848 12.877 51.2035 12.9512 51.3371 12.9883 51.4707 12.9883 51.723 12.9883 51.968 12.8621 52.1016 12.632 52.3168 12.2832 52.2055 11.823 51.8566 11.6152 51.4262 11.348 50.9809 11.0957 50.5281 10.8582 50.1645 10.6652 49.7191 10.7988 49.5262 11.1625 49.3332 11.5188 49.4668 11.9715 49.8305 12.1645ZM16.6398 19.8313C16.291 19.6086 15.8383 19.7125 15.6156 20.0613 15.341 20.4918 15.0813 20.9297 14.8363 21.375 14.6359 21.7312 14.7621 22.184 15.1258 22.3844 15.2371 22.4512 15.3633 22.4809 15.4895 22.4809 15.7492 22.4809 16.0016 22.3473 16.1352 22.1023 16.3652 21.6867 16.6176 21.2711 16.8773 20.8629 17.0852 20.5066 16.9887 20.0465 16.6398 19.8313ZM45.8523 10.4648C46.3051 10.6133 46.7652 10.7766 47.2105 10.9547 47.2996 10.9918 47.3887 11.0066 47.4852 11.0066 47.782 11.0066 48.0641 10.8285 48.1754 10.5391 48.3238 10.1605 48.1383 9.73008 47.7598 9.57422 47.2848 9.38867 46.8023 9.21797 46.3199 9.05469 45.934 8.92852 45.5109 9.13633 45.3848 9.52969 45.2512 9.92305 45.4664 10.3387 45.8523 10.4648ZM57.5566 18.5547C57.7051 18.7328 57.9203 18.8293 58.1355 18.8293 58.2988 18.8293 58.4621 18.7773 58.6031 18.666 58.9223 18.4062 58.9742 17.9387 58.7145 17.6195 58.3953 17.2262 58.0613 16.8328 57.7199 16.4617 57.4453 16.1574 56.9777 16.1352 56.6734 16.4098 56.3691 16.6844 56.3469 17.152 56.6215 17.4562 56.9406 17.8125 57.2523 18.1836 57.5566 18.5547ZM61.2676 21.4121C61.0227 20.9668 60.7629 20.5289 60.4883 20.0984 60.2656 19.7496 59.8129 19.6457 59.4641 19.8684 59.1152 20.091 59.0113 20.5437 59.234 20.8926 59.4937 21.3008 59.7387 21.7164 59.9688 22.132 60.1023 22.377 60.3547 22.5105 60.6145 22.5105 60.7332 22.5105 60.8594 22.4809 60.9707 22.4141 61.3344 22.2211 61.468 21.7684 61.2676 21.4121ZM14.8066 24.8484C14.8289 24.7965 14.8512 24.7371 14.8734 24.6852 15.0293 24.3066 14.8512 23.8687 14.4727 23.7129 14.0941 23.557 13.6562 23.7352 13.5004 24.1137 13.4707 24.1805 13.441 24.2547 13.4187 24.3215 12.8992 24.4105 12.4391 24.7668 12.2535 25.2937 11.2441 28.1809 10.732 31.209 10.732 34.2965 10.732 36.9461 11.1105 39.5734 11.8602 42.0895 12.0531 42.7352 12.6395 43.1508 13.2852 43.1508 13.4262 43.1508 13.5672 43.1285 13.7082 43.0914 14.4949 42.8613 14.9402 42.0301 14.7102 41.2434 14.0422 39.002 13.7008 36.6641 13.7008 34.2965 13.7008 31.543 14.1535 28.8488 15.0516 26.2734 15.2371 25.7688 15.1184 25.2344 14.8066 24.8484ZM63.8207 25.3012C63.6352 24.7668 63.175 24.4105 62.6555 24.3289 62.6332 24.277 62.6109 24.2176 62.5887 24.1656 62.4328 23.7871 61.9949 23.609 61.6164 23.7648 61.2379 23.9207 61.0598 24.3586 61.2156 24.7371 61.2305 24.7816 61.2453 24.8188 61.2676 24.8633 60.9559 25.2492 60.8371 25.7836 61.0152 26.2883 61.9133 28.8562 62.366 31.5578 62.366 34.3113 62.366 36.6789 62.0246 39.0168 61.3566 41.2582 61.1266 42.0449 61.5719 42.8687 62.3586 43.1063 62.4996 43.1508 62.6406 43.1656 62.7816 43.1656 63.4199 43.1656 64.0137 42.75 64.2066 42.1043 64.9563 39.5809 65.3348 36.9609 65.3348 34.3113 65.3422 31.2164 64.8301 28.1883 63.8207 25.3012Z" fill="#00A1E4"/><path d="M38.0371 18.8961C29.5391 18.8961 22.6293 25.8059 22.6293 34.3039 22.6293 42.802 29.5391 49.7117 38.0371 49.7117 46.5352 49.7117 53.4449 42.802 53.4449 34.3039 53.4449 25.8059 46.5352 18.8961 38.0371 18.8961ZM38.0371 48.2199C30.3629 48.2199 24.1137 41.9781 24.1137 34.2965 24.1137 26.6223 30.3555 20.373 38.0371 20.373 45.7113 20.373 51.9605 26.6148 51.9605 34.2965 51.9605 41.9781 45.7113 48.2199 38.0371 48.2199Z" fill="#06F3FF"/><path d="M44.227 35.4395 43.7594 36.4043 41.9855 31.2238C41.9113 30.9937 41.6887 30.8453 41.4512 30.8453L41.4438 30.8453C41.1988 30.8527 40.991 31.0086 40.9168 31.2461L37.9035 41.0875 36.5527 23.7352C36.5305 23.4531 36.3078 23.2305 36.0258 23.2156 35.766 23.1711 35.4914 23.3938 35.4395 23.6684L32.916 36.5156 31.7805 34.4523C31.7063 34.3187 31.5727 34.2148 31.4242 34.1777 31.2758 34.1406 31.1125 34.1703 30.9789 34.252L28.2699 36.048 27.7875 35.9219C27.4832 35.8328 27.1789 36.0184 27.0973 36.3227 27.0156 36.6195 27.1938 36.9313 27.498 37.0129L28.218 37.2059C28.3813 37.2504 28.5371 37.2207 28.6707 37.1316L31.0902 35.5285 32.6785 38.4082C32.7898 38.616 33.0199 38.7273 33.2574 38.6902 33.4875 38.6531 33.673 38.475 33.725 38.2449L35.7586 27.9062 37.0203 44.123C37.0426 44.3902 37.2504 44.6055 37.5176 44.6426 37.5398 44.65 37.5621 44.65 37.577 44.65 37.8219 44.65 38.0445 44.4867 38.1113 44.2492L41.4809 33.2352 43.1508 38.0742C43.225 38.2895 43.418 38.4379 43.648 38.4527 43.8707 38.4602 44.0859 38.334 44.1824 38.1336L45.073 36.2633 48.9102 36.4562C49.2367 36.5008 49.4816 36.2336 49.4965 35.9219 49.5113 35.6102 49.2738 35.3504 48.9621 35.3355L44.7539 35.1203C44.5387 35.1129 44.3234 35.2391 44.227 35.4395Z" fill="#00A1E4"/></g></svg>