<svg width="76" height="76" xmlns="http://www.w3.org/2000/svg" xmlns:xlink="http://www.w3.org/1999/xlink" overflow="hidden"><defs><clipPath id="clip0"><rect x="0" y="0" width="76" height="76"/></clipPath></defs><g clip-path="url(#clip0)"><path d="M37.1465 13.0254C26.266 13.0254 17.4117 21.8797 17.4117 32.7602 17.4117 41.6664 23.4977 49.5262 32.0105 51.8195L31.825 46.9805C31.825 46.9805 24.5145 42.0004 23.1414 39.284 21.7684 36.5676 22.5848 27.1418 24.3289 24.7668 26.073 22.3918 29.4129 18.8664 33.6805 18.05 37.948 17.2336 42.4383 18.05 46.1492 20.6105 49.8602 23.1711 51.5301 30.593 51.5301 30.593 51.5301 30.593 54.625 30.4297 56.8367 31.543 56.2059 21.2191 47.6187 13.0254 37.1465 13.0254Z" fill="#E6E6E6"/><path d="M49.5262 25.9023C47.0324 21.4047 42.2898 18.6066 37.1465 18.6066 29.3461 18.6066 23.0004 24.9523 23.0004 32.7527 23.0004 38.9871 26.9934 44.4125 32.9383 46.2605 33.0348 46.2902 33.1164 46.3348 33.1832 46.3941L49.7043 26.1102C49.6301 26.0582 49.5707 25.9914 49.5262 25.9023Z" fill="#FFFFFF"/><path d="M50.825 25.1824C48.0641 20.2098 42.8242 17.1223 37.1465 17.1223 28.5297 17.1223 21.516 24.1359 21.516 32.7527 21.516 36.152 22.5922 39.3879 24.6184 42.1043 26.5852 44.7316 29.3832 46.7133 32.493 47.6781 32.5672 47.7004 32.6414 47.7152 32.7156 47.7152 33.0348 47.7152 33.3242 47.5148 33.4207 47.1957 33.5098 46.8988 33.4059 46.5871 33.1832 46.4016 33.109 46.3422 33.0273 46.2977 32.9383 46.268 26.9934 44.4199 23.0004 38.9871 23.0004 32.7602 23.0004 24.9598 29.3461 18.6141 37.1465 18.6141 42.2824 18.6141 47.025 21.4121 49.5262 25.9098 49.5707 25.9914 49.6375 26.0656 49.7043 26.125 49.9344 26.3105 50.2609 26.3477 50.5355 26.1992 50.8918 25.9914 51.018 25.5461 50.825 25.1824Z" fill="#06F3FF"/><path d="M32.7305 32.7602C32.7305 35.1991 34.7076 37.1762 37.1465 37.1762 39.5854 37.1762 41.5625 35.1991 41.5625 32.7602 41.5625 30.3213 39.5854 28.3441 37.1465 28.3441 34.7076 28.3441 32.7305 30.3213 32.7305 32.7602Z" fill="#00A1E4"/><path d="M24.4848 58.8629C24.3734 58.8629 24.2621 58.8406 24.1508 58.7812 19.052 56.2355 14.8438 52.2797 11.9789 47.3441 11.7711 46.9879 11.8898 46.5352 12.2461 46.3273 12.6023 46.1195 13.0551 46.2383 13.2629 46.5945 15.9793 51.2777 19.9797 55.0258 24.8113 57.4453 25.175 57.6309 25.3234 58.0762 25.1453 58.4398 25.0191 58.7145 24.752 58.8629 24.4848 58.8629Z" fill="#00A1E4"/><path d="M59.4863 36.8125C59.4492 36.8125 59.4195 36.8051 59.3824 36.8051 59.3305 36.8051 59.2785 36.8051 59.234 36.8125 59.2191 36.8125 59.1969 36.8199 59.182 36.8199 59.1523 36.8273 59.1227 36.8273 59.093 36.8348 59.0707 36.8422 59.0484 36.8496 59.0262 36.8496 59.0039 36.857 58.9742 36.8645 58.952 36.8719 58.9297 36.8793 58.9 36.8867 58.8777 36.9016 58.8555 36.909 58.8406 36.9164 58.8184 36.9238 58.7887 36.9387 58.7664 36.9461 58.7367 36.9609L58.6922 36.9832C58.6625 36.998 58.6328 37.0203 58.6031 37.0352 58.5957 37.0426 58.5809 37.05 58.5734 37.0574L58.4844 37.1242C58.477 37.1316 58.4695 37.1316 58.4621 37.1391 58.4324 37.1613 58.4027 37.191 58.373 37.2207 58.3656 37.2207 58.3656 37.2281 58.3582 37.2281 58.3285 37.2578 58.2988 37.2875 58.2691 37.3246L58.2617 37.332C58.0391 37.5918 57.9055 37.9258 57.9055 38.2895L57.9055 45.125 54.9367 45.125 54.8996 33.5172C54.8996 32.7008 54.2391 32.0328 53.4227 32.0328 52.6063 32.0328 51.9457 32.6934 51.9457 33.5098L51.9457 42.0078 48.977 42.0078 48.977 27.7059C48.977 26.8895 48.3164 26.2289 47.5 26.2289 46.6836 26.2289 46.023 26.8895 46.023 27.7059L46.023 38.423 43.0543 38.4305 43.0469 36.7605 43.0469 23.9875C43.0469 23.1711 42.3863 22.5105 41.5699 22.5105 41.0578 22.5105 40.5902 22.7703 40.3156 23.2008 40.1672 23.4383 40.093 23.7055 40.093 23.9875L40.093 47.4035 37.1242 47.4035 37.1242 36.4859C37.1242 35.6695 36.4637 35.009 35.6473 35.009 34.8309 35.009 34.1703 35.6695 34.1703 36.4859L34.1703 56.8145C34.1703 59.8129 36.6047 62.2473 39.6031 62.2473L55.434 62.2473C58.4324 62.2473 60.8668 59.8129 60.8668 56.8145L60.8668 38.282C60.852 37.5027 60.2508 36.8645 59.4863 36.8125Z" fill="#FFFFFF"/><path d="M59.8203 33.8586C59.8352 33.4949 59.85 33.1238 59.85 32.7527 59.85 26.6891 57.4898 20.9891 53.2 16.6992 48.9102 12.4094 43.2102 10.0492 37.1465 10.0492 31.0828 10.0492 25.3828 12.4094 21.093 16.6992 16.8031 20.9891 14.443 26.6891 14.443 32.7527 14.443 35.4172 14.9031 38.0297 15.8012 40.5086 16.677 42.9059 17.9387 45.1324 19.5641 47.1141 22.5625 50.7805 26.6594 53.4301 31.1941 54.6621L31.1941 56.807C31.1941 61.4383 34.9645 65.2086 39.5957 65.2086L55.4266 65.2086C60.0578 65.2086 63.8281 61.4383 63.8281 56.807L63.8281 38.282C63.8207 35.9813 62.0617 34.0812 59.8203 33.8586ZM31.1941 51.5746C23.1117 49.0141 17.4117 41.377 17.4117 32.7602 17.4117 21.8797 26.266 13.0254 37.1465 13.0254 47.2922 13.0254 55.6789 20.7293 56.7625 30.593 55.9461 29.6652 54.7512 29.0715 53.4227 29.0715 52.9031 29.0715 52.4059 29.1605 51.9457 29.3238L51.9457 27.7059C51.9457 25.2566 49.9492 23.2602 47.5 23.2602 46.973 23.2602 46.4609 23.3566 45.9859 23.5273 45.7559 21.2934 43.8559 19.5492 41.5625 19.5492 40.0262 19.5492 38.6234 20.3285 37.7996 21.6273 37.7848 21.6496 37.7699 21.6719 37.7625 21.6941 37.5621 21.6867 37.3543 21.6793 37.1539 21.6793 31.0383 21.6793 26.0656 26.652 26.0656 32.7676 26.0656 34.6898 26.5703 36.5898 27.5129 38.2523 28.4035 39.8184 29.6801 41.1543 31.2016 42.1191L31.2016 51.5746ZM31.1941 36.4859 31.1941 40.3008C28.8859 38.4898 27.5426 35.7438 27.5426 32.7602 27.5426 27.4609 31.8547 23.1562 37.1465 23.1562L37.1984 23.1562C37.1465 23.4309 37.1168 23.7055 37.1168 23.9875L37.1168 32.2926C36.6566 32.1293 36.1594 32.0402 35.6398 32.0402 33.1906 32.0402 31.1941 34.0367 31.1941 36.4859ZM60.852 56.8145C60.852 59.8129 58.4176 62.2473 55.4191 62.2473L39.5957 62.2473C36.5973 62.2473 34.1629 59.8129 34.1629 56.8145L34.1629 36.4859C34.1629 35.6695 34.8234 35.009 35.6398 35.009 36.4562 35.009 37.1168 35.6695 37.1168 36.4859L37.1168 47.4035 40.0855 47.4035 40.0855 23.9875C40.0855 23.7055 40.1672 23.4383 40.3082 23.2008 40.5828 22.7703 41.0504 22.5105 41.5625 22.5105 42.3789 22.5105 43.0395 23.1711 43.0395 23.9875L43.0395 36.7605 43.0469 38.4305 46.0156 38.423 46.0156 27.7059C46.0156 26.8895 46.6762 26.2289 47.4926 26.2289 48.309 26.2289 48.9695 26.8895 48.9695 27.7059L48.9695 42.0078 51.9383 42.0078 51.9383 33.5172C51.9383 32.7008 52.5988 32.0402 53.4152 32.0402 54.2316 32.0402 54.8922 32.7008 54.8922 33.5246L54.9293 45.1324 57.898 45.1324 57.898 38.2895 57.898 38.2449C57.9203 37.4508 58.5734 36.8125 59.375 36.8125 59.4121 36.8125 59.4492 36.8125 59.4789 36.8199 60.2434 36.8719 60.852 37.5102 60.852 38.2895L60.852 56.8145Z" fill="#00A1E4"/><path d="M44.6352 57.4527 46.8988 57.4527 46.8988 60.273 44.6352 60.273ZM48.309 57.4527 50.5727 57.4527 50.5727 60.273 48.309 60.273ZM53.1109 57.4527 55.3746 57.4527 55.3746 60.273 53.1109 60.273Z" fill="#00A1E4"/></g></svg>