<svg width="38" height="38" xmlns="http://www.w3.org/2000/svg" xmlns:xlink="http://www.w3.org/1999/xlink" overflow="hidden"><defs><clipPath id="clip0"><rect x="0" y="0" width="38" height="38"/></clipPath></defs><g clip-path="url(#clip0)"><path d="M21.375 19C21.375 26.0775 38 31.825 20.425 31.825 2.85 31.825 19.475 26.0775 19.475 19 19.475 11.9225 2.85 6.175 20.425 6.175 38 6.175 21.375 11.9225 21.375 19Z" fill="#D6F3FF"/><path d="M20.425 32.3C14.9625 32.3 12.54 31.7775 12.0175 30.495 11.495 29.26 12.8725 27.835 14.6775 25.9825 16.5775 24.035 19 21.5175 19 19 19 16.4825 16.5775 13.965 14.63 11.97 12.8725 10.165 11.4475 8.74 11.97 7.4575 12.54 6.2225 14.9625 5.7 20.425 5.7 25.8875 5.7 28.31 6.2225 28.8325 7.505 29.355 8.74 27.9775 10.165 26.1725 12.0175 24.2725 13.965 21.85 16.4825 21.85 19 21.85 21.5175 24.2725 24.035 26.22 26.03 27.9775 27.835 29.4025 29.26 28.88 30.5425 28.31 31.7775 25.8875 32.3 20.425 32.3ZM20.425 6.65C14.5825 6.65 13.11 7.315 12.8725 7.885 12.5875 8.55 13.965 9.975 15.295 11.3525 17.3375 13.49 19.95 16.1025 19.95 19.0475 19.95 21.9925 17.385 24.605 15.295 26.7425 13.965 28.12 12.5875 29.545 12.8725 30.21 13.11 30.685 14.5825 31.35 20.425 31.35 26.2675 31.35 27.74 30.685 27.9775 30.115 28.2625 29.45 26.885 28.025 25.555 26.6475 23.465 24.5575 20.9 21.945 20.9 19 20.9 16.055 23.465 13.4425 25.555 11.305 26.885 9.9275 28.2625 8.5025 27.9775 7.8375 27.74 7.315 26.2675 6.65 20.425 6.65Z" fill="#414748"/><path d="M30.4 5.7C30.4 6.2225 29.9725 6.65 29.45 6.65L10.925 6.65C10.4025 6.65 9.975 6.2225 9.975 5.7L9.975 5.225C9.975 4.7025 10.4025 4.275 10.925 4.275L29.45 4.275C29.9725 4.275 30.4 4.7025 30.4 5.225L30.4 5.7Z" fill="#00A1E4"/><path d="M29.45 7.125 10.925 7.125C10.1175 7.125 9.5 6.5075 9.5 5.7L9.5 5.225C9.5 4.4175 10.1175 3.8 10.925 3.8L29.45 3.8C30.2575 3.8 30.875 4.4175 30.875 5.225L30.875 5.7C30.875 6.5075 30.2575 7.125 29.45 7.125ZM10.925 4.75C10.64 4.75 10.45 4.94 10.45 5.225L10.45 5.7C10.45 5.985 10.64 6.175 10.925 6.175L29.45 6.175C29.735 6.175 29.925 5.985 29.925 5.7L29.925 5.225C29.925 4.94 29.735 4.75 29.45 4.75L10.925 4.75Z" fill="#414748"/><path d="M30.4 32.775C30.4 33.2975 29.9725 33.725 29.45 33.725L10.925 33.725C10.4025 33.725 9.975 33.2975 9.975 32.775L9.975 32.3C9.975 31.7775 10.4025 31.35 10.925 31.35L29.45 31.35C29.9725 31.35 30.4 31.7775 30.4 32.3L30.4 32.775Z" fill="#00A1E4"/><path d="M29.45 34.2 10.925 34.2C10.1175 34.2 9.5 33.5825 9.5 32.775L9.5 32.3C9.5 31.4925 10.1175 30.875 10.925 30.875L29.45 30.875C30.2575 30.875 30.875 31.4925 30.875 32.3L30.875 32.775C30.875 33.5825 30.2575 34.2 29.45 34.2ZM10.925 31.825C10.64 31.825 10.45 32.015 10.45 32.3L10.45 32.775C10.45 33.06 10.64 33.25 10.925 33.25L29.45 33.25C29.735 33.25 29.925 33.06 29.925 32.775L29.925 32.3C29.925 32.015 29.735 31.825 29.45 31.825L10.925 31.825Z" fill="#414748"/><path d="M11.4 6.65 12.35 6.65 12.35 31.35 11.4 31.35Z" fill="#414748"/><path d="M28.5 6.65 29.45 6.65 29.45 31.35 28.5 31.35Z" fill="#414748"/></g></svg>