<svg width="76" height="76" xmlns="http://www.w3.org/2000/svg" xmlns:xlink="http://www.w3.org/1999/xlink" overflow="hidden"><defs><clipPath id="clip0"><rect x="0" y="0" width="76" height="76"/></clipPath></defs><g clip-path="url(#clip0)"><path d="M42.9949 18.1836C40.9465 16.7883 39.4695 15.3113 38.5344 14.2352 37.5992 15.3113 36.1148 16.7809 34.059 18.1836 30.2219 20.7961 25.8281 22.2359 20.9668 22.4809L20.9668 39.7664C20.9668 40.3973 21.0484 41.132 21.2191 41.9484 21.2191 41.9484 23.3344 55.2633 38.5344 62.1434 38.5344 62.1434 49.5707 57.9648 54.4172 46.2605 55.5453 43.6852 56.0797 41.377 56.0797 39.7664L56.0797 22.4809C51.2184 22.2359 46.8246 20.7961 42.9949 18.1836Z" fill="#FFFFFF"/><path d="M45.9266 37.1613 49.2293 30.0809 44.5312 30.0809 41.2285 37.1613ZM31.3352 30.0809 28.0324 37.1613 32.7305 37.1613 36.0332 30.0809ZM42.6313 30.0809 37.9332 30.0809 34.6305 37.1613 39.3285 37.1613ZM22.2137 30.0809 22.2137 37.1613 26.1324 37.1613 29.4352 30.0809ZM54.8402 37.1613 54.8402 30.0809 51.1293 30.0809 47.8266 37.1613Z" fill="#E6E6E6"/><path d="M38.527 62.1434C32.5598 59.5605 28.2402 55.382 25.3754 51.1961 23.8242 50.6766 22.3324 50.1199 20.9074 49.5484 21.5086 50.6766 22.184 51.8047 22.9336 52.8883 25.5832 56.7402 30.3332 61.9875 37.9109 65.0973 38.1113 65.1789 38.3191 65.2234 38.527 65.2234 38.7348 65.2234 38.9426 65.1863 39.143 65.1047 44.6574 62.8336 48.6727 59.4418 51.4707 56.2727 50.2313 56.2133 48.9547 56.1168 47.6559 55.9906 45.1992 58.3953 42.1711 60.5699 38.527 62.1434ZM66.1512 41.0578C65.602 40.568 64.9711 40.0707 64.2586 39.5809 62.8113 38.5641 61.0523 37.5473 59.041 36.5676L59.041 21.1895C59.041 20.284 58.3137 19.5492 57.423 19.5492 52.6359 19.527 48.3461 18.243 44.6648 15.7344 41.8074 13.7898 40.2711 11.734 39.8629 11.1477 39.5586 10.7098 39.0613 10.4426 38.527 10.4426 38 10.4426 37.4953 10.7023 37.191 11.1402 36.7828 11.7266 35.2391 13.7824 32.3816 15.727 28.693 18.2355 24.3957 19.5195 19.616 19.5418 18.7254 19.5492 17.998 20.284 17.998 21.182L17.998 28.0547C17.0777 28.1141 16.2094 28.1957 15.393 28.307 13.5598 28.552 12.0012 28.923 10.732 29.4129 8.57969 30.2516 7.32539 31.4242 6.99883 32.9012 6.68711 34.3113 7.26602 35.8254 8.70586 37.4137L8.71328 37.4211C8.74297 37.4508 8.76523 37.4805 8.79492 37.5102 10.1383 38.95 12.1719 40.4195 14.8438 41.8816 15.0219 41.9781 15.2074 42.082 15.393 42.1785 16.3875 42.7055 17.4562 43.225 18.577 43.7223 18.9035 44.9543 19.3637 46.2383 19.9352 47.5371 21.2563 48.1086 22.6516 48.6578 24.1137 49.1848 23.327 47.8191 22.6887 46.4758 22.1988 45.2141 26.3031 46.7801 30.9492 48.1605 35.8402 49.2441 41.3324 50.4613 46.7059 51.2035 51.5078 51.4336 50.7582 52.5098 49.9195 53.5785 48.977 54.6176 50.2461 54.7215 51.4855 54.7957 52.6805 54.8328 53.2148 54.1574 53.6898 53.5043 54.1129 52.8883 54.4246 52.4355 54.7215 51.9754 55.0109 51.5078 56.0426 51.5004 57.0297 51.4707 57.9871 51.4039 60.4734 51.2406 62.5812 50.8918 64.266 50.3648 64.6371 50.2461 64.9859 50.1273 65.3125 49.9937 65.9582 49.734 66.5223 49.4371 66.9973 49.118 66.7523 48.7023 66.4406 48.3016 66.0992 47.923 65.6094 48.2496 64.9934 48.5391 64.266 48.7914 62.6555 49.3555 60.4883 49.7488 57.8906 49.9195 57.2449 49.9641 56.577 49.9937 55.8867 50.0086 57.8758 46.3867 59.0484 42.6535 59.0484 39.759L59.0484 38.2227C61.1266 39.2766 62.893 40.3602 64.266 41.4215 64.5926 41.6738 64.8895 41.9188 65.1715 42.1711 66.3812 43.2473 67.7543 44.8281 67.4426 46.2531 67.3906 46.4758 67.3016 46.6836 67.1754 46.8914 67.5539 47.2996 67.873 47.7078 68.1254 48.1086 68.5113 47.641 68.7637 47.1289 68.8898 46.5723 69.2609 44.8652 68.3406 43.0098 66.1512 41.0578ZM15.5563 40.568C15.5043 40.5383 15.4449 40.5086 15.393 40.4789 12.877 39.091 10.9695 37.6809 9.78945 36.3746 9.78203 36.3746 9.78203 36.382 9.77461 36.382 9.30703 35.907 9.00273 35.3875 8.89141 35.1871 8.47578 34.4672 8.3125 33.8066 8.44609 33.2129 8.80234 31.5875 11.3406 30.3703 15.393 29.7988 16.202 29.6875 17.0703 29.5984 17.998 29.5391L17.998 39.7664C17.998 40.4344 18.0648 41.1543 18.1836 41.9039 17.2633 41.466 16.3801 41.0207 15.5563 40.568ZM56.0797 39.7664C56.0797 42.1191 54.9293 45.9934 52.4578 49.9863 47.5297 49.8156 41.9188 49.066 36.1668 47.7895 30.875 46.6168 25.8801 45.1027 21.5754 43.3734 21.1672 41.9781 20.9668 40.7387 20.9668 39.7664L20.9668 22.4809C25.8281 22.2359 30.2219 20.7961 34.059 18.1836 36.1148 16.7883 37.5918 15.3113 38.5344 14.2352 39.4695 15.3113 40.9465 16.7809 42.9949 18.1836 46.8246 20.7961 51.2184 22.2359 56.0797 22.4809L56.0797 39.7664Z" fill="#00A1E4"/><path d="M17.9758 32.8937C14.9996 33.0793 12.5578 33.5395 10.732 34.252 10.0195 34.5266 9.40352 34.8457 8.89141 35.1945 9.11406 35.5805 9.41836 35.9738 9.78945 36.3895 11.3629 35.3504 14.2055 34.6453 17.9758 34.393L17.9758 32.8937Z" fill="#06F3FF"/><path d="M8.88398 35.1871C8.99531 35.3875 9.30703 35.907 9.76719 36.382 9.77461 36.382 9.77461 36.3746 9.78203 36.3746 9.41836 35.9664 9.11406 35.573 8.88398 35.1871 8.89141 35.1871 8.89141 35.1871 8.88398 35.1871ZM68.118 48.1086C67.8582 47.7078 67.5391 47.2996 67.168 46.8914 66.8637 46.5648 66.5297 46.2309 66.1512 45.8969 64.459 44.3902 61.9875 42.8391 58.952 41.3621 58.9223 41.5625 58.7887 42.4531 58.6996 42.8984 61.4309 44.2566 63.6426 45.6594 65.1641 47.0102 65.4758 47.2848 65.7949 47.5965 66.0918 47.923 66.4332 48.2941 66.7449 48.7023 66.9898 49.118 67.3684 49.7637 67.5762 50.4465 67.4352 51.0922 67.0047 53.0293 63.4348 54.4023 57.8906 54.766 56.2727 54.8699 54.5211 54.8922 52.6805 54.8328 51.4855 54.7957 50.2461 54.7215 48.977 54.6176 44.9543 54.2836 40.6051 53.6156 36.1668 52.6285 31.8844 51.6785 27.8023 50.5059 24.1211 49.1773 22.659 48.6504 21.2637 48.1012 19.9426 47.5297 18.3691 46.8469 16.8996 46.1344 15.5637 45.407 10.6875 42.7426 8.03047 39.9891 8.45352 38.052 8.50547 37.8293 8.59453 37.6141 8.7207 37.4137L8.71328 37.4062C8.64648 37.3395 8.22344 36.909 7.76328 36.1965 7.37734 36.6641 7.125 37.1762 6.99883 37.7328 6.67969 39.1727 7.28828 40.7238 8.80234 42.3418 10.1457 43.7816 12.1793 45.2512 14.8512 46.7133 16.6621 47.7004 18.7031 48.6578 20.9223 49.5484 22.3398 50.1199 23.8316 50.6691 25.3902 51.1961 28.6559 52.2945 32.1813 53.2742 35.8477 54.0832 39.9148 54.9813 43.9152 55.627 47.6633 55.9906 48.9695 56.1168 50.2461 56.2133 51.4781 56.2727 52.5691 56.3246 53.623 56.3543 54.6473 56.3543 55.8051 56.3543 56.9258 56.3172 57.9871 56.2504 61.0227 56.05 63.4867 55.575 65.3125 54.8402 67.3684 54.009 68.5707 52.8586 68.8898 51.4188 69.1199 50.3648 68.8602 49.259 68.118 48.1086Z" fill="#06F3FF"/><path d="M8.71328 37.4137C8.71328 37.4137 8.70586 37.4137 8.70586 37.4062 8.70586 37.4062 8.71328 37.4062 8.71328 37.4137Z" fill="#06F3FF"/></g></svg>