<svg width="76" height="76" xmlns="http://www.w3.org/2000/svg" xmlns:xlink="http://www.w3.org/1999/xlink" overflow="hidden"><defs><clipPath id="clip0"><rect x="0" y="0" width="76" height="76"/></clipPath></defs><g clip-path="url(#clip0)"><path d="M34.4969 30.4074C32.0551 27.0898 28.1215 24.9375 23.6906 24.9375 16.2836 24.9375 10.2793 30.9418 10.2793 38.3488 10.2793 45.7559 16.2836 51.7602 23.6906 51.7602L45.7559 51.7602C56.8367 51.7602 65.8172 42.7797 65.8172 31.6988 65.8172 20.618 56.8367 11.6375 45.7559 11.6375 36.9461 11.6375 29.4574 17.3152 26.7633 25.2195" fill="#FFFFFF"/><path d="M61.1191 56.8887C61.1191 56.6512 61.1562 56.4211 61.2305 56.2059L46.832 56.2059 46.832 30.9789C46.832 30.5707 46.498 30.2367 46.0898 30.2367 45.6816 30.2367 45.3477 30.5707 45.3477 30.9789L45.3477 57.6902 61.275 57.6902C61.1785 57.4453 61.1191 57.1707 61.1191 56.8887Z" fill="#06F3FF"/><path d="M17.0852 58.759C16.8254 58.1133 16.1945 57.6531 15.4523 57.6531 14.4801 57.6531 13.6934 58.4398 13.6934 59.4121 13.6934 60.3844 14.4801 61.1711 15.4523 61.1711 16.1574 61.1711 16.766 60.7555 17.048 60.1543 17.152 59.9316 17.2113 59.6793 17.2113 59.4121 17.2113 59.182 17.1668 58.9594 17.0852 58.759Z" fill="#E6E6E6"/><path d="M63.2492 54.766C62.3141 54.766 61.5199 55.3672 61.2379 56.2059 61.1637 56.4211 61.1266 56.6512 61.1266 56.8887 61.1266 57.1707 61.1785 57.4379 61.2824 57.6902 61.6016 58.4695 62.3586 59.0187 63.2566 59.0187 64.4293 59.0187 65.3867 58.0688 65.3867 56.8887 65.3793 55.716 64.4219 54.766 63.2492 54.766ZM51.9531 19.1262C52.109 18.7477 51.9309 18.3098 51.5523 18.1539 45.7633 15.7566 41.5105 16.9961 38.9648 18.4582 36.2039 20.0391 34.8309 22.184 34.7789 22.2805 34.5637 22.6293 34.6676 23.082 35.009 23.3047 35.1352 23.3789 35.2687 23.416 35.4023 23.416 35.6473 23.416 35.8922 23.2973 36.0332 23.0746 36.048 23.0523 37.3023 21.1152 39.759 19.7199 43.032 17.8719 46.8023 17.8051 50.9809 19.5344 51.3594 19.6828 51.7973 19.5047 51.9531 19.1262Z" fill="#00A1E4"/><path d="M63.2492 60.8445C62.3289 60.8445 61.5496 61.4234 61.2527 62.2398L39.6699 62.2398 39.6699 53.2371 45.3477 53.2371 45.3477 50.2684 39.6699 50.2684 39.6699 39.9223C39.6699 39.5141 39.3359 39.1801 38.9277 39.1801 38.5195 39.1801 38.1855 39.5141 38.1855 39.9223L38.1855 50.2684 33.2203 50.2684 33.2203 39.9223C33.2203 39.5141 32.8863 39.1801 32.4781 39.1801 32.0699 39.1801 31.7359 39.5141 31.7359 39.9223L31.7359 50.2684 23.6906 50.2684C17.1148 50.2684 11.7637 44.9172 11.7637 38.3414 11.7637 31.7656 17.1148 26.4145 23.6906 26.4145 27.4684 26.4145 31.0605 28.2328 33.302 31.2832 33.7844 31.9438 34.7195 32.0848 35.3801 31.6023 36.0406 31.1199 36.1816 30.1848 35.6992 29.5242 34.341 27.6836 32.5523 26.1547 30.5262 25.1082 29.9398 24.8039 29.3313 24.5367 28.7078 24.3141 31.6246 17.5602 38.3043 13.1219 45.7633 13.1219 56.0055 13.1219 64.3402 21.4566 64.3402 31.6988 64.3402 41.5773 56.5918 49.6746 46.8469 50.2387L46.8469 53.2148C52.198 52.9551 57.1855 50.7434 61.0004 46.9285 65.0676 42.8613 67.309 37.4508 67.309 31.6988 67.309 25.9469 65.0676 20.5363 61.0004 16.4691 56.9332 12.402 51.5227 10.1605 45.7707 10.1605 36.9535 10.1605 29.0789 15.5117 25.7984 23.609 25.1082 23.5125 24.4031 23.4605 23.7055 23.4605 15.4895 23.4605 8.80977 30.1402 8.80977 38.3563 8.80977 46.5723 15.4895 53.252 23.7055 53.252L31.7508 53.252 31.7508 58.7367 18.6215 58.7367C18.3023 57.282 17.0035 56.1836 15.4523 56.1836 13.6637 56.1836 12.209 57.6383 12.209 59.427 12.209 61.2156 13.6637 62.6703 15.4523 62.6703 16.9664 62.6703 18.243 61.6238 18.5992 60.2211L33.2203 60.2211 33.2203 53.252 38.1855 53.252 38.1855 63.7391 61.2602 63.7391C61.5645 64.5406 62.3438 65.1121 63.2492 65.1121 64.4219 65.1121 65.3793 64.1621 65.3793 62.982 65.3793 61.7945 64.4219 60.8445 63.2492 60.8445ZM17.048 60.1543C16.766 60.7555 16.1574 61.1711 15.4523 61.1711 14.4801 61.1711 13.6934 60.3844 13.6934 59.4121 13.6934 58.4398 14.4801 57.6531 15.4523 57.6531 16.1871 57.6531 16.8254 58.1133 17.0852 58.759 17.1668 58.9594 17.2113 59.182 17.2113 59.4121 17.2113 59.6793 17.152 59.9316 17.048 60.1543Z" fill="#00A1E4"/></g></svg>