<svg width="38" height="38" xmlns="http://www.w3.org/2000/svg" xmlns:xlink="http://www.w3.org/1999/xlink" overflow="hidden"><defs><clipPath id="clip0"><rect x="0" y="0" width="38" height="38"/></clipPath></defs><g clip-path="url(#clip0)"><path d="M26.2365 17.1215 28.3263 17.1215 28.3263 18.1854 26.2365 18.1854ZM26.2365 19.4773 28.3263 19.4773 28.3263 20.5412 26.2365 20.5412ZM26.2365 21.795 28.3263 21.795 28.3263 22.8209 26.2365 22.8209ZM31.4419 26.5065 33.4937 26.5065 33.4937 27.5324 31.4419 27.5324ZM31.4419 24.1507 33.4937 24.1507 33.4937 25.2146 31.4419 25.2146ZM16.3576 9.86434 17.4215 9.86434 17.4215 8.57249 19.2073 8.57249 19.2073 14.8038 18.1814 14.8038 18.1814 15.8297 21.297 15.8297 21.297 14.8038 20.2711 14.8038 20.2711 8.57249 22.1329 8.57249 22.1329 9.86434 23.1588 9.86434 23.1588 7.5086 16.3576 7.5086Z" fill="#00A1E4"/><path d="M23.1237 21.5034C23.0199 21.2541 22.844 20.9862 22.5947 20.8823 22.4727 20.8277 22.3591 20.7311 22.2163 20.7311L7.15662 20.7311C7.01382 20.7311 6.87622 20.8277 6.75417 20.8823 6.5049 20.9861 6.21935 21.2201 6.11548 21.4693 6.06096 21.5914 5.94674 21.763 5.94674 21.9058L5.94674 29.4356C5.94674 29.5784 6.06093 29.716 6.11548 29.8381 6.21935 30.0873 6.46208 30.2412 6.71138 30.345 6.83343 30.3996 7.01386 30.382 7.15665 30.382L22.2163 30.382C22.3591 30.382 22.4967 30.3996 22.6187 30.345 22.868 30.2412 23.0199 30.0643 23.1237 29.815 23.1783 29.693 23.1588 29.5784 23.1588 29.4356L23.1588 21.9058C23.1588 21.763 23.1783 21.6254 23.1237 21.5034ZM14.6864 26.969C13.9698 26.969 13.3882 26.3874 13.3882 25.6707 13.3882 24.9541 13.9698 24.3725 14.6864 24.3725 15.4031 24.3725 15.9847 24.9541 15.9847 25.6707 15.9847 26.3874 15.4031 26.969 14.6864 26.969ZM33.1215 17.1215 31.9738 17.1215 31.9738 22.8209 33.1215 22.8209C33.4071 22.8209 33.4937 22.7107 33.4937 22.4251L33.4937 17.7515C33.4937 17.4659 33.4071 17.1215 33.1215 17.1215ZM27.9286 24.1507 26.7684 24.1507 26.7684 27.5324 27.9286 27.5324C28.2141 27.5324 28.3263 27.3844 28.3263 27.0988L28.3263 24.7619C28.3263 24.4764 28.2141 24.1507 27.9286 24.1507Z" fill="#E0E0E0"/><path d="M33.3811 12.714 26.7684 12.714 26.7684 6.58658C26.7684 5.1559 25.7241 3.89904 24.2935 3.89904L5.07942 3.89904C3.64877 3.89904 2.33716 5.1559 2.33716 6.58658L2.33716 31.5128C2.33716 32.9435 3.64877 33.9916 5.07942 33.9916L28.9671 33.9916C30.5094 33.9916 31.7921 32.9657 32.0388 31.4459L33.3811 31.4459C34.669 31.4459 35.5834 30.4639 35.5834 29.176L35.5834 15.1549C35.5834 13.8671 34.669 12.714 33.3811 12.714ZM3.40104 6.58658C3.40104 5.72713 4.22 4.96293 5.07942 4.96293L7.58055 4.96293 7.58055 7.62516C7.58055 8.48461 6.97745 9.06645 6.11804 9.06645L3.40104 9.06645 3.40104 6.58658ZM5.07942 32.9657C4.22 32.9657 3.40104 32.3722 3.40104 31.5128L3.40104 10.1303 6.11804 10.1303C7.54868 10.1303 8.56844 9.0558 8.56844 7.62512L8.56844 4.9629 24.2935 4.9629C25.1529 4.9629 25.7425 5.72709 25.7425 6.58654L25.7425 30.9935C25.7425 31.7906 26.1525 32.4718 26.6458 32.9657L5.07942 32.9657ZM30.91 15.1549 30.91 30.9935C30.91 32.1385 29.9842 33.0707 28.8392 33.0707 27.6941 33.0707 26.7684 32.1385 26.7684 30.9935L26.7684 13.7399 31.439 13.7399C31.1897 14.3099 30.91 14.6746 30.91 15.1549ZM34.5196 29.176C34.5196 29.8926 34.0978 30.382 33.3811 30.382L31.9738 30.382 31.9738 15.1549C31.9738 14.4383 32.53 13.8567 33.2467 13.8567 33.9633 13.8567 34.5196 14.4383 34.5196 15.1549L34.5196 29.176Z" fill="#414748"/><path d="M10.6582 7.81256 15.3317 7.81256 15.3317 8.80045 10.6582 8.80045ZM10.6582 10.1303 15.3317 10.1303 15.3317 11.1562 10.6582 11.1562ZM5.94674 12.486 15.3317 12.486 15.3317 13.4739 5.94674 13.4739ZM5.94674 14.8038 15.3317 14.8038 15.3317 15.8297 5.94674 15.8297ZM5.94674 17.1215 23.1588 17.1215 23.1588 18.1854 5.94674 18.1854ZM7.01063 27.7603 5.94674 27.7603 5.94674 29.4356C5.94674 30.0084 6.58395 30.382 7.15662 30.382L8.56844 30.382 8.56844 29.3561 7.01063 29.3561 7.01063 27.7603ZM22.1329 29.3561 20.4991 29.3561 20.4991 30.382 22.2163 30.382C22.7891 30.382 23.1588 30.0084 23.1588 29.4356L23.1588 27.7603 22.1329 27.7603 22.1329 29.3561ZM22.2163 20.7311 20.4991 20.7311 20.4991 21.795 22.1329 21.795 22.1329 23.3908 23.1588 23.3908 23.1588 21.9058C23.1588 21.333 22.7891 20.7311 22.2163 20.7311ZM5.94674 21.9058 5.94674 23.3909 7.01063 23.3909 7.01063 21.795 8.56844 21.795 8.56844 20.7312 7.15662 20.7312C6.58395 20.7311 5.94674 21.333 5.94674 21.9058ZM14.6864 23.3339C13.3986 23.3339 12.3496 24.3829 12.3496 25.6707 12.3496 26.9586 13.3986 28.0076 14.6864 28.0076 15.9743 28.0076 17.0233 26.9586 17.0233 25.6707 17.0233 24.3829 15.9743 23.3339 14.6864 23.3339ZM14.6864 26.969C13.9698 26.969 13.3882 26.3874 13.3882 25.6707 13.3882 24.9541 13.9698 24.3725 14.6864 24.3725 15.4031 24.3725 15.9847 24.9541 15.9847 25.6707 15.9847 26.3874 15.4031 26.969 14.6864 26.969ZM6.5167 7.36551 6.5167 5.98882 5.33907 5.98882C4.90953 5.98882 4.42693 6.41669 4.42693 6.84623L4.42693 8.0406 5.85838 8.0406C6.28792 8.04056 6.5167 7.79501 6.5167 7.36551Z" fill="#414748"/></g></svg>