<svg width="38" height="38" xmlns="http://www.w3.org/2000/svg" xmlns:xlink="http://www.w3.org/1999/xlink" overflow="hidden"><defs><clipPath id="clip0"><rect x="0" y="0" width="38" height="38"/></clipPath></defs><g clip-path="url(#clip0)"><path d="M15.7985 3.04065C16.442 2.97632 17.0855 2.91192 17.729 2.91192 18.3725 2.91192 19.0161 2.97624 19.6596 3.04065 28.3472 4.00593 35.1041 11.3421 35.1041 20.287 35.1041 29.8755 27.3175 37.6621 17.729 37.6621 8.14051 37.6621 0.353912 29.8755 0.353912 20.287 0.353912 16.4902 1.57658 12.9509 3.63588 10.055 4.72989 8.57489 6.01689 7.2879 7.49702 6.19388 9.8781 4.52077 12.7096 3.36243 15.7985 3.04065M15.7985 20.287C15.7985 21.381 16.635 22.2176 17.729 22.2176 18.823 22.2176 19.6596 21.381 19.6596 20.287 19.6596 19.193 18.823 18.3565 17.729 18.3565 16.635 18.3565 15.7985 19.1931 15.7985 20.287" stroke="#000000" stroke-width="0.0760003" fill="#ECF4F7"/><path d="M4.21505 2.91192 7.49702 6.19388C6.01689 7.2879 4.72989 8.57489 3.63588 10.055L0.353912 6.77305 4.21505 2.91192Z" stroke="#000000" stroke-width="0.0760003" fill="#414748"/><path d="M17.729 18.3565C18.823 18.3565 19.6596 19.193 19.6596 20.287 19.6596 21.381 18.823 22.2176 17.729 22.2176 16.635 22.2176 15.7985 21.381 15.7985 20.287 15.7985 19.193 16.6351 18.3565 17.729 18.3565" stroke="#000000" stroke-width="0.0760003" fill="#00A1E4"/><path d="M19.6596 0.337849 19.6596 3.04065C19.0161 2.97632 18.3725 2.91192 17.729 2.91192 17.0855 2.91192 16.442 2.97624 15.7985 3.04065L15.7985 0.337849 19.6596 0.337849Z" stroke="#000000" stroke-width="0.0760003" fill="#00A1E4"/><path d="M17.729 37.9839C7.94746 37.9839 0.0321259 30.0686 0.0321259 20.287 0.0321259 10.5055 7.94753 2.5902 17.729 2.5902 27.5105 2.5902 35.4259 10.5055 35.4259 20.287 35.4259 30.0685 27.5106 37.9839 17.729 37.9839ZM17.729 3.2337C8.33365 3.2337 0.675699 10.8916 0.675699 20.287 0.675699 29.6824 8.33365 37.3404 17.729 37.3404 27.1244 37.3404 34.7824 29.6825 34.7824 20.287 34.7824 10.8916 27.1245 3.2337 17.729 3.2337ZM17.729 35.4099C17.536 35.4099 17.4072 35.2811 17.4072 35.0881L17.4072 32.514C17.4072 32.321 17.536 32.1922 17.729 32.1922 17.9221 32.1922 18.0508 32.321 18.0508 32.514L18.0508 35.0881C18.0508 35.2811 17.9221 35.4099 17.729 35.4099ZM21.5258 34.895C21.3971 34.895 21.2685 34.8307 21.2041 34.6376L21.011 33.9941 21.011 33.9298C21.011 33.8011 21.0753 33.6724 21.2684 33.608 21.4614 33.5437 21.5902 33.6724 21.6545 33.8654L21.8475 34.5089 21.8475 34.5732C21.8475 34.702 21.7832 34.8306 21.5902 34.895 21.5902 34.895 21.5902 34.895 21.5258 34.895ZM13.8679 34.895 13.8036 34.895C13.6748 34.8307 13.5462 34.702 13.5462 34.5732L13.5462 34.5089 13.7392 33.8654C13.8036 33.6724 13.9323 33.608 14.1254 33.608 14.2541 33.6724 14.3827 33.8011 14.3827 33.9298L14.3827 33.9941 14.1897 34.6376C14.1897 34.8307 14.0609 34.895 13.8679 34.895ZM25.1296 33.4149C25.0009 33.4149 24.9365 33.3506 24.8722 33.2862L24.5504 32.707C24.5504 32.6427 24.4861 32.5783 24.4861 32.5139 24.4861 32.3852 24.5504 32.3209 24.6148 32.2566 24.7436 32.1922 24.9366 32.1922 25.0653 32.3853L25.3871 32.9645C25.3871 33.0288 25.4514 33.0932 25.4514 33.1575 25.4514 33.2862 25.3871 33.3506 25.3226 33.4149 25.2582 33.4149 25.1939 33.4149 25.1296 33.4149ZM10.3285 33.4149C10.2642 33.4149 10.1998 33.4149 10.1998 33.3506 10.0711 33.2862 10.0068 33.1575 10.0068 33.0932 10.0068 33.0289 10.0068 32.9645 10.0711 32.9001L10.3929 32.321C10.4572 32.1922 10.6503 32.1279 10.8433 32.1922 10.972 32.2566 11.0364 32.3853 11.0364 32.4496 11.0364 32.5139 11.0364 32.5783 10.972 32.6427L10.6503 33.2218C10.5216 33.3506 10.4573 33.4149 10.3285 33.4149ZM7.23963 31.0982C7.1753 31.0982 7.04658 31.0982 6.98225 31.0339 6.91792 30.9696 6.91792 30.9052 6.91792 30.7765 6.91792 30.6479 6.91792 30.5834 6.98225 30.5191L15.8629 21.6385C15.6055 21.2524 15.4124 20.802 15.4124 20.2871 15.4124 19.0644 16.442 18.0348 17.6648 18.0348 18.8875 18.0348 19.9171 19.0644 19.9171 20.2871 19.9171 21.5099 18.8875 22.5395 17.6648 22.5395 17.1499 22.5395 16.6995 22.3464 16.3134 22.089L7.43269 30.9696C7.43269 31.0339 7.36836 31.0982 7.23963 31.0982ZM17.729 18.6782C16.8281 18.6782 16.1202 19.3862 16.1202 20.287 16.1202 21.188 16.8281 21.8958 17.729 21.8958 18.63 21.8958 19.3378 21.1879 19.3378 20.287 19.3379 19.3862 18.63 18.6782 17.729 18.6782ZM28.2185 31.0982C28.1542 31.0982 28.0254 31.0982 27.9611 31.0339L27.5107 30.5834C27.4464 30.5191 27.4464 30.4547 27.4464 30.3261 27.4464 30.1974 27.4464 30.133 27.5107 30.0687 27.6394 29.94 27.8325 29.94 27.9611 30.0687L28.4116 30.5191C28.4759 30.5834 28.4759 30.6479 28.4759 30.7765 28.4759 30.9052 28.4759 30.9696 28.4116 31.0339 28.3472 31.0982 28.2828 31.0982 28.2185 31.0982ZM30.5352 28.0093C30.4709 28.0093 30.4065 28.0093 30.3421 27.945L29.763 27.6232C29.6342 27.5589 29.5699 27.4301 29.5699 27.3658 29.5699 27.3015 29.5699 27.2371 29.6342 27.1728 29.6986 27.044 29.8916 26.9797 30.0847 27.044L30.6638 27.3658C30.7926 27.4301 30.8569 27.5589 30.8569 27.6232 30.8569 27.6875 30.8569 27.7519 30.7926 27.8162 30.7926 27.945 30.6638 28.0093 30.5352 28.0093ZM32.0152 24.47 31.9509 24.47 31.3074 24.2769C31.1787 24.2126 31.05 24.0838 31.05 23.9551L31.05 23.8908C31.1144 23.6977 31.3074 23.6334 31.4361 23.6334L32.0796 23.8265C32.2084 23.8908 32.337 24.0195 32.337 24.1482L32.337 24.2126C32.2727 24.3412 32.144 24.47 32.0152 24.47ZM32.5301 20.6088 29.956 20.6088C29.763 20.6088 29.6342 20.4801 29.6342 20.287 29.6342 20.094 29.763 19.9652 29.956 19.9652L32.5301 19.9652C32.7231 19.9652 32.8519 20.094 32.8519 20.287 32.8519 20.4801 32.7231 20.6088 32.5301 20.6088ZM5.50212 20.6088 2.92805 20.6088C2.735 20.6088 2.60627 20.4801 2.60627 20.287 2.60627 20.094 2.735 19.9652 2.92805 19.9652L5.50212 19.9652C5.69518 19.9652 5.82391 20.094 5.82391 20.287 5.82391 20.4801 5.69518 20.6088 5.50212 20.6088ZM31.3717 16.9407C31.243 16.9407 31.1144 16.8764 31.05 16.6834L31.05 16.619C31.05 16.4903 31.1143 16.3616 31.3073 16.2972L31.9508 16.1042C32.1439 16.0399 32.2726 16.1685 32.3369 16.3616L32.3369 16.4259C32.3369 16.5546 32.2726 16.6833 32.0796 16.7477L31.4361 16.9407C31.4361 16.9407 31.4361 16.9407 31.3717 16.9407ZM30.0203 13.53C29.8916 13.53 29.8273 13.4657 29.763 13.337 29.763 13.2727 29.6986 13.2083 29.6986 13.2083 29.6986 13.0795 29.763 13.0152 29.8917 12.9509L30.4709 12.6291C30.5996 12.5648 30.7926 12.5648 30.9213 12.7578 30.9213 12.8221 30.9856 12.8865 30.9856 12.8865 30.9856 13.0153 30.9213 13.0796 30.7926 13.1439L30.2134 13.4657C30.0847 13.53 30.0203 13.53 30.0203 13.53ZM27.768 10.5699C27.7037 10.5699 27.5749 10.5699 27.5106 10.5055 27.4463 10.4412 27.4463 10.3768 27.4463 10.2482 27.4463 10.1195 27.4463 10.0551 27.5106 9.99077L27.961 9.54033C28.0898 9.4116 28.2828 9.4116 28.4115 9.54033 28.4758 9.60465 28.4758 9.66906 28.4758 9.79771 28.4758 9.92636 28.4758 9.99077 28.4115 10.0551L27.961 10.5055C27.8967 10.5699 27.8324 10.5699 27.768 10.5699ZM1.64098 8.38191C1.57666 8.38191 1.44793 8.38191 1.3836 8.31758L0.0965284 7.03051C-0.0322013 6.90178-0.0322013 6.70873 0.0965284 6.58007L3.95767 2.71893C4.0864 2.5902 4.27945 2.5902 4.40811 2.71893L5.69518 4.00593C5.82391 4.13466 5.82391 4.32772 5.69518 4.45637 5.56645 4.5851 5.37339 4.5851 5.24474 4.45637L4.21505 3.42676 0.804429 6.83738 1.83404 7.86707C1.96277 7.9958 1.96277 8.18885 1.83404 8.31751 1.83404 8.38191 1.70531 8.38191 1.64098 8.38191ZM17.729 8.38191C17.536 8.38191 17.4072 8.25318 17.4072 8.06012L17.4072 5.48606C17.4072 5.293 17.536 5.16427 17.729 5.16427 17.9221 5.16427 18.0508 5.293 18.0508 5.48606L18.0508 8.06012C18.0508 8.25318 17.9221 8.38191 17.729 8.38191ZM24.8078 8.31751C24.7435 8.31751 24.6791 8.31751 24.6147 8.25318 24.486 8.18885 24.486 8.06012 24.486 7.9958 24.486 7.93147 24.486 7.86707 24.5503 7.80274L24.8721 7.22357C24.9365 7.09484 25.1295 7.03051 25.3226 7.09484 25.4513 7.15917 25.4513 7.2879 25.4513 7.35222 25.4513 7.41655 25.4513 7.48095 25.387 7.54528L25.0652 8.12445C25.0009 8.31751 24.9365 8.31751 24.8078 8.31751ZM34.4606 7.09484C34.2676 7.09484 34.1389 6.96611 34.1389 6.77305 34.1389 6.58 34.2676 6.45127 34.4606 6.45127 36.0694 6.45127 37.3565 5.1642 37.3565 3.55541 37.3565 1.94663 36.0694 0.659561 34.4606 0.659561 32.8519 0.659561 31.5648 1.94663 31.5648 3.55541 31.5648 3.74847 31.4361 3.8772 31.243 3.8772 31.05 3.8772 30.9212 3.74847 30.9212 3.55541 30.9212 1.62484 32.53 0.0160629 34.4606 0.0160629 36.3911 0.0160629 37.9999 1.62484 37.9999 3.55541 37.9999 5.48598 36.3912 7.09484 34.4606 7.09484ZM21.3971 6.96611 21.3328 6.96611C21.2041 6.90178 21.0754 6.77305 21.0754 6.64432L21.0754 6.58 21.2685 5.9365C21.3328 5.74344 21.4615 5.67911 21.6546 5.67911 21.7833 5.74344 21.912 5.87217 21.912 6.0009L21.912 6.06523 21.7189 6.70873C21.6546 6.83746 21.5258 6.96611 21.3971 6.96611ZM31.6291 6.70873C31.5648 6.70873 31.4361 6.70873 31.3717 6.6444 31.3074 6.58007 31.3074 6.51567 31.3074 6.38701 31.3074 6.25836 31.3074 6.19396 31.3717 6.12963L34.2033 3.29811C34.332 3.16938 34.5251 3.16938 34.6537 3.29811 34.718 3.36243 34.718 3.42683 34.718 3.55549 34.718 3.68422 34.718 3.74855 34.6537 3.81287L31.8222 6.6444C31.7579 6.70873 31.6935 6.70873 31.6291 6.70873ZM19.6596 0.659636 15.7985 0.659636C15.6054 0.659636 15.4767 0.530906 15.4767 0.337849 15.4767 0.144793 15.6054 0.0160629 15.7985 0.0160629L19.6596 0.0160629C19.8527 0.0160629 19.9814 0.144793 19.9814 0.337849 19.9814 0.530906 19.8527 0.659636 19.6596 0.659636Z" stroke="#000000" stroke-width="0.0760003" fill="#414748"/></g></svg>