<svg width="76" height="76" xmlns="http://www.w3.org/2000/svg" xmlns:xlink="http://www.w3.org/1999/xlink" overflow="hidden"><defs><clipPath id="clip0"><rect x="0" y="0" width="76" height="76"/></clipPath></defs><g clip-path="url(#clip0)"><path d="M22.2063 37.7328C22.2063 46.3735 29.2109 53.3781 37.8516 53.3781 46.4923 53.3781 53.4969 46.3735 53.4969 37.7328 53.4969 29.0921 46.4923 22.0875 37.8516 22.0875 29.2109 22.0875 22.2063 29.0921 22.2063 37.7328Z" fill="#E6E6E6"/><path d="M37.8516 26.9711C31.9141 26.9711 27.0898 31.8027 27.0898 37.7328 27.0898 43.6629 31.9215 48.4945 37.8516 48.4945 43.7816 48.4945 48.6133 43.6629 48.6133 37.7328 48.6133 31.8027 43.7891 26.9711 37.8516 26.9711Z" fill="#FFFFFF"/><path d="M37.8516 25.4867C31.0977 25.4867 25.6055 30.9789 25.6055 37.7328 25.6055 44.4867 31.0977 49.9789 37.8516 49.9789 44.6055 49.9789 50.0977 44.4867 50.0977 37.7328 50.0977 30.9789 44.6055 25.4867 37.8516 25.4867ZM37.8516 48.502C31.9141 48.502 27.0898 43.6703 27.0898 37.7402 27.0898 31.8102 31.9215 26.9785 37.8516 26.9785 43.7816 26.9785 48.6133 31.8102 48.6133 37.7402 48.6133 43.6703 43.7891 48.502 37.8516 48.502Z" fill="#06F3FF"/><path d="M59.0336 36.2484 56.4062 36.2484C56.0574 31.8324 54.1797 27.7355 51.0105 24.5664 47.8414 21.3973 43.7297 19.5121 39.3062 19.1707L39.3062 16.4543C39.3062 15.6379 38.6383 14.9699 37.8219 14.9699 37.0055 14.9699 36.3375 15.6379 36.3375 16.4543L36.3375 19.1781C31.9363 19.527 27.8395 21.4121 24.6852 24.5664 21.5234 27.7281 19.6383 31.8324 19.2895 36.2484L16.7734 36.2484C15.957 36.2484 15.2891 36.9164 15.2891 37.7328 15.2891 38.5492 15.957 39.2172 16.7734 39.2172L19.2969 39.2172C19.6457 43.6332 21.5234 47.7301 24.6926 50.8992 27.8469 54.0535 31.9438 55.9387 36.3449 56.2875L36.3449 58.9223C36.3449 59.7387 37.0129 60.4066 37.8293 60.4066 38.6457 60.4066 39.3137 59.7387 39.3137 58.9223L39.3137 56.2949C43.7371 55.9535 47.8488 54.0684 51.018 50.8992 54.1797 47.7375 56.0648 43.6332 56.4137 39.2172L59.041 39.2172C59.8574 39.2172 60.5254 38.5492 60.5254 37.7328 60.5254 36.9164 59.8574 36.2484 59.0336 36.2484ZM39.3137 53.3113 39.3137 49.4594C39.3137 48.643 38.6457 47.975 37.8293 47.975 37.0129 47.975 36.3449 48.643 36.3449 49.4594L36.3449 53.3039C28.9156 52.5914 22.9855 46.6539 22.2805 39.2172L26.1844 39.2172C27.0008 39.2172 27.6687 38.5492 27.6687 37.7328 27.6687 36.9164 27.0008 36.2484 26.1844 36.2484L22.2805 36.2484C22.9855 28.8117 28.9156 22.8742 36.3449 22.1617L36.3449 25.8949C36.3449 26.7113 37.0129 27.3793 37.8293 27.3793 38.6457 27.3793 39.3137 26.7113 39.3137 25.8949L39.3137 22.1617C46.7727 22.852 52.725 28.8043 53.4301 36.2559L49.7563 36.2559C48.9398 36.2559 48.2719 36.9238 48.2719 37.7402 48.2719 38.5566 48.9398 39.2246 49.7563 39.2246L53.4301 39.2246C52.725 46.6762 46.7652 52.6211 39.3137 53.3113Z" fill="#00A1E4"/><path d="M65.3422 11.7266C65.3422 10.9102 64.6742 10.2422 63.8578 10.2422L37.8516 10.2422C34.1406 10.2422 30.541 10.9695 27.1492 12.402 23.8762 13.7898 20.9371 15.7715 18.4137 18.2949 15.8902 20.8184 13.9086 23.7574 12.5207 27.0305 11.0883 30.4223 10.3609 34.0219 10.3609 37.7328 10.3609 38.5492 11.0289 39.2172 11.8453 39.2172 12.6617 39.2172 13.3297 38.5492 13.3297 37.7328 13.3297 24.2102 24.3289 13.2109 37.8516 13.2109L58.7293 13.2109 58.7293 17.2559C58.7293 17.9164 59.5234 18.243 59.991 17.7754L64.9711 12.7953C65.0898 12.6766 65.1566 12.543 65.1789 12.402 65.2828 12.2016 65.3422 11.9715 65.3422 11.7266ZM63.8578 36.2484C63.0414 36.2484 62.3734 36.9164 62.3734 37.7328 62.3734 51.2555 51.3742 62.2547 37.8516 62.2547L17.0926 62.2547 17.0926 58.1133C17.0926 57.4527 16.2984 57.1262 15.8309 57.5938L10.8508 62.5738C10.7766 62.648 10.7172 62.7371 10.6801 62.8262 10.4797 63.0785 10.3609 63.3977 10.3609 63.7465 10.3609 64.5629 11.0289 65.2309 11.8453 65.2309L37.8516 65.2309C41.5625 65.2309 45.1621 64.5035 48.5539 63.0711 51.827 61.6832 54.766 59.7016 57.2895 57.1781 59.8129 54.6547 61.7945 51.7156 63.1824 48.4426 64.6148 45.0508 65.3422 41.4512 65.3422 37.7402 65.3422 36.9164 64.6816 36.2484 63.8578 36.2484Z" fill="#00A1E4"/></g></svg>