<svg width="38" height="38" xmlns="http://www.w3.org/2000/svg" xmlns:xlink="http://www.w3.org/1999/xlink" overflow="hidden"><defs><clipPath id="clip0"><rect x="0" y="0" width="38" height="38"/></clipPath></defs><g clip-path="url(#clip0)"><path d="M27.3125 13.0625 23.3516 13.0625 26.6511 9.291C27.0774 8.80412 27.3125 8.17891 27.3125 7.53172L27.3125 7.42188C27.3125 5.94878 26.1137 4.75 24.6406 4.75 23.1675 4.75 21.9688 5.94878 21.9688 7.42188L21.9688 8.3125 23.1562 8.3125 23.1562 7.42188C23.1562 6.60309 23.8218 5.9375 24.6406 5.9375 25.4594 5.9375 26.125 6.60309 26.125 7.42188L26.125 7.53172C26.125 7.89153 25.9944 8.23828 25.7575 8.50903L21.9688 12.8393 21.9688 14.25 27.3125 14.25 27.3125 13.0625Z" fill="#414748"/><path d="M32.0625 14.25 33.25 14.25 33.25 12.4688 34.4375 12.4688 34.4375 11.2812 33.25 11.2812 33.25 4.75 31.6956 4.75 28.5 11.1411 28.5 12.4688 32.0625 12.4688 32.0625 14.25ZM29.7576 11.2812 32.0625 6.67138 32.0625 11.2812 29.7576 11.2812Z" fill="#414748"/><path d="M29.928 19.3723C34.1976 18.4425 37.4062 14.6377 37.4062 10.0938 37.4062 4.85569 33.1443 0.59375 27.9062 0.59375 23.3623 0.59375 19.5575 3.80237 18.6277 8.07203 17.5798 7.84166 16.5104 7.71875 15.4375 7.71875 7.25266 7.71875 0.59375 14.3777 0.59375 22.5625 0.59375 30.7473 7.25266 37.4062 15.4375 37.4062 23.6223 37.4062 30.2812 30.7473 30.2812 22.5625 30.2812 21.4896 30.1583 20.4202 29.928 19.3723ZM27.9062 1.78125C32.49 1.78125 36.2188 5.51 36.2188 10.0938 36.2188 14.6775 32.49 18.4062 27.9062 18.4062 23.3225 18.4062 19.5938 14.6775 19.5938 10.0938 19.5938 5.51 23.3225 1.78125 27.9062 1.78125ZM26.6956 21.9688 25.5312 21.9688 25.5312 23.1562 26.6885 23.1562C26.5489 25.8186 25.4867 28.2346 23.8106 30.096L22.9942 29.2796 22.1546 30.1192 22.971 30.9356C21.1096 32.6123 18.6936 33.6739 16.0312 33.8135L16.0312 32.6562 14.8438 32.6562 14.8438 33.8135C12.1814 33.6739 9.76541 32.6117 7.904 30.9356L8.72041 30.1192 7.88084 29.2796 7.06444 30.096C5.38769 28.2346 4.32606 25.8186 4.18653 23.1562L5.34375 23.1562 5.34375 21.9688 4.18653 21.9688C4.32606 19.3064 5.38828 16.8904 7.06444 15.029L7.88084 15.8454 8.72041 15.0058 7.904 14.1894C9.76541 12.5127 12.1814 11.4511 14.8438 11.3115L14.8438 12.4688 16.0312 12.4688 16.0312 11.3044C16.8851 11.3495 17.7306 11.4932 18.5577 11.7319 19.244 15.6572 22.3422 18.7554 26.2681 19.4423 26.5062 20.2694 26.6499 21.1149 26.6956 21.9688ZM15.4375 36.2188C7.90697 36.2188 1.78125 30.093 1.78125 22.5625 1.78125 15.032 7.90697 8.90625 15.4375 8.90625 16.4504 8.90625 17.4604 9.02559 18.449 9.24884 18.4241 9.52791 18.4062 9.80875 18.4062 10.0938 18.4062 10.2178 18.4199 10.339 18.4247 10.4625 17.445 10.2196 16.4439 10.0938 15.4375 10.0938 8.56247 10.0938 2.96875 15.6875 2.96875 22.5625 2.96875 29.4375 8.56247 35.0312 15.4375 35.0312 22.3125 35.0312 27.9062 29.4375 27.9062 22.5625 27.9062 21.5561 27.7804 20.555 27.5375 19.5753 27.661 19.5801 27.7822 19.5938 27.9062 19.5938 28.1912 19.5938 28.4721 19.5759 28.7512 19.551 28.9744 20.5396 29.0938 21.5496 29.0938 22.5625 29.0938 30.093 22.968 36.2188 15.4375 36.2188Z" fill="#414748"/><path d="M17.2188 22.5625C17.2188 21.7894 16.7206 21.1363 16.0312 20.8905L16.0312 13.6562 14.8438 13.6562 14.8438 20.8905C14.1544 21.1363 13.6562 21.7894 13.6562 22.5625 13.6562 23.5446 14.4554 24.3438 15.4375 24.3438 15.7118 24.3438 15.9683 24.2767 16.2005 24.165L20.3615 28.326 21.201 27.4865 17.04 23.3255C17.1517 23.0933 17.2188 22.8368 17.2188 22.5625ZM14.8438 22.5625C14.8438 22.2348 15.1097 21.9688 15.4375 21.9688 15.7653 21.9688 16.0312 22.2348 16.0312 22.5625 16.0312 22.8902 15.7653 23.1562 15.4375 23.1562 15.1097 23.1562 14.8438 22.8902 14.8438 22.5625Z" fill="#414748"/><path d="M33.25 20.7812C32.2679 20.7812 31.4688 21.5804 31.4688 22.5625 31.4688 23.3053 31.9265 23.9424 32.5743 24.209 32.202 28.1182 30.4968 31.7977 27.7341 34.6156L28.5819 35.4469C31.5501 32.4199 33.3759 28.4626 33.7624 24.2594 34.4939 24.038 35.0312 23.3658 35.0312 22.5625 35.0312 21.5804 34.2321 20.7812 33.25 20.7812ZM33.25 23.1562C32.9223 23.1562 32.6562 22.8902 32.6562 22.5625 32.6562 22.2348 32.9223 21.9688 33.25 21.9688 33.5777 21.9688 33.8438 22.2348 33.8438 22.5625 33.8438 22.8902 33.5777 23.1562 33.25 23.1562Z" fill="#414748"/><path d="M3.73053 9.93522C6.49622 7.36962 10.0546 5.79203 13.794 5.43519 14.0636 6.07822 14.6983 6.53125 15.4375 6.53125 16.4196 6.53125 17.2188 5.73206 17.2188 4.75 17.2188 3.76794 16.4196 2.96875 15.4375 2.96875 14.6348 2.96875 13.962 3.50609 13.7406 4.23759 9.72028 4.60809 5.89475 6.30919 2.92362 9.06478L3.73053 9.93522ZM15.4375 4.15625C15.7653 4.15625 16.0312 4.42225 16.0312 4.75 16.0312 5.07775 15.7653 5.34375 15.4375 5.34375 15.1097 5.34375 14.8438 5.07775 14.8438 4.75 14.8438 4.42225 15.1097 4.15625 15.4375 4.15625Z" fill="#414748"/></g></svg>