<svg width="38" height="38" xmlns="http://www.w3.org/2000/svg" xmlns:xlink="http://www.w3.org/1999/xlink" overflow="hidden"><defs><clipPath id="clip0"><rect x="0" y="0" width="38" height="38"/></clipPath></defs><g clip-path="url(#clip0)"><path d="M30.162 19C30.162 25.1646 25.1646 30.162 19 30.162 12.8354 30.162 7.83802 25.1646 7.83802 19 7.83802 12.8354 12.8354 7.83802 19 7.83802 25.1646 7.83802 30.162 12.8354 30.162 19Z" fill="#00A1E4"/><path d="M21.7905 28.3016C15.6259 28.3016 10.6285 23.3042 10.6285 17.1396 10.6285 13.8674 12.0453 10.9334 14.2886 8.89178 10.4818 10.6695 7.83802 14.5213 7.83802 19 7.83802 25.1645 12.8354 30.162 19 30.162 21.8925 30.162 24.5192 29.0524 26.5021 27.2477 25.0691 27.917 23.4764 28.3016 21.7905 28.3016Z" fill="#00AAF0"/><path d="M20.3132 13.0907C20.3132 13.8159 19.7252 14.4039 19 14.4039 18.2748 14.4039 17.6868 13.8159 17.6868 13.0907 17.6868 12.3655 18.2748 11.7776 19 11.7776 19.7252 11.7776 20.3132 12.3655 20.3132 13.0907Z" fill="#FFFFFF"/><path d="M17.6868 16.3736 20.3132 16.3736 20.3132 25.5658 17.6868 25.5658Z" fill="#FFFFFF"/><path d="M32.435 5.565C28.8465 1.9763 24.0751 0 19 0 13.5364 0 8.43504 2.29893 4.82726 6.3457L5.16444 3.98555C5.21246 3.64896 4.97859 3.33725 4.64209 3.28915 4.3055 3.24136 3.99379 3.475 3.94569 3.8115L3.28908 8.40765C3.25895 8.6188 3.34029 8.83055 3.50402 8.96733 3.61638 9.06107 3.75636 9.11028 3.89856 9.11028 3.96373 9.11028 4.02948 9.09996 4.09316 9.07866L8.0327 7.76551C8.35525 7.65796 8.52952 7.30943 8.42205 6.98688 8.3145 6.66432 7.96582 6.48998 7.64342 6.59753L5.66415 7.25733C9.04266 3.41562 13.8494 1.23107 19 1.23107 23.7462 1.23107 28.2084 3.07934 31.5646 6.43543 34.9207 9.79161 36.7689 14.2538 36.7689 19 36.7689 21.6648 36.1937 24.227 35.0592 26.6152 34.9133 26.9223 35.0439 27.2894 35.351 27.4354 35.4363 27.4759 35.5261 27.4952 35.6147 27.4952 35.845 27.4952 36.0658 27.3653 36.1712 27.1436 37.3847 24.5889 38 21.849 38 19 38 13.9249 36.0237 9.15355 32.435 5.565Z" fill="#414748"/><path d="M34.496 29.0328C34.3322 28.8962 34.1093 28.854 33.9069 28.9214L29.9674 30.2346C29.6448 30.3421 29.4706 30.6906 29.578 31.0132 29.6856 31.3358 30.0342 31.51 30.3567 31.4025L32.3316 30.7442C30.8343 32.4398 29.0121 33.8541 27.0007 34.8702 24.5067 36.1301 21.8148 36.7688 19 36.7688 14.2538 36.7688 9.79161 34.9205 6.43543 31.5644 3.07941 28.2084 1.23107 23.7462 1.23107 19 1.23107 16.3352 1.80634 13.773 2.94084 11.3848 3.08668 11.0777 2.95606 10.7106 2.64902 10.5646 2.3419 10.4188 1.97481 10.5495 1.82882 10.8564 0.615273 13.4111 0 16.151 0 19 0 24.0751 1.9763 28.8465 5.565 32.435 9.1537 36.0236 13.9249 38 19 38 22.0095 38 24.888 37.3167 27.5557 35.9691 29.6697 34.9012 31.5882 33.4221 33.1733 31.6504L32.8356 34.0144C32.7875 34.351 33.0214 34.6627 33.3579 34.7108 33.3875 34.7149 33.4168 34.717 33.4457 34.717 33.7471 34.717 34.0104 34.4954 34.0544 34.1884L34.711 29.5923C34.7411 29.3812 34.6597 29.1695 34.496 29.0328Z" fill="#414748"/><path d="M30.7776 19C30.7776 12.5059 25.4941 7.22245 19 7.22245 12.5059 7.22245 7.22245 12.5059 7.22245 19 7.22245 25.4941 12.5059 30.7776 19 30.7776 25.4941 30.7776 30.7776 25.4941 30.7776 19ZM8.45359 19C8.45359 13.1847 13.1847 8.45359 19 8.45359 24.8153 8.45359 29.5464 13.1847 29.5464 19 29.5464 24.8153 24.8153 29.5464 19 29.5464 13.1847 29.5464 8.45359 24.8153 8.45359 19Z" fill="#414748"/><path d="M20.9698 26.1814C21.3097 26.1814 21.5853 25.9058 21.5853 25.5658 21.5853 25.2258 21.3098 24.9503 20.9698 24.9503L20.9287 24.9503 20.9287 16.9892 20.9698 16.9892C21.3097 16.9892 21.5853 16.7136 21.5853 16.3736 21.5853 16.0336 21.3098 15.7581 20.9698 15.7581L17.0302 15.7581C16.6903 15.7581 16.4147 16.0336 16.4147 16.3736 16.4147 16.7136 16.6902 16.9892 17.0302 16.9892L17.0713 16.9892 17.0713 24.9503 17.0302 24.9503C16.6903 24.9503 16.4147 25.2259 16.4147 25.5659 16.4147 25.9059 16.6902 26.1815 17.0302 26.1815L20.9698 26.1815ZM18.3023 16.9892 19.6977 16.9892 19.6977 24.9503 18.3023 24.9503 18.3023 16.9892Z" fill="#414748"/><path d="M19 15.0194C20.0635 15.0194 20.9287 14.1542 20.9287 13.0907 20.9287 12.0272 20.0635 11.162 19 11.162 17.9365 11.162 17.0713 12.0272 17.0713 13.0907 17.0713 14.1542 17.9365 15.0194 19 15.0194ZM19 12.3931C19.3847 12.3931 19.6977 12.7061 19.6977 13.0908 19.6977 13.4755 19.3847 13.7884 19 13.7884 18.6153 13.7884 18.3023 13.4755 18.3023 13.0908 18.3023 12.7061 18.6153 12.3931 19 12.3931Z" fill="#414748"/></g></svg>