<?xml version="1.0" encoding="UTF-8"?>
<!DOCTYPE svg PUBLIC "-//W3C//DTD SVG 1.1//EN" "http://www.w3.org/Graphics/SVG/1.1/DTD/svg11.dtd">
<svg xmlns="http://www.w3.org/2000/svg" version="1.1" width="294px" height="266px" style="shape-rendering:geometricPrecision; text-rendering:geometricPrecision; image-rendering:optimizeQuality; fill-rule:evenodd; clip-rule:evenodd" xmlns:xlink="http://www.w3.org/1999/xlink">
<g><path style="opacity:0.794" fill="#00a0e4" d="M 94.5,0.5 C 100.861,0.0295902 103.694,3.02959 103,9.5C 108.167,14.6667 113.333,19.8333 118.5,25C 125.167,25.6667 131.833,25.6667 138.5,25C 142.167,21.3333 145.833,17.6667 149.5,14C 156.833,13.6667 164.167,13.3333 171.5,13C 174.526,9.91131 177.693,9.74464 181,12.5C 182.5,19 180,21.5 173.5,20C 172.643,19.3109 171.977,18.4776 171.5,17.5C 164.858,16.3358 158.192,16.1691 151.5,17C 147.833,20.6667 144.167,24.3333 140.5,28C 132.5,28.6667 124.5,28.6667 116.5,28C 111.167,22.6667 105.833,17.3333 100.5,12C 91.894,11.2865 89.894,7.45321 94.5,0.5 Z"/></g>
<g><path style="opacity:0.604" fill="#00a1e4" d="M 74.5,3.5 C 81.0688,10.5711 87.9022,17.5711 95,24.5C 95.3333,28.5 95.6667,32.5 96,36.5C 101.5,42 107,47.5 112.5,53C 126.833,53.6667 141.167,53.6667 155.5,53C 158.5,50 161.5,47 164.5,44C 199.856,43.807 235.189,43.307 270.5,42.5C 270.853,44.6348 270.02,45.9681 268,46.5C 233.863,45.3436 199.696,45.177 165.5,46C 162.833,48.6667 160.167,51.3333 157.5,54C 141.833,54.6667 126.167,54.6667 110.5,54C 105.333,48.8333 100.167,43.6667 95,38.5C 94.6667,34.5 94.3333,30.5 94,26.5C 87.6359,19.8014 80.9692,13.4681 74,7.5C 73.4209,6.07153 73.5876,4.7382 74.5,3.5 Z"/></g>
<g><path style="opacity:0.517" fill="#00a1e3" d="M 4.5,13.5 C 25.4762,14.2878 46.4762,14.7878 67.5,15C 72.6667,20.1667 77.8333,25.3333 83,30.5C 83.3333,38.8333 83.6667,47.1667 84,55.5C 92.5959,63.5515 101.096,71.7182 109.5,80C 131.531,80.8009 153.531,80.6342 175.5,79.5C 175.5,80.8333 175.5,82.1667 175.5,83.5C 153.197,82.6982 130.864,82.1982 108.5,82C 99.6667,73.1667 90.8333,64.3333 82,55.5C 81.6667,47.5 81.3333,39.5 81,31.5C 76.1667,26.6667 71.3333,21.8333 66.5,17C 46.4566,16.179 26.4566,16.3457 6.5,17.5C 4.88882,16.6798 4.22216,15.3464 4.5,13.5 Z"/></g>
<g><path style="opacity:0.557" fill="#00a0e3" d="M 252.5,20.5 C 256.859,20.8542 257.359,22.1875 254,24.5C 241.867,23.3632 229.7,23.1965 217.5,24C 215.5,26 213.5,28 211.5,30C 195.167,30.3333 178.833,30.6667 162.5,31C 158.5,35 154.5,39 150.5,43C 140.5,43.3333 130.5,43.6667 120.5,44C 118.973,45.6099 117.64,45.2765 116.5,43C 117.64,40.7235 118.973,40.3901 120.5,42C 130.167,42.6667 139.833,42.6667 149.5,42C 153.833,37.6667 158.167,33.3333 162.5,29C 178.5,28.6667 194.5,28.3333 210.5,28C 212.5,26 214.5,24 216.5,22C 228.674,21.8307 240.674,21.3307 252.5,20.5 Z"/></g>
<g><path style="opacity:0.798" fill="#00a2e4" d="M 4.5,23.5 C 23.476,24.2827 42.476,24.7827 61.5,25C 64.3333,27.8333 67.1667,30.6667 70,33.5C 70.3333,41.5 70.6667,49.5 71,57.5C 82.5,69 94,80.5 105.5,92C 121.833,92.3333 138.167,92.6667 154.5,93C 157.5,96 160.5,99 163.5,102C 182.524,102.782 201.524,102.616 220.5,101.5C 220.853,103.635 220.02,104.968 218,105.5C 199.531,104.686 181.031,104.186 162.5,104C 159.167,100.667 155.833,97.3333 152.5,94C 136.167,93.6667 119.833,93.3333 103.5,93C 92.3333,81.8333 81.1667,70.6667 70,59.5C 69.6667,51.5 69.3333,43.5 69,35.5C 66.1667,32.6667 63.3333,29.8333 60.5,27C 42.8239,26.167 25.1572,26.3337 7.5,27.5C 9.16203,28.3267 10.4954,29.4933 11.5,31C 25.1667,31.3333 38.8333,31.6667 52.5,32C 54.6667,34.1667 56.8333,36.3333 59,38.5C 59.3333,45.8333 59.6667,53.1667 60,60.5C 74.3333,74.8333 88.6667,89.1667 103,103.5C 103.333,113.167 103.667,122.833 104,132.5C 110.5,139 117,145.5 123.5,152C 130.13,151.638 132.297,154.471 130,160.5C 123.662,163.99 120.328,161.99 120,154.5C 113.333,147.833 106.667,141.167 100,134.5C 99.6667,124.5 99.3333,114.5 99,104.5C 85,90.5 71,76.5 57,62.5C 56.6667,55.5 56.3333,48.5 56,41.5C 53.8333,39.3333 51.6667,37.1667 49.5,35C 36.8202,34.1674 24.1535,34.334 11.5,35.5C 9.4509,38.1475 6.78423,38.9808 3.5,38C 0.451611,33.7901 1.11828,30.2901 5.5,27.5C 4.75415,26.2638 4.42082,24.9305 4.5,23.5 Z"/></g>
<g><path style="opacity:0.646" fill="#00a1e4" d="M 5.5,41.5 C 6.75618,41.4614 7.75618,41.9614 8.5,43C 20.1667,43.3333 31.8333,43.6667 43.5,44C 44.3333,44.8333 45.1667,45.6667 46,46.5C 46.6667,52.8333 46.6667,59.1667 46,65.5C 40.3333,71.1667 34.6667,76.8333 29,82.5C 28.3333,99.1667 28.3333,115.833 29,132.5C 36,139.5 43,146.5 50,153.5C 50.2078,162.368 50.7078,171.202 51.5,180C 50.9681,182.02 49.6348,182.853 47.5,182.5C 48.5541,173.194 48.7208,163.861 48,154.5C 41.3333,147.833 34.6667,141.167 28,134.5C 27.3333,116.5 27.3333,98.5 28,80.5C 33.3333,75.1667 38.6667,69.8333 44,64.5C 44.6667,58.8333 44.6667,53.1667 44,47.5C 43.1667,46.6667 42.3333,45.8333 41.5,45C 29.1405,44.2485 16.8072,44.4152 4.5,45.5C 4.43255,44.0413 4.76589,42.7079 5.5,41.5 Z"/></g>
<g><path style="opacity:0.669" fill="#00a3e5" d="M 91.5,47.5 C 98.4928,52.9802 105.159,59.1468 111.5,66C 127.833,66.6667 144.167,66.6667 160.5,66C 163.5,63 166.5,60 169.5,57C 183.191,56.7607 196.858,56.2607 210.5,55.5C 210.642,59.2231 209.309,60.0564 206.5,58C 194.833,57.3333 183.167,57.3333 171.5,58C 168.167,61.3333 164.833,64.6667 161.5,68C 144.5,68.6667 127.5,68.6667 110.5,68C 104.573,61.3997 98.0729,55.5663 91,50.5C 90.5304,49.4232 90.6971,48.4232 91.5,47.5 Z"/></g>
<g><path style="opacity:0.81" fill="#00a0e3" d="M 28.5,53.5 C 32.8406,52.52 35.1739,54.1867 35.5,58.5C 35.1547,63.5823 32.6547,65.2489 28,63.5C 25.6667,65.8333 23.3333,68.1667 21,70.5C 20.3333,94.1667 20.3333,117.833 21,141.5C 25.3333,145.833 29.6667,150.167 34,154.5C 34.3333,167.167 34.6667,179.833 35,192.5C 37.6027,194.949 38.1027,197.782 36.5,201C 31.3619,203.931 28.3619,202.598 27.5,197C 27.3094,195.027 27.976,193.527 29.5,192.5C 30.6659,180.18 30.8326,167.847 30,155.5C 25.6667,151.167 21.3333,146.833 17,142.5C 16.3333,118.167 16.3333,93.8333 17,69.5C 19.6667,66.8333 22.3333,64.1667 25,61.5C 25.3333,59.5 25.6667,57.5 26,55.5C 26.9947,54.9341 27.828,54.2674 28.5,53.5 Z"/></g>
<g><path style="opacity:0.481" fill="#00a0e4" d="M 53.5,69.5 C 54.8333,69.5 56.1667,69.5 57.5,69.5C 52.0593,75.447 46.226,81.447 40,87.5C 39.3333,100.5 39.3333,113.5 40,126.5C 47.3333,133.833 54.6667,141.167 62,148.5C 62.2041,167.531 62.7041,186.531 63.5,205.5C 62.1667,205.5 60.8333,205.5 59.5,205.5C 60.6281,186.865 60.7948,168.198 60,149.5C 52.6667,142.167 45.3333,134.833 38,127.5C 37.3333,113.833 37.3333,100.167 38,86.5C 43.7644,81.2422 48.931,75.5755 53.5,69.5 Z"/></g>
<g><path style="opacity:0.588" fill="#00a4e6" d="M 51.5,78.5 C 62.3278,87.8197 72.8278,97.8197 83,108.5C 83.3333,118.5 83.6667,128.5 84,138.5C 94.8333,149.333 105.667,160.167 116.5,171C 137.167,171.667 157.833,171.667 178.5,171C 180.376,168.932 181.709,169.266 182.5,172C 181.709,174.734 180.376,175.068 178.5,173C 157.5,172.667 136.5,172.333 115.5,172C 104.333,160.833 93.1667,149.667 82,138.5C 81.6667,128.833 81.3333,119.167 81,109.5C 72.1667,100.667 63.3333,91.8333 54.5,83C 53.552,82.5172 52.552,82.3505 51.5,82.5C 51.5,81.1667 51.5,79.8333 51.5,78.5 Z"/></g>
<g><path style="opacity:0.876" fill="#00a1e4" d="M 54.5,94.5 C 62.3278,93.4931 65.4944,96.8265 64,104.5C 62.9805,105.687 61.8139,106.687 60.5,107.5C 59.3358,114.142 59.1691,120.808 60,127.5C 64.6667,132.167 69.3333,136.833 74,141.5C 74.1685,149.188 74.6685,156.855 75.5,164.5C 80.3958,168.277 80.7292,172.444 76.5,177C 68.8624,178.957 65.3624,176.123 66,168.5C 66.6368,166.697 67.8035,165.364 69.5,164.5C 70.6642,157.858 70.8309,151.192 70,144.5C 65.3333,139.833 60.6667,135.167 56,130.5C 55.8315,122.812 55.3315,115.145 54.5,107.5C 49.3139,103.216 49.3139,98.8823 54.5,94.5 Z"/></g>
<g><path style="opacity:0.489" fill="#00a1e4" d="M 111.5,108.5 C 124.504,108.333 137.504,108.5 150.5,109C 154.5,113 158.5,117 162.5,121C 171.12,121.38 179.62,121.547 188,121.5C 188.612,123.237 187.946,124.237 186,124.5C 177.869,123.711 169.702,123.211 161.5,123C 157.5,119 153.5,115 149.5,111C 137.171,110.5 124.838,110.333 112.5,110.5C 112.334,115.844 112.501,121.177 113,126.5C 117.5,131 122,135.5 126.5,140C 133.861,140.683 141.195,140.517 148.5,139.5C 148.853,141.635 148.02,142.968 146,143.5C 139.537,142.724 133.037,142.224 126.5,142C 121.667,137.167 116.833,132.333 112,127.5C 111.5,121.175 111.334,114.842 111.5,108.5 Z"/></g>
<g><path style="opacity:0.532" fill="#00a0e2" d="M 16.5,153.5 C 17.8333,153.5 19.1667,153.5 20.5,153.5C 19.7365,164.134 19.2365,174.801 19,185.5C 17.3333,187.167 15.6667,188.833 14,190.5C 13.2348,201.534 13.4015,212.534 14.5,223.5C 13.1667,223.5 11.8333,223.5 10.5,223.5C 11.268,212.199 11.768,200.866 12,189.5C 13.6667,187.833 15.3333,186.167 17,184.5C 17.7603,174.133 17.5937,163.799 16.5,153.5 Z"/></g>
</svg>
