<svg width="87" height="87" xmlns="http://www.w3.org/2000/svg" xmlns:xlink="http://www.w3.org/1999/xlink" overflow="hidden"><defs><clipPath id="clip0"><rect x="0" y="0" width="87" height="87"/></clipPath></defs><g clip-path="url(#clip0)"><path d="M43.5 0C67.5244 0 87 19.4756 87 43.5L87 43.5C87 67.5244 67.5244 87 43.5 87L43.5 87C19.4756 87 0 67.5244 0 43.5L0 43.5C0 19.4756 19.4756 0 43.5 0Z"/><path d="M53.2271 54.4958 51.2938 56.4292C48.3333 59.3896 45.3729 61.3229 42.9562 58.9062L29.1208 45.0708C26.6437 42.5938 28.5771 39.6938 31.5979 36.7333L33.5312 34.8 24.0458 25.3146 21.3271 28.0333C16.4938 32.8667 16.4938 40.6604 21.3271 45.4333L42.4729 66.5792C47.3063 71.4125 55.1 71.4125 59.8729 66.5792L62.5917 63.8604 53.2271 54.4958Z" fill="#55B047"/><path d="M34.3167 33.1083 25.9188 24.7708C24.5292 23.3813 22.2938 23.3813 20.9042 24.7708L20.9042 24.7708C19.5146 26.1604 19.5146 28.3958 20.9042 29.7854L29.2417 38.1229C30.6313 39.5125 32.8667 39.5125 34.2563 38.1229L34.2563 38.1229C35.7062 36.7333 35.7062 34.4979 34.3167 33.1083Z" fill="#00A1E4"/><path d="M63.2562 62.0479 54.8583 53.7104C53.4688 52.3208 51.2333 52.3208 49.8438 53.7104L49.8438 53.7104C48.4542 55.1 48.4542 57.3354 49.8438 58.725L58.2417 67.0625C59.6312 68.4521 61.8667 68.4521 63.2562 67.0625L63.2562 67.0625C64.6458 65.6729 64.6458 63.4375 63.2562 62.0479Z" fill="#00A1E4"/><path d="M69.2375 31.2354C68.9354 38.1229 63.3771 43.8021 56.55 44.3458 54.6167 44.4667 52.7438 44.225 50.9917 43.6813 50.0854 43.3792 46.6417 45.0708 44.6479 46.0979 44.1646 46.3396 43.5604 45.8563 43.8021 45.3125 44.5271 43.3792 45.5542 40.2979 45.0708 39.7542 42.7146 37.0958 41.3854 33.4708 41.6271 29.5438 42.1104 22.6562 47.85 17.0979 54.7375 16.7958 62.8937 16.3729 69.6 23.0792 69.2375 31.2354Z" fill="#8CC0DE"/><path d="M51.8979 26.825 59.0271 26.825C59.5104 26.825 59.9333 26.4021 59.9333 25.9188 59.9333 25.4354 59.5104 25.0125 59.0271 25.0125L51.8979 25.0125C51.4146 25.0125 50.9917 25.4354 50.9917 25.9188 50.9313 26.4021 51.3542 26.825 51.8979 26.825Z" fill="#FFFFFF"/><path d="M59.0271 34.2563 51.8979 34.2563C51.4146 34.2563 50.9917 34.6792 50.9917 35.1625 50.9917 35.6458 51.4146 36.0688 51.8979 36.0688L59.0271 36.0688C59.5104 36.0688 59.9333 35.6458 59.9333 35.1625 59.9333 34.6792 59.5104 34.2563 59.0271 34.2563Z" fill="#FFFFFF"/><path d="M62.6521 29.6042 48.2125 29.6042C47.7292 29.6042 47.3063 30.0271 47.3063 30.5104 47.3063 30.9937 47.7292 31.4167 48.2125 31.4167L62.5917 31.4167C63.075 31.4167 63.4979 30.9937 63.4979 30.5104 63.5583 30.0271 63.1354 29.6042 62.6521 29.6042Z" fill="#FFFFFF"/></g></svg>