<svg width="141" height="141" xmlns="http://www.w3.org/2000/svg" xmlns:xlink="http://www.w3.org/1999/xlink" overflow="hidden"><defs><clipPath id="clip0"><rect x="0" y="0" width="141" height="141"/></clipPath></defs><g clip-path="url(#clip0)"><path d="M70.5 132.188C36.4309 132.188 8.8125 104.56 8.8125 70.5 8.8125 36.4399 36.4309 8.8125 70.5 8.8125 104.569 8.8125 132.188 36.4399 132.188 70.5 132.188 104.56 104.569 132.188 70.5 132.188L70.5 132.188ZM70.5 0C31.5619 0 0 31.5488 0 70.5 0 109.451 31.5619 141 70.5 141 109.438 141 141 109.451 141 70.5 141 31.5488 109.438 0 70.5 0L70.5 0ZM93.0645 68.1206 74.9062 86.3184 74.9062 39.6562C74.9062 37.2324 72.9366 35.25 70.5 35.25 68.0677 35.25 66.0938 37.2324 66.0938 39.6562L66.0938 86.3184 47.9355 68.1206C46.2128 66.4019 43.4236 66.4019 41.7052 68.1206 39.9823 69.8833 39.9823 72.6592 41.7052 74.3774L66.627 99.3169C67.6843 100.375 69.1296 100.683 70.5 100.418 71.8704 100.683 73.3157 100.375 74.373 99.3169L99.2948 74.3774C101.018 72.6592 101.018 69.8833 99.2948 68.1206 97.5808 66.4019 94.7872 66.4019 93.0645 68.1206L93.0645 68.1206Z" fill="#00A1E4" fill-rule="evenodd"/></g></svg>