<svg width="91" height="91" xmlns="http://www.w3.org/2000/svg" xmlns:xlink="http://www.w3.org/1999/xlink" overflow="hidden"><defs><clipPath id="clip0"><rect x="0" y="0" width="91" height="91"/></clipPath></defs><g clip-path="url(#clip0)"><path d="M63.6801 29.6604C63.6801 29.6604 43.6089 64.6384 43.262 64.9512 42.1159 66.0317 40.3159 65.9749 39.2437 64.8376L26.2421 52.8367C25.1672 51.6995 25.2269 49.8794 26.373 48.8274 27.519 47.7466 29.3191 47.8037 30.394 48.9409L40.5689 58.3254 58.7547 26.8167C59.5396 25.48 61.2771 24.9966 62.6393 25.7927 63.9986 26.5605 64.465 28.3237 63.6801 29.6604L63.6801 29.6604ZM45.5 0C20.3726 0 0 20.3613 0 45.5 0 70.6387 20.3726 91 45.5 91 70.6274 91 91 70.6387 91 45.5 91 20.3613 70.6274 0 45.5 0L45.5 0Z" fill="#00A1E4" fill-rule="evenodd"/></g></svg>