<svg width="67" height="67" xmlns="http://www.w3.org/2000/svg" xmlns:xlink="http://www.w3.org/1999/xlink" overflow="hidden"><defs><clipPath id="clip0"><rect x="0" y="0" width="67" height="67"/></clipPath></defs><g clip-path="url(#clip0)"><path d="M27.9167-5.58333C46.4182-5.58333 61.4167 9.41513 61.4167 27.9167L61.4167 27.9167C61.4167 46.4182 46.4182 61.4167 27.9167 61.4167L27.9167 61.4167C9.41513 61.4167-5.58333 46.4182-5.58333 27.9167L-5.58333 27.9167C-5.58333 9.41513 9.41513-5.58333 27.9167-5.58333Z" transform="matrix(-1 1.22465e-16 1.22465e-16 1 61.4167 5.58333)"/><path d="M11.7249 30.1962C11.7249 31.8922 10.35 33.267 8.65408 33.267 6.95813 33.267 5.58328 31.8922 5.58328 30.1962 5.58328 28.5003 6.95813 27.1254 8.65408 27.1254 10.35 27.1254 11.7249 28.5003 11.7249 30.1962Z" fill="#55B047" transform="matrix(-0.707107 -0.707107 -0.707107 0.707107 80.2469 20.5429)"/><path d="M50.2481 30.1954C50.2481 31.8913 48.8733 33.2661 47.1774 33.2661 45.4815 33.2661 44.1067 31.8913 44.1067 30.1954 44.1067 28.4995 45.4815 27.1247 47.1774 27.1247 48.8733 27.1247 50.2481 28.4995 50.2481 30.1954Z" fill="#55B047" transform="matrix(-0.973236 -0.229808 -0.229808 0.973236 67.0951 17.2337)"/><path d="M44.8528 24.5667 42.2472 24.5667C42.2472 16.6569 35.8264 10.2361 27.9167 10.2361 20.0069 10.2361 13.5861 16.6569 13.5861 24.5667L10.9806 24.5667C10.9806 15.2146 18.5646 7.63056 27.9167 7.63056 37.2687 7.63056 44.8528 15.2146 44.8528 24.5667Z" fill="#55B047" transform="matrix(-1 1.22465e-16 1.22465e-16 1 61.4167 5.58333)"/><path d="M32.2438 47.1792C31.1271 47.1792 30.3826 47.1326 30.2896 47.1326L30.3826 46.109C30.4757 46.109 41.0375 46.9 42.2938 42.5264 43.6896 37.6875 42.9917 32.5694 42.9917 32.5229L44.0153 32.3833C44.0618 32.5694 44.7597 37.734 43.2708 42.8056 42.1076 46.6674 35.5938 47.1792 32.2438 47.1792Z" fill="#3F3F3F" transform="matrix(-1 1.22465e-16 1.22465e-16 1 61.4167 5.58333)"/><path d="M32.709 48.2028 28.0097 48.2028C27.591 48.2028 27.2653 47.8771 27.2653 47.4583L27.2653 45.5972C27.2653 45.1785 27.591 44.8528 28.0097 44.8528L32.709 44.8528C33.1278 44.8528 33.4535 45.1785 33.4535 45.5972L33.4535 47.4583C33.4535 47.8771 33.1278 48.2028 32.709 48.2028Z" fill="#00A1E4" transform="matrix(-1 1.22465e-16 1.22465e-16 1 61.4167 5.58333)"/><path d="M35.8729 33.7792 27.9167 33.7792 22.1472 37.2222C21.9146 37.3618 21.6354 37.1292 21.6819 36.8965L22.5194 33.7792 19.9604 33.7792C19.2625 33.7792 18.6576 33.1743 18.6576 32.4764L18.6576 22.5194C18.6576 21.8215 19.2625 21.2167 19.9604 21.2167L35.8264 21.2167C36.5243 21.2167 37.1292 21.8215 37.1292 22.5194L37.1292 32.5229C37.1757 33.2208 36.5708 33.7792 35.8729 33.7792Z" fill="#85CEFF" transform="matrix(-1 1.22465e-16 1.22465e-16 1 61.4167 5.58333)"/><path d="M27.9167 26.5208C27.3583 26.5208 26.9396 26.9861 26.9396 27.4979 26.9396 28.0097 27.4049 28.475 27.9167 28.475 28.475 28.475 28.8937 28.0097 28.8937 27.4979 28.8937 26.9861 28.475 26.5208 27.9167 26.5208Z" fill="#FFFFFF" transform="matrix(-1 1.22465e-16 1.22465e-16 1 61.4167 5.58333)"/><path d="M23.9153 26.5208C23.3569 26.5208 22.9382 26.9861 22.9382 27.4979 22.9382 28.0097 23.4035 28.475 23.9153 28.475 24.4736 28.475 24.8924 28.0097 24.8924 27.4979 24.8924 26.9861 24.4736 26.5208 23.9153 26.5208Z" fill="#FFFFFF" transform="matrix(-1 1.22465e-16 1.22465e-16 1 61.4167 5.58333)"/><path d="M31.9181 26.5208C31.3597 26.5208 30.941 26.9861 30.941 27.4979 30.941 28.0097 31.4062 28.475 31.9181 28.475 32.4764 28.475 32.8951 28.0097 32.8951 27.4979 32.8951 26.9861 32.4764 26.5208 31.9181 26.5208Z" fill="#FFFFFF" transform="matrix(-1 1.22465e-16 1.22465e-16 1 61.4167 5.58333)"/><path d="M13.7722 23.6826 9.67778 23.6826C8.42153 23.6826 7.39792 24.7062 7.39792 25.9625L7.39792 35.0819C7.39792 36.3382 8.42153 37.3618 9.67778 37.3618L13.7722 37.3618C14.6562 37.3618 15.3542 36.6639 15.3542 35.7799L15.3542 25.2181C15.3076 24.3806 14.6097 23.6826 13.7722 23.6826Z" fill="#00A1E4" transform="matrix(-1 1.22465e-16 1.22465e-16 1 61.4167 5.58333)"/><path d="M46.1556 23.6826 42.0611 23.6826C41.1771 23.6826 40.4792 24.3806 40.4792 25.2646L40.4792 35.7799C40.4792 36.6639 41.1771 37.3618 42.0611 37.3618L46.1556 37.3618C47.4118 37.3618 48.4354 36.3382 48.4354 35.0819L48.4354 25.916C48.4354 24.6597 47.4118 23.6826 46.1556 23.6826Z" fill="#00A1E4" transform="matrix(-1 1.22465e-16 1.22465e-16 1 61.4167 5.58333)"/></g></svg>