<svg width="80" height="80" xmlns="http://www.w3.org/2000/svg" xmlns:xlink="http://www.w3.org/1999/xlink" overflow="hidden"><defs><clipPath id="clip0"><rect x="0" y="0" width="80" height="80"/></clipPath></defs><g clip-path="url(#clip0)"><path d="M40-9.53674e-07C62.0914-9.53674e-07 80 17.9086 80 40L80 40C80 62.0914 62.0914 80 40 80L40 80C17.9086 80-9.53674e-07 62.0914-9.53674e-07 40L-9.53674e-07 40C-9.53674e-07 17.9086 17.9086-9.53674e-07 40-9.53674e-07Z"/><path d="M55.7658 24.2342 55.7658 19.7297 30.991 19.7297C29.7471 19.7297 28.7387 20.7381 28.7387 21.982L28.7387 27.7252C40.2905 28.8861 49.0671 38.6378 49.009 50.2477 48.9959 53.7331 48.1626 57.1667 46.5766 60.2703L58.018 60.2703C59.2619 60.2703 60.2703 59.2619 60.2703 58.018L60.2703 24.2342Z" fill="#00A1E4"/><path d="M46.7568 60.2703 58.018 60.2703C59.2619 60.2703 60.2703 59.2619 60.2703 58.018L60.2703 24.2342 55.7658 19.7297 30.991 19.7297C29.7471 19.7297 28.7387 20.7381 28.7387 21.982L28.7387 28.7387" stroke="#55B047" stroke-width="1.35135" stroke-linecap="round" stroke-linejoin="round" fill="none"/><path d="M35.4955 60.2703 21.982 60.2703C20.7381 60.2703 19.7297 59.2619 19.7297 58.018L19.7297 49.009C19.7297 47.7651 20.7381 46.7568 21.982 46.7568L35.4955 46.7568C36.7394 46.7568 37.7477 47.7651 37.7477 49.009L37.7477 58.018C37.7477 59.2619 36.7394 60.2703 35.4955 60.2703ZM28.7387 37.7477 28.7387 37.7477C26.251 37.7477 24.2342 39.7644 24.2342 42.2523L24.2342 46.7568 33.2432 46.7568 33.2432 42.2523C33.2432 39.7644 31.2265 37.7477 28.7387 37.7477ZM55.7658 19.7297 55.7658 24.2342 60.2703 24.2342Z" stroke="#55B047" stroke-width="1.35135" stroke-linecap="round" stroke-linejoin="round" fill="none"/></g></svg>