<svg width="67" height="67" xmlns="http://www.w3.org/2000/svg" xmlns:xlink="http://www.w3.org/1999/xlink" overflow="hidden"><defs><clipPath id="clip0"><rect x="0" y="0" width="67" height="67"/></clipPath></defs><g clip-path="url(#clip0)"><path d="M33.5 0C52.0015 0 67 14.9985 67 33.5L67 33.5C67 52.0015 52.0015 67 33.5 67L33.5 67C14.9985 67 0 52.0015 0 33.5L0 33.5C0 14.9985 14.9985 0 33.5 0Z"/><path d="M51.4132 27.4979 49.6917 27.4979 50.4361 31.1736C50.4826 31.4993 50.1569 31.6854 49.9243 31.5458L43.7361 27.4979 38.8507 27.4979C38.1528 27.4979 37.5944 26.9396 37.5944 26.2417L37.5944 14.1444C37.5944 13.4465 38.1528 12.8882 38.8507 12.8882L51.4132 12.8882C52.1111 12.8882 52.6694 13.4465 52.6694 14.1444L52.6694 26.2417C52.6694 26.8931 52.1111 27.4979 51.4132 27.4979Z" fill="#00A1E4"/><path d="M15.959 48.8542 18.1924 48.8542 17.2153 53.6465C17.1222 54.0187 17.5875 54.3444 17.9132 54.1118L25.916 48.8542 40.5722 48.8542C41.5028 48.8542 42.2007 48.1097 42.2007 47.2257L42.2007 31.4528C42.2007 30.5222 41.4562 29.8243 40.5722 29.8243L15.959 29.8243C15.0285 29.8243 14.3306 30.5688 14.3306 31.4528L14.3306 47.1792C14.3306 48.1097 15.0285 48.8542 15.959 48.8542Z" fill="#55B047"/><path d="M45.4111 22.9382 44.5271 22.9382C44.2479 22.9382 44.0153 22.7056 44.0153 22.4264L44.0153 22.4264C44.0153 21.8215 44.1083 21.3563 44.2944 20.9375 44.4806 20.5653 44.8993 20.1 45.4576 19.6812 46.0625 19.1694 46.3882 18.8903 46.4813 18.7507 46.6674 18.5181 46.7604 18.2389 46.7604 17.9597 46.7604 17.5875 46.5743 17.2618 46.2951 16.9361 45.9694 16.6569 45.5972 16.5174 45.0389 16.5174 44.5271 16.5174 44.1083 16.6569 43.7826 16.9361 43.5965 17.1222 43.4104 17.3083 43.2708 17.5875 43.0847 17.9597 42.7125 18.1924 42.2938 18.1924L42.2938 18.1924C41.6424 18.0993 41.2701 17.3549 41.5958 16.7965 41.7819 16.4708 42.0146 16.1917 42.2938 15.866 42.9917 15.2611 43.8757 14.9819 44.9458 14.9819 46.109 14.9819 46.9931 15.2611 47.691 15.9125 48.3889 16.5174 48.7146 17.2153 48.7146 18.0063 48.7146 18.4715 48.575 18.8438 48.3424 19.2625 48.1097 19.6812 47.5514 20.1931 46.7604 20.8444 46.3417 21.2167 46.0625 21.4493 45.9694 21.6819 45.9229 21.8681 45.8299 22.0542 45.8299 22.3799 45.8299 22.7056 45.6903 22.9382 45.4111 22.9382ZM44.0618 24.6597 44.0618 24.5667C44.0618 24.0549 44.4806 23.6361 44.9924 23.6361L45.1319 23.6361C45.6437 23.6361 46.0625 24.0549 46.0625 24.5667L46.0625 24.6597C46.0625 25.1715 45.6437 25.5903 45.1319 25.5903L45.0389 25.5903C44.5271 25.6368 44.0618 25.1715 44.0618 24.6597Z" fill="#FFFFFF"/><path d="M20.0069 35.5938 23.7292 35.5938C24.1479 35.5938 24.4736 35.2681 24.4736 34.8493 24.4736 34.4306 24.1479 34.1049 23.7292 34.1049L20.0069 34.1049C19.5882 34.1049 19.2625 34.4306 19.2625 34.8493 19.2625 35.2681 19.5882 35.5938 20.0069 35.5938Z" fill="#FFFFFF"/><path d="M26.5674 35.5938 36.4778 35.5938C36.8965 35.5938 37.2222 35.2681 37.2222 34.8493 37.2222 34.4306 36.8965 34.1049 36.4778 34.1049L26.5674 34.1049C26.1486 34.1049 25.8229 34.4306 25.8229 34.8493 25.8229 35.2681 26.1486 35.5938 26.5674 35.5938Z" fill="#FFFFFF"/><path d="M36.5243 37.1292 20.0069 37.1292C19.5882 37.1292 19.2625 37.4549 19.2625 37.8736 19.2625 38.2924 19.5882 38.6181 20.0069 38.6181L36.5243 38.6181C36.9431 38.6181 37.2687 38.2924 37.2687 37.8736 37.2687 37.4549 36.9431 37.1292 36.5243 37.1292Z" fill="#FFFFFF"/><path d="M36.5243 40.2 20.0069 40.2C19.5882 40.2 19.2625 40.5257 19.2625 40.9444 19.2625 41.3632 19.5882 41.6889 20.0069 41.6889L36.5243 41.6889C36.9431 41.6889 37.2687 41.3632 37.2687 40.9444 37.2687 40.5257 36.9431 40.2 36.5243 40.2Z" fill="#FFFFFF"/><path d="M36.5243 43.2708 20.0069 43.2708C19.5882 43.2708 19.2625 43.5965 19.2625 44.0153 19.2625 44.434 19.5882 44.7597 20.0069 44.7597L36.5243 44.7597C36.9431 44.7597 37.2687 44.434 37.2687 44.0153 37.2687 43.5965 36.9431 43.2708 36.5243 43.2708Z" fill="#FFFFFF"/></g></svg>