<svg width="93" height="93" xmlns="http://www.w3.org/2000/svg" xmlns:xlink="http://www.w3.org/1999/xlink" overflow="hidden"><defs><clipPath id="clip0"><rect x="0" y="0" width="93" height="93"/></clipPath></defs><g clip-path="url(#clip0)"><path d="M46.5 0C72.1812 0 93 20.8188 93 46.5L93 46.5C93 72.1812 72.1812 93 46.5 93L46.5 93C20.8188 93 3.8147e-06 72.1812 3.8147e-06 46.5L3.8147e-06 46.5C3.8147e-06 20.8188 20.8188 3.8147e-06 46.5 3.8147e-06Z"/><path d="M34.5753 22.1732 58.3889 22.1732 58.3889 39.637 34.5753 39.637Z" stroke="#000000" stroke-width="0.875304" fill="#FFFFFF"/><path d="M62.6491 46.5001 59.2266 42.6724 33.7377 42.6724 30.3153 46.5001Z" stroke="#000000" stroke-width="0.875304" fill="#55B047"/><path d="M22.1732 64.9639 28.0005 64.9639 28.0005 70.7912 22.1732 70.7912Z" stroke="#000000" stroke-width="0.875304" fill="#00A1E4"/><path d="M43.573 64.9639 49.4003 64.9639 49.4003 70.7912 43.573 70.7912Z" stroke="#000000" stroke-width="0.875304" fill="#55B047"/><path d="M64.9639 64.9639 70.7912 64.9639 70.7912 70.7912 64.9639 70.7912Z" stroke="#000000" stroke-width="0.875304" fill="#00A1E4"/><path d="M72.3132 61.9286 69.4041 61.9286 69.4041 56.2724C69.4041 55.4348 68.7286 54.7504 67.882 54.7504L48.0043 54.7504 48.0043 49.5355 66.0446 49.5355C66.648 49.5355 67.1884 49.1843 67.4317 48.6439 67.6748 48.0945 67.5848 47.464 67.1886 47.0046L61.4333 40.5829 61.4333 20.6691C61.4332 19.8315 60.7578 19.147 59.9111 19.147L33.0532 19.147C32.2156 19.147 31.5311 19.8224 31.5311 20.6691L31.5311 40.5827 25.7939 47.0225C25.3976 47.4727 25.2984 48.1122 25.5326 48.6617 25.7758 49.2111 26.3162 49.5534 26.9197 49.5534L44.9601 49.5534 44.9601 54.7682 25.0914 54.7682C24.2538 54.7682 23.5693 55.4436 23.5693 56.2903L23.5693 61.9466 20.6691 61.9466C19.8315 61.9466 19.147 62.622 19.147 63.4687L19.147 72.3312C19.147 73.1688 19.8224 73.8533 20.6691 73.8533L29.5316 73.8533C30.3692 73.8533 31.0537 73.1779 31.0537 72.3312L31.0537 63.4687C31.0537 62.6311 30.3783 61.9466 29.5316 61.9466L26.6226 61.9466 26.6226 57.8125 44.9781 57.8125 44.9781 61.9466 42.0689 61.9466C41.2313 61.9466 40.5468 62.622 40.5468 63.4687L40.5468 72.3312C40.5468 73.1688 41.2222 73.8533 42.0689 73.8533L50.9314 73.8533C51.769 73.8533 52.4535 73.1779 52.4535 72.3312L52.4535 63.4687C52.4535 62.6311 51.7781 61.9466 50.9314 61.9466L48.0222 61.9466 48.0222 57.8125 66.3779 57.8125 66.3779 61.9466 63.4687 61.9466C62.6311 61.9466 61.9466 62.622 61.9466 63.4687L61.9466 72.3312C61.9466 73.1688 62.622 73.8533 63.4687 73.8533L72.3312 73.8533C73.1688 73.8533 73.8533 73.1779 73.8533 72.3312L73.8533 63.4687C73.8264 62.6131 73.1508 61.9286 72.3132 61.9286ZM28.0005 70.7912 22.1732 70.7912 22.1732 64.9639 28.0005 64.9639C28.0005 64.9639 28.0005 70.7912 28.0005 70.7912ZM34.5753 22.1732 58.3889 22.1732 58.3889 39.6372 34.5753 39.6372 34.5753 22.1732ZM59.2266 42.6724 62.6492 46.5092 30.3153 46.5092 33.7379 42.6724 59.2266 42.6724ZM49.3913 70.7912 43.582 70.7912 43.582 64.9639 49.3913 64.9639 49.3913 70.7912ZM70.7912 70.7912 64.9639 70.7912 64.9639 64.9639 70.7912 64.9639 70.7912 70.7912Z" stroke="#000000" stroke-width="0.875304" fill="#194F82"/><path d="M37.6106 25.2084 37.6106 26.0821 42.6723 26.0821C43.5099 26.0821 44.1944 26.7576 44.1944 27.6042 44.1944 28.4418 43.5189 29.1263 42.6723 29.1263L37.6106 29.1263 37.6106 32.1616 39.637 32.1616C40.4746 32.1616 41.1591 32.837 41.1591 33.6837 41.1591 34.5213 40.4837 35.2057 39.637 35.2057L37.6106 35.2057 37.6106 36.6018 55.3538 36.6018 55.3538 25.2084 37.6106 25.2084Z" stroke="#000000" stroke-width="0.875304" fill="#00A1E4"/></g></svg>