<svg width="82" height="82" xmlns="http://www.w3.org/2000/svg" xmlns:xlink="http://www.w3.org/1999/xlink" overflow="hidden"><defs><clipPath id="clip0"><rect x="0" y="0" width="82" height="82"/></clipPath></defs><g clip-path="url(#clip0)"><path d="M41 0C63.6437 0 82 18.3563 82 41L82 41C82 63.6437 63.6437 82 41 82L41 82C18.3563 82 0 63.6437 0 41L0 41C0 18.3563 18.3563 0 41 0Z"/><path d="M59.5069 37.1865 53.8796 37.1865C52.7003 37.1865 51.7442 36.2304 51.7442 35.0511 51.7442 33.8718 52.7003 32.9157 53.8796 32.9157L59.5069 32.9157C60.6861 32.9157 61.6423 33.8718 61.6423 35.0511 61.6423 36.2304 60.6861 37.1865 59.5069 37.1865Z" fill="#AEB6BD"/><path d="M65.9886 63.7655C64.8094 63.7655 63.8532 62.8094 63.8532 61.6301L63.8532 57.0966C63.8532 55.9174 64.8094 54.9612 65.9886 54.9612 67.1679 54.9612 68.1241 55.9174 68.1241 57.0966L68.1241 61.6301C68.1241 62.8094 67.1679 63.7655 65.9886 63.7655Z" fill="#AEB6BD"/><path d="M59.5069 63.7655C58.3276 63.7655 57.3714 62.8094 57.3714 61.6301L57.3714 57.0966C57.3714 55.9174 58.3276 54.9612 59.5069 54.9612 60.6861 54.9612 61.6423 55.9174 61.6423 57.0966L61.6423 61.6301C61.6423 62.8094 60.6861 63.7655 59.5069 63.7655Z" fill="#AEB6BD"/><path d="M65.9886 59.2321 59.5069 59.2321C58.3276 59.2321 57.3714 58.2759 57.3714 57.0966L57.3714 35.0511C57.3714 33.8718 58.3276 32.9157 59.5069 32.9157L59.5881 32.9157C64.295 32.9157 68.1241 36.7449 68.1241 41.4515L68.1241 57.0964C68.1241 58.2761 67.1679 59.2321 65.9886 59.2321Z" fill="#CDD6E0"/><path d="M55.1842 20.7197C54.005 20.7197 53.0488 19.7635 53.0488 18.5843L53.0488 8.96875C53.0488 7.78947 54.005 6.83333 55.1842 6.83333 56.3635 6.83333 57.3197 7.78947 57.3197 8.96875L57.3197 18.5843C57.3197 19.7637 56.3637 20.7197 55.1842 20.7197Z" fill="#00A1E4"/><path d="M55.1842 27.0721 49.3076 27.0721C48.1283 27.0721 47.1722 26.116 47.1722 24.9367L47.1722 18.5843C47.1722 17.405 48.1283 16.4488 49.3076 16.4488L55.1842 16.4488C56.3635 16.4488 57.3197 17.405 57.3197 18.5843L57.3197 24.9367C57.3197 26.116 56.3637 27.0721 55.1842 27.0721Z" fill="#AEB6BD"/><path d="M53.8795 68.5262 45.9422 68.5262C44.7629 68.5262 43.8067 67.5701 43.8067 66.3908L43.8067 53.1101C43.8067 51.9308 44.7629 50.9747 45.9422 50.9747L53.8795 50.9747C55.0588 50.9747 56.0149 51.9308 56.0149 53.1101L56.0149 66.3908C56.0149 67.5703 55.0589 68.5262 53.8795 68.5262Z" fill="#AEB6BD"/><path d="M55.4335 75.1667 44.3884 75.1667C43.2091 75.1667 42.253 74.2105 42.253 73.0313L42.253 66.3908C42.253 65.2115 43.2091 64.2554 44.3884 64.2554L55.4335 64.2554C56.6128 64.2554 57.569 65.2115 57.569 66.3908L57.569 73.0313C57.569 74.2105 56.6128 75.1667 55.4335 75.1667Z" fill="#9BA2A8"/><path d="M26.8158 20.7197C25.6365 20.7197 24.6803 19.7635 24.6803 18.5843L24.6803 8.96875C24.6803 7.78947 25.6365 6.83333 26.8158 6.83333 27.995 6.83333 28.9512 7.78947 28.9512 8.96875L28.9512 18.5843C28.9512 19.7637 27.995 20.7197 26.8158 20.7197Z" fill="#55B047"/><path d="M32.6926 27.0721 26.8159 27.0721C25.6366 27.0721 24.6805 26.116 24.6805 24.9367L24.6805 18.5843C24.6805 17.405 25.6366 16.4488 26.8159 16.4488L32.6926 16.4488C33.8718 16.4488 34.828 17.405 34.828 18.5843L34.828 24.9367C34.828 26.116 33.8718 27.0721 32.6926 27.0721Z" fill="#CDD6E0"/><path d="M36.0578 68.5262 28.1205 68.5262C26.9412 68.5262 25.9851 67.5701 25.9851 66.3908L25.9851 53.1101C25.9851 51.9308 26.9412 50.9747 28.1205 50.9747L36.0578 50.9747C37.2371 50.9747 38.1933 51.9308 38.1933 53.1101L38.1933 66.3908C38.1933 67.5703 37.2371 68.5262 36.0578 68.5262Z" fill="#CDD6E0"/><path d="M41 37.1865C39.8207 37.1865 38.8646 36.2304 38.8646 35.0511L38.8646 28.9616C38.8646 27.7823 39.8207 26.8262 41 26.8262 42.1793 26.8262 43.1354 27.7823 43.1354 28.9616L43.1354 35.0511C43.1354 36.2307 42.1793 37.1865 41 37.1865Z" fill="#CDD6E0"/><path d="M41 26.8263 41 37.1867C42.1793 37.1867 43.1354 36.2305 43.1354 35.0513L43.1354 28.9617C43.1354 27.7823 42.1793 26.8263 41 26.8263Z" fill="#AEB6BD"/><path d="M28.1205 37.1865 22.4933 37.1865C21.314 37.1865 20.3579 36.2304 20.3579 35.0511 20.3579 33.8718 21.314 32.9157 22.4933 32.9157L28.1205 32.9157C29.2998 32.9157 30.2559 33.8718 30.2559 35.0511 30.2559 36.2304 29.2998 37.1865 28.1205 37.1865Z" fill="#CDD6E0"/><path d="M49.3074 31.0971 32.6926 31.0971C31.5133 31.0971 30.5571 30.141 30.5571 28.9617L30.5571 14.5593C30.5571 13.38 31.5133 12.4239 32.6926 12.4239L49.3077 12.4239C50.487 12.4239 51.4431 13.38 51.4431 14.5593L51.4431 28.9617C51.4429 30.1411 50.487 31.0971 49.3074 31.0971Z" fill="#F2F2F2"/><path d="M49.3074 12.4239 41 12.4239 41 31.0971 49.3074 31.0971C50.4867 31.0971 51.4429 30.141 51.4429 28.9617L51.4429 14.5593C51.4429 13.38 50.487 12.4239 49.3074 12.4239Z" fill="#CDD6E0"/><path d="M53.8795 55.2456 28.1205 55.2456C26.9412 55.2456 25.9851 54.2895 25.9851 53.1102L25.9851 35.0511C25.9851 33.8718 26.9412 32.9157 28.1205 32.9157L53.8795 32.9157C55.0588 32.9157 56.0149 33.8718 56.0149 35.0511L56.0149 53.1102C56.0149 54.2895 55.0589 55.2456 53.8795 55.2456Z" fill="#F2F2F2"/><path d="M53.8795 32.9157 41 32.9157 41 55.2456 53.8795 55.2456C55.0588 55.2456 56.0149 54.2895 56.0149 53.1102L56.0149 35.0511C56.0149 33.8718 55.0589 32.9157 53.8795 32.9157Z" fill="#CDD6E0"/><path d="M16.0114 63.7655C14.8321 63.7655 13.8759 62.8094 13.8759 61.6301L13.8759 57.0966C13.8759 55.9174 14.8321 54.9612 16.0114 54.9612 17.1906 54.9612 18.1468 55.9174 18.1468 57.0966L18.1468 61.6301C18.1468 62.8094 17.1906 63.7655 16.0114 63.7655Z" fill="#CDD6E0"/><path d="M22.4931 63.7655C21.3139 63.7655 20.3577 62.8094 20.3577 61.6301L20.3577 57.0966C20.3577 55.9174 21.3139 54.9612 22.4931 54.9612 23.6724 54.9612 24.6286 55.9174 24.6286 57.0966L24.6286 61.6301C24.6286 62.8094 23.6726 63.7655 22.4931 63.7655Z" fill="#CDD6E0"/><path d="M40.9996 46.2162C39.8203 46.2162 38.8642 45.26 38.8642 44.0807L38.8642 40.988C38.8642 39.8087 39.8203 38.8526 40.9996 38.8526 42.1789 38.8526 43.135 39.8087 43.135 40.988L43.135 44.0807C43.135 45.26 42.1789 46.2162 40.9996 46.2162Z" fill="#55B047"/><path d="M34.6401 46.2162C33.4608 46.2162 32.5046 45.26 32.5046 44.0807L32.5046 40.988C32.5046 39.8087 33.4608 38.8526 34.6401 38.8526 35.8193 38.8526 36.7755 39.8087 36.7755 40.988L36.7755 44.0807C36.7755 45.26 35.8193 46.2162 34.6401 46.2162Z" fill="#55B047"/><path d="M22.4931 59.2321 16.0114 59.2321C14.8321 59.2321 13.8759 58.2759 13.8759 57.0966L13.8759 41.4518C13.8759 36.745 17.705 32.916 22.4119 32.916L22.4931 32.916C23.6724 32.916 24.6286 33.8721 24.6286 35.0514L24.6286 57.0969C24.6286 58.2761 23.6726 59.2321 22.4931 59.2321Z" fill="#F2F2F2"/><path d="M37.6116 75.1667 26.5665 75.1667C25.3872 75.1667 24.431 74.2105 24.431 73.0313L24.431 66.3908C24.431 65.2115 25.3872 64.2554 26.5665 64.2554L37.6116 64.2554C38.7909 64.2554 39.747 65.2115 39.747 66.3908L39.747 73.0313C39.747 74.2105 38.791 75.1667 37.6116 75.1667Z" fill="#AEB6BD"/><path d="M41 38.8526 41 46.216C42.1791 46.2158 43.135 45.2598 43.135 44.0806L43.135 40.9879C43.135 39.8087 42.1791 38.8527 41 38.8526Z" fill="#00A1E4"/><path d="M47.0734 46.2162C45.8941 46.2162 44.938 45.26 44.938 44.0807L44.938 40.988C44.938 39.8087 45.8941 38.8526 47.0734 38.8526 48.2527 38.8526 49.2088 39.8087 49.2088 40.988L49.2088 44.0807C49.2088 45.26 48.2527 46.2162 47.0734 46.2162Z" fill="#00A1E4"/></g></svg>