<svg width="61" height="61" xmlns="http://www.w3.org/2000/svg" xmlns:xlink="http://www.w3.org/1999/xlink" overflow="hidden"><defs><clipPath id="clip0"><rect x="0" y="0" width="61" height="61"/></clipPath></defs><g clip-path="url(#clip0)"><path d="M53.375 53.375 53.375 40.6667 55.9167 40.6667 55.9167 55.9167 40.6667 55.9167 40.6667 53.375ZM7.625 53.375 7.625 40.6667 5.08333 40.6667 5.08333 55.9167 20.3333 55.9167 20.3333 53.375ZM20.3333 7.625 20.3333 5.08333 5.08333 5.08333 5.08333 20.3333 7.625 20.3333 7.625 7.625ZM53.375 7.625 53.375 20.3333 55.9167 20.3333 55.9167 5.08333 40.6667 5.08333 40.6667 7.625ZM46.6498 21.2331 44.8528 19.4361 26.6875 37.5989 18.6914 29.6003 16.8945 31.3972 26.6875 41.1928Z"/></g></svg>