<svg width="97" height="97" xmlns="http://www.w3.org/2000/svg" xmlns:xlink="http://www.w3.org/1999/xlink" overflow="hidden"><defs><clipPath id="clip0"><rect x="0" y="0" width="97" height="97"/></clipPath></defs><g clip-path="url(#clip0)"><path d="M48.5 1.90735e-06C75.2858 1.90735e-06 97 21.7142 97 48.5L97 48.5C97 75.2858 75.2858 97 48.5 97L48.5 97C21.7142 97 1.90735e-06 75.2858 1.90735e-06 48.5L1.90735e-06 48.5C1.90735e-06 21.7142 21.7142 1.90735e-06 48.5 1.90735e-06Z"/><path d="M49.4933 42.2217 45.3685 44.603C44.4248 45.1493 43.2174 44.8276 42.6708 43.8841 42.4902 43.5718 42.4043 43.2311 42.4046 42.8946L42.4006 42.8946 42.4006 38.1318 42.4006 33.3692C42.4006 32.2763 43.2862 31.3903 44.3791 31.3903 44.7887 31.3903 45.1694 31.5147 45.4846 31.7278L49.4931 34.0421 49.5946 34.1052 53.6102 36.4235C54.5538 36.9655 54.8791 38.1701 54.3368 39.1135 54.1517 39.4357 53.8893 39.6858 53.5864 39.8538L49.4911 42.2185 49.4933 42.2217 49.4933 42.2217ZM75.0899 21.2455 21.91 21.2455C19.7163 21.2455 17.9218 23.04 17.9218 25.2335L17.9218 55.0146 79.0784 55.0146 79.0784 25.2335C79.0784 23.0399 77.2837 21.2455 75.0899 21.2455Z" stroke="#000000" stroke-width="0.000638157" fill="#ABB8B9"/><path d="M45.3685 44.6031 49.4933 42.2219 49.4913 42.2186 53.5866 39.854C53.8893 39.6861 54.1518 39.4358 54.3369 39.1136 54.8792 38.1701 54.5539 36.9657 53.6104 36.4236L49.5947 34.1053 49.4933 34.0422 45.4847 31.7279C45.1695 31.5148 44.7888 31.3904 44.3793 31.3904 43.2862 31.3904 42.4007 32.2766 42.4007 33.3693L42.4007 38.1319 42.4007 42.8947 42.4047 42.8947C42.4045 43.2312 42.4902 43.572 42.671 43.8842 43.2175 44.8275 44.4249 45.1494 45.3685 44.6031Z" stroke="#000000" stroke-width="0.000638157" fill="#55B047"/><path d="M79.0784 55.0144 17.9216 55.0144 17.9216 59.8005C17.9216 61.994 19.7162 63.7887 21.9099 63.7887L40.6621 63.7887 56.3376 63.7887 75.0897 63.7887C77.2834 63.7887 79.0781 61.994 79.0781 59.8005L79.0781 55.0144Z" stroke="#000000" stroke-width="0.000638157" fill="#00A1E4"/><path d="M56.3377 63.7889 40.6623 63.7889 39.3327 70.4364 57.6672 70.4364Z" stroke="#000000" stroke-width="0.000638157" fill="#00A1E4"/><path d="M57.6672 70.4364 39.3327 70.4364 37.864 70.4364C36.4016 70.4364 35.2051 71.6328 35.2051 73.0954L35.2051 75.7546 61.7946 75.7546 61.7946 73.0953C61.7946 71.6327 60.5981 70.4363 59.1358 70.4363L57.6672 70.4363Z" stroke="#000000" stroke-width="0.000638157" fill="#00A1E4"/><path d="M75.0899 19.9159 21.91 19.9159C18.9776 19.9159 16.5921 22.3014 16.5921 25.2335L16.5921 59.8005C16.5921 62.7328 18.9776 65.1184 21.91 65.1184L39.0404 65.1184 38.2429 69.1066 37.8641 69.1066C35.6649 69.1066 33.8757 70.8959 33.8757 73.0951L33.8757 75.7543C33.8757 76.4887 34.471 77.084 35.2053 77.084L61.7946 77.084C62.5289 77.084 63.1242 76.4887 63.1242 75.7543L63.1242 73.0951C63.1242 70.8959 61.335 69.1066 59.1358 69.1066L58.757 69.1066 57.9594 65.1184 75.0899 65.1184C78.0222 65.1184 80.4079 62.7328 80.4079 59.8005L80.4079 25.2335C80.4079 22.3014 78.0222 19.9159 75.0899 19.9159ZM21.91 22.5751 75.09 22.5751C76.556 22.5751 77.7488 23.7676 77.7488 25.2335L77.7488 53.6849 19.2513 53.6849 19.2513 25.2335C19.2513 23.7676 20.444 22.5751 21.91 22.5751ZM60.4651 73.0951 60.4651 74.4247 36.5348 74.4247 36.5348 73.0951C36.5348 72.3621 37.1309 71.7658 37.864 71.7658L39.3327 71.7658 57.667 71.7658C57.6682 71.7657 57.6689 71.7657 57.6697 71.7658L59.1358 71.7658C59.8687 71.766 60.4651 72.3622 60.4651 73.0951ZM56.0452 69.1068 40.9547 69.1068 41.7521 65.1185 55.2475 65.1185 56.0452 69.1068ZM75.0899 62.4593 56.3377 62.4593 40.6623 62.4593 21.91 62.4593C20.444 62.4593 19.2513 61.2665 19.2513 59.8006L19.2513 56.3442 77.7487 56.3442 77.7487 59.8006C77.7487 61.2665 76.5559 62.4593 75.0899 62.4593Z" stroke="#000000" stroke-width="0.000638157" fill="#000003"/><path d="M41.5201 44.5504C42.1089 45.5671 43.2052 46.1986 44.3809 46.1986 44.96 46.1986 45.5318 46.0448 46.0334 45.7544L50.158 43.3732C50.1879 43.356 50.2167 43.3377 50.2448 43.3186L54.2427 41.0104C54.7614 40.72 55.1927 40.2933 55.4897 39.7762 55.9291 39.0119 56.0443 38.1223 55.8145 37.2714 55.5847 36.4204 55.037 35.7098 54.2752 35.2721L50.2901 32.9715C50.2463 32.9433 50.2022 32.9162 50.1578 32.8907L46.1851 30.5971C45.6475 30.2459 45.0243 30.0607 44.3791 30.0607 42.5548 30.0607 41.0707 31.5449 41.0707 33.3693L41.0707 42.8947C41.0707 42.9412 41.0731 42.9874 41.0779 43.0328 41.1001 43.565 41.2518 44.0867 41.5201 44.5504ZM43.7299 33.3693C43.7299 33.0112 44.0211 32.7199 44.3791 32.7199 44.5434 32.7199 44.6662 32.7795 44.7402 32.8296 44.7662 32.8472 44.7927 32.8638 44.8199 32.8793L48.8299 35.1945C48.8411 35.2009 48.8516 35.2079 48.8621 35.2147 48.8843 35.2293 48.9068 35.2433 48.9299 35.2566L52.948 37.5764C53.1481 37.6915 53.2214 37.8691 53.2472 37.9647 53.273 38.0603 53.2991 38.2507 53.1837 38.4513 53.1248 38.554 53.0434 38.6346 52.9418 38.6908 52.9351 38.6946 52.9283 38.6984 52.9219 38.7023L48.8266 41.0666C48.7966 41.0839 48.7678 41.1021 48.7397 41.1212L44.7025 43.4522C44.6025 43.5099 44.4946 43.5393 44.381 43.5393 44.1473 43.5393 43.9382 43.419 43.8216 43.2179 43.7634 43.1177 43.7341 43.0091 43.7343 42.8954 43.7343 42.8595 43.7328 42.8239 43.73 42.7884L43.73 33.3692 43.7299 33.3692Z" stroke="#000000" stroke-width="0.000638157" fill="#000003"/><path d="M23.2393 41.61C22.505 41.61 21.9098 42.2053 21.9098 42.9396L21.9098 49.6968C21.9098 50.4312 22.5052 51.0263 23.2393 51.0263 23.9737 51.0263 24.5688 50.4311 24.5688 49.6968L24.5688 42.9396C24.569 42.2053 23.9738 41.61 23.2393 41.61Z" stroke="#000000" stroke-width="0.000638157" fill="#000003"/><path d="M23.239 40.4497C23.9734 40.4497 24.5686 39.8545 24.5686 39.1202L24.5686 39.0885C24.5686 38.3542 23.9733 37.759 23.239 37.759 22.5048 37.759 21.9095 38.3543 21.9095 39.0885L21.9095 39.1202C21.9094 39.8543 22.5048 40.4497 23.239 40.4497Z" stroke="#000000" stroke-width="0.000638157" fill="#000003"/><path d="M73.7602 34.6501C74.4946 34.6501 75.0897 34.0548 75.0897 33.3206L75.0897 26.5632C75.0897 25.8288 74.4945 25.2337 73.7602 25.2337 73.026 25.2337 72.4307 25.8289 72.4307 26.5632L72.4307 33.3204C72.4305 34.0548 73.0258 34.6501 73.7602 34.6501Z" stroke="#000000" stroke-width="0.000638157" fill="#000003"/><path d="M73.76 38.5012C74.4943 38.5012 75.0895 37.906 75.0895 37.1717L75.0895 37.1398C75.0895 36.4054 74.4942 35.8103 73.76 35.8103 73.0256 35.8103 72.4303 36.4055 72.4303 37.1398L72.4303 37.1717C72.4303 37.9061 73.0256 38.5012 73.76 38.5012Z" stroke="#000000" stroke-width="0.000638157" fill="#000003"/></g></svg>