<svg width="80" height="80" xmlns="http://www.w3.org/2000/svg" xmlns:xlink="http://www.w3.org/1999/xlink" overflow="hidden"><defs><clipPath id="clip0"><rect x="0" y="0" width="80" height="80"/></clipPath></defs><g clip-path="url(#clip0)"><path d="M40-4.76837e-07C62.0914-4.76837e-07 80 17.9086 80 40L80 40C80 62.0914 62.0914 80 40 80L40 80C17.9086 80-4.76837e-07 62.0914-4.76837e-07 40L-4.76837e-07 40C-4.76837e-07 17.9086 17.9086-4.76837e-07 40-4.76837e-07Z"/><path d="M50.1667 25.6111 48.6667 25.6111 48.6667 30.5556 50.1667 30.5556C51 30.5556 51.7222 30 51.7222 29.2778L51.7222 26.8333C51.7222 26.1667 51.0556 25.6111 50.1667 25.6111Z" fill="#00A1E4"/><path d="M28.2222 26.8333 28.2222 29.2778C28.2222 29.9444 28.8889 30.5556 29.7778 30.5556L31.2778 30.5556 31.2778 25.6111 29.7778 25.6111C28.8889 25.6111 28.2222 26.1667 28.2222 26.8333Z" fill="#00A1E4"/><path d="M59.7778 63.7222 20.1667 63.7222 20.1667 47.7778C20.1667 45.2222 22 42.9445 24.7222 42.1111L36.1111 38.6667C38.6667 37.8889 41.3333 37.8889 43.7778 38.6667L55.1667 42.1111C57.8889 42.9445 59.7222 45.2222 59.7222 47.7778L59.7778 63.7222 59.7778 63.7222Z" fill="#55B047"/><path d="M42.6111 50 49.2222 50 49.2222 51.4444 42.6111 51.4444Z" fill="#FFD551"/><path d="M35.7778 31.7222 44.1667 31.7222 44.1667 43.3889 35.7778 43.3889Z" fill="#EDBF9A"/><path d="M49.5 25.9444C49.5 32.3889 45.2222 38.9444 40 38.9444 34.7778 38.9444 30.4444 32.3333 30.4444 25.9444 30.4444 19.5556 34.7222 15.6111 40 15.6111 45.2778 15.6111 49.5 19.5 49.5 25.9444Z" fill="#FFD9B6"/><path d="M29.2778 52.1667 29 52.1667C28.7222 52.1667 28.4444 52.3889 28.4444 52.7222L28.4444 63.6667 29.8889 63.6667 29.8889 52.7778C29.8333 52.4445 29.5556 52.1667 29.2778 52.1667Z" fill="#477E3E"/><path d="M51 52.1667 50.7222 52.1667C50.4445 52.1667 50.1667 52.3889 50.1667 52.7222L50.1667 63.6667 51.6111 63.6667 51.6111 52.7778C51.5556 52.4445 51.3333 52.1667 51 52.1667Z" fill="#477E3E"/><path d="M44.1667 39.5 40 43.2778 35.7778 39.5 35.1667 38.9444 30.7222 40.2778 37.3333 46.2778 40 43.3889 42.6111 46.2778 49.2778 40.2778 44.7778 38.9444Z" fill="#477E3E"/><path d="M43.7778 34.6111C43.1111 34.6111 42.9445 34.6111 42.1111 34.5556L41.2778 34.5556 41.2778 33.8889 42.1111 33.8889C45.9444 34 47.2222 34.0556 48.3889 33.0556 49.6111 32.0556 49.3889 29.5 49.3889 29.4444L50.0556 29.3889C50.0556 29.5 50.3333 32.3333 48.8333 33.5556 47.7222 34.5 46.2778 34.6111 43.7778 34.6111Z" fill="#00A1E4"/><path d="M42.8333 35.3889 40.5556 35.3889C40.2222 35.3889 39.9444 35.1111 39.9444 34.7778L39.9444 33.9444C39.9444 33.6111 40.2222 33.3333 40.5556 33.3333L42.8333 33.3333C43.1667 33.3333 43.4444 33.6111 43.4444 33.9444L43.4444 34.7778C43.5 35.0556 43.2222 35.3889 42.8333 35.3889Z" fill="#55B047"/><path d="M49.5 19.8333C49.5 16.8889 48 16.7778 48 16.7778L45.6667 16.5C45.2222 16.4444 44.8889 16.1111 44.8333 15.6667 44.5556 14.1667 43.4444 14.3333 43.4444 14.3333 43.4444 14.3333 35.7222 14.3333 33.2778 15.2778 30.4444 16.3889 29.7778 18.3333 29.7778 19.9444 29.7778 23.2222 30.6111 29.1111 31.1111 30.4444 31.2222 30.7222 31.7222 30.6667 31.7222 30.3333L31.7222 25.9444C31.7222 25.6667 31.9444 25.4444 32.2222 25.4444L43 25.4444C43.2778 25.4444 43.5 25.2222 43.5 24.9444L43.5 23.8889C43.5 23.6111 43.7222 23.3889 44 23.3889 44.2778 23.3889 44.4444 23.6111 44.4444 23.8889L44.4444 24.9444C44.4444 25.2222 44.6667 25.4444 44.9444 25.4444L47.7222 25.4444C48 25.4444 48.2222 25.6667 48.2222 25.9444L48.2222 30.1667C48.2222 30.5 48.8333 30.5 48.9444 30.2222 49.3333 28.8333 49.5556 27.4444 49.5556 26 49.5556 25.3889 49.5 21.5556 49.5 19.8333Z" fill="#3F3F3F"/><path d="M24.7222 45.1667 55.2222 45.1667C56.2778 45.1667 57.1111 46.0556 57 47.1111L55.8889 64.3333 24.1111 64.3333 23 47.1111C22.8889 46.0556 23.6667 45.1667 24.7222 45.1667Z" fill="#FFFFFF"/><path d="M42 60C42 59.1111 41.4444 58.3889 40.6667 58.1111L40.6667 59.6667C40.6667 60 40.4444 60.3333 40.0556 60.3333 39.6667 60.3889 39.2778 60.0556 39.2778 59.6667L39.2778 58.1111C38.4444 58.3889 37.8889 59.2222 37.9444 60.1667 38 60.9444 38.5556 61.6111 39.2778 61.8889L39.2778 63.9444 40.6111 63.9444 40.6111 61.8889C41.4444 61.6667 42 60.8889 42 60Z" fill="#80B2F9"/><path d="M45.8333 61.6111 47.1667 61.6111 47.1667 58.6111 45.8333 58.6111C45.6667 58.0556 45.5 57.5 45.1667 57.0556L46.1111 56.1111 44 53.9444 43.0556 54.8889C42.5556 54.6111 42.0556 54.3889 41.5 54.2222L41.5 52.8889 38.5 52.8889 38.5 54.2222C37.9444 54.3889 37.4444 54.5556 36.9444 54.8889L36 53.9444 33.8889 56.0556 34.8333 57C34.5556 57.5 34.3333 58 34.1667 58.5556L32.8333 58.5556 32.8333 61.5556 34.1667 61.5556C34.2778 62.0556 34.5 62.5 34.7222 62.9445 34.7222 63 34.7778 63.0556 34.8333 63.1111L33.8889 64.0556 35.5 65.6667 36.5 65.6667 36.9444 65.2222C37.2222 65.3889 37.5556 65.5556 37.8333 65.6667L42.1667 65.6667C42.5 65.5556 42.7778 65.3889 43.0556 65.2222L43.5 65.6667 44.5 65.6667 46.1667 64.0556 45.2222 63.1111C45.2778 63.0556 45.2778 63 45.3333 62.8889 45.5556 62.5 45.7222 62.0556 45.8333 61.6111ZM40.6667 63.3333C40.4444 63.3889 40.2222 63.3889 40 63.3889 39.7778 63.3889 39.5556 63.3889 39.3333 63.3333 39 63.2778 38.6667 63.1111 38.3333 62.9445 37.3333 62.3889 36.6667 61.2778 36.6667 60.0556 36.6667 58.2222 38.1667 56.7222 40 56.7222 41.8333 56.7222 43.3333 58.2222 43.3333 60.0556 43.3333 61.2778 42.6667 62.3333 41.6667 62.9445 41.3889 63.1111 41 63.2778 40.6667 63.3333Z" fill="#80B2F9"/><path d="M62.9445 64.3333C62.9445 64.7222 62.7778 65.0556 62.5556 65.3333 62.3333 65.6111 61.9444 65.7222 61.5556 65.7222L18.4444 65.7222C17.6667 65.7222 17.0556 65.1111 17.0556 64.3333 17.0556 63.9444 17.2222 63.6111 17.4444 63.3333 17.6667 63.0556 18.0556 62.9445 18.4444 62.9445L61.5556 62.9445C62.3333 62.9445 62.9445 63.5556 62.9445 64.3333Z" fill="#00A1E4"/></g></svg>