<svg width="97" height="97" xmlns="http://www.w3.org/2000/svg" xmlns:xlink="http://www.w3.org/1999/xlink" overflow="hidden"><defs><clipPath id="clip0"><rect x="0" y="0" width="97" height="97"/></clipPath></defs><g clip-path="url(#clip0)"><path d="M48.5-9.53674e-07C75.2858-9.53674e-07 97 21.7142 97 48.5L97 48.5C97 75.2858 75.2858 97 48.5 97L48.5 97C21.7142 97-9.53674e-07 75.2858-9.53674e-07 48.5L-9.53674e-07 48.5C-9.53674e-07 21.7142 21.7142-9.53674e-07 48.5-9.53674e-07Z"/><path d="M82.0537 45.3472 84.8119 45.3472 84.8119 51.6528 82.0537 51.6528 82.0537 45.3472ZM76.6186 53.499 79.3768 53.499 79.3768 43.501 76.6186 43.501 76.6186 53.499ZM71.2748 58.6705 74.0329 58.6705 74.0329 38.3295 71.2748 38.3295 71.2748 58.6705ZM66.1948 62.661 68.9529 62.661 68.9529 34.5252 66.1948 34.5252 66.1948 62.6542ZM60.7562 55.79 63.5143 55.79 63.5143 41.21 60.7562 41.21 60.7562 55.79ZM55.2314 66.8223 57.9895 66.8223 57.9895 29.5537 55.2227 29.5537 55.2227 66.8223ZM49.7946 72.1659 52.5527 72.1659 52.5527 24.8341 49.7946 24.8341 49.7946 72.1659ZM44.4508 64.8587 47.2089 64.8587 47.2089 32.1412 44.4508 32.1412 44.4508 64.8588ZM38.9225 55.5675 41.6806 55.5675 41.6806 41.7769 38.9225 41.7769 38.9225 55.5675ZM33.5788 52.2801 36.337 52.2801 36.337 44.7078 33.5788 44.7078 33.5788 52.2925ZM28.235 56.3312 30.9931 56.3312 30.9931 40.6634 28.235 40.6634 28.235 56.3363ZM22.9773 63.9156 25.7355 63.9156 25.7355 32.1878 22.9775 32.1878 22.9775 63.9212ZM17.6337 59.0685 20.3918 59.0685 20.3918 37.659 17.6337 37.659 17.6337 59.0739ZM12.1882 53.499 14.9463 53.499 14.9463 43.501 12.1882 43.501 12.1882 53.499Z" fill="#00A1E4"/></g></svg>