<svg version="1.2" xmlns="http://www.w3.org/2000/svg" viewBox="0 0 32 32" width="500" height="500">
	<title>SOTA AI_Logo_Horizontal-ai</title>
	<style>
		.s0 { fill: #51b047 } 
		.s1 { fill: #00a0e3 } 
	</style>
	<g id="Layer 2">
	</g>
	<g id="Layer 1">
		<g id="&lt;Group&gt;">
			<g id="&lt;Group&gt;">
				<g id="&lt;Group&gt;">
				</g>
			</g>
			<g id="&lt;Group&gt;">
				<path id="&lt;Path&gt;" class="s0" d="m299.5 455.1c-8.8 0-16.2-6.2-18-14.5h-47q0 0.3 0 0.6c-0.1 2.2-0.1 5.1 1.6 6.7 2.1 2.2 6.7 2.3 9.2 2.2 6.3-0.2 11.7 0.8 16.1 5.2 7.3 7.2 7.3 18.9 0 26.1-7.2 7.3-18.9 7.3-26.1 0-4.3-4.2-6-10.1-5.2-15.7 0.3-2.4 0-6.9-2.2-9.6-2-2.4-8.8-2-8.8-2l-14.2 0.1v21.2c0 14.6 11.8 26.4 26.4 26.4h54.4q0-0.2 0-0.4v-27.1c0-3.9 3.1-7.1 7-7.1h13.5c3.9 0 7.1 3.2 7.1 7.1v27c12.1-2.4 21.2-13.1 21.2-25.9v-34.8h-17c-1.8 8.3-9.2 14.5-18 14.5z"/>
				<path id="&lt;Path&gt;" class="s1" d="m308.1 372.1h-76.8c-14.6 0-26.4 11.9-26.4 26.5l0.2 20.3c0 0 13.4 0.1 13.4 0.1 2.8 0 8 0.2 9.8-1.5 2.4-2.3 2.2-7.3 2.2-9.6-0.8-5.6 0.9-11.4 5.2-15.7 3.6-3.6 8.3-5.4 13-5.4 4.8 0 9.5 1.8 13.1 5.4 7.2 7.2 7.2 18.9 0 26.1-4.4 4.4-10.2 5.6-16.1 5.2-2.5-0.1-7 0-9.2 2.2-1.8 1.8-2 5.2-1.9 7h46.9c1.8-8.3 9.2-14.5 18-14.5 8.8 0 16.2 6.2 18 14.5h17v-34.1c0-14.6-11.8-26.5-26.4-26.5z"/>
			</g>
		</g>
	</g>
</svg>