<svg xmlns="http://www.w3.org/2000/svg" xmlns:xlink="http://www.w3.org/1999/xlink" width="1720" zoomAndPan="magnify" viewBox="0 0 1290 599.999999" height="800" preserveAspectRatio="xMidYMid meet" version="1.0"><defs><clipPath id="bc2538bdb3"><path d="M 247.371094 0 L 847.371094 0 L 847.371094 600 L 247.371094 600 Z M 247.371094 0 " clip-rule="nonzero"/></clipPath></defs><path fill="#00a1e4" d="M 614.6875 300.054688 C 614.6875 337.199219 584.574219 367.316406 547.425781 367.316406 C 510.277344 367.316406 480.164062 337.199219 480.164062 300.054688 C 480.164062 262.902344 510.277344 232.789062 547.425781 232.789062 C 584.574219 232.789062 614.6875 262.902344 614.6875 300.054688 Z M 465.058594 300.054688 C 465.058594 345.542969 501.9375 382.417969 547.425781 382.417969 C 592.914062 382.417969 629.792969 345.542969 629.792969 300.054688 C 629.792969 254.5625 592.914062 217.6875 547.425781 217.6875 C 501.9375 217.6875 465.058594 254.5625 465.058594 300.054688 " fill-opacity="1" fill-rule="nonzero"/><path fill="#00a1e4" d="M 590.28125 300.054688 C 590.28125 323.71875 571.09375 342.910156 547.425781 342.910156 C 523.757812 342.910156 504.570312 323.71875 504.570312 300.054688 C 504.570312 276.386719 523.757812 257.199219 547.425781 257.199219 C 571.09375 257.199219 590.28125 276.386719 590.28125 300.054688 Z M 494.945312 300.054688 C 494.945312 329.035156 518.441406 352.527344 547.425781 352.527344 C 576.410156 352.527344 599.90625 329.035156 599.90625 300.054688 C 599.90625 271.070312 576.410156 247.574219 547.425781 247.574219 C 518.441406 247.574219 494.945312 271.070312 494.945312 300.054688 " fill-opacity="1" fill-rule="nonzero"/><g clip-path="url(#bc2538bdb3)"><path fill="#00a1e4" d="M 512.625 416.054688 C 510.378906 418.300781 510.378906 421.949219 512.625 424.199219 C 514.875 426.449219 518.519531 426.449219 520.773438 424.199219 C 522.835938 422.132812 522.996094 418.890625 521.269531 416.636719 L 540.980469 396.929688 L 540.980469 380.011719 L 539.449219 380.011719 L 539.449219 396.292969 L 520.1875 415.550781 C 517.929688 413.824219 514.691406 413.992188 512.625 416.054688 Z M 534.214844 503.359375 L 534.214844 418.023438 L 555.660156 396.574219 L 555.660156 380.011719 L 553.363281 380.011719 L 553.363281 395.625 L 531.917969 417.070312 L 531.917969 504.3125 L 546.652344 519.046875 L 546.652344 582.867188 C 542.425781 583.429688 539.164062 587.039062 539.164062 591.417969 C 539.164062 596.191406 543.027344 600.058594 547.800781 600.058594 C 552.574219 600.058594 556.4375 596.191406 556.4375 591.417969 C 556.4375 587.039062 553.175781 583.429688 548.949219 582.867188 L 548.949219 518.097656 Z M 506.1875 560.652344 C 506.1875 556.523438 509.546875 553.164062 513.679688 553.164062 C 517.808594 553.164062 521.167969 556.523438 521.167969 560.652344 C 521.167969 564.785156 517.808594 568.148438 513.679688 568.148438 C 509.546875 568.148438 506.1875 564.785156 506.1875 560.652344 Z M 523.464844 560.652344 C 523.464844 555.648438 519.683594 551.511719 514.824219 550.941406 L 514.824219 469.921875 L 499.25 454.347656 L 499.25 413.421875 L 526.308594 386.363281 L 526.308594 363.917969 C 525.535156 363.664062 524.769531 363.40625 524.011719 363.121094 L 524.011719 385.410156 L 496.953125 412.46875 L 496.953125 455.296875 L 512.53125 470.867188 L 512.53125 550.941406 C 507.671875 551.511719 503.886719 555.648438 503.886719 560.652344 C 503.886719 566.050781 508.28125 570.445312 513.679688 570.445312 C 519.074219 570.445312 523.464844 566.050781 523.464844 560.652344 Z M 467.355469 441.402344 C 467.355469 438.480469 465.179688 436.074219 462.363281 435.699219 L 462.363281 407.390625 L 484.066406 385.695312 L 482.53125 385.0625 L 460.832031 406.761719 L 460.832031 435.699219 C 458.015625 436.074219 455.839844 438.480469 455.839844 441.402344 C 455.839844 444.582031 458.414062 447.160156 461.597656 447.160156 C 464.777344 447.160156 467.355469 444.582031 467.355469 441.402344 Z M 544.75 425.46875 L 544.75 457.140625 C 541.933594 457.519531 539.757812 459.925781 539.757812 462.847656 C 539.757812 466.027344 542.335938 468.605469 545.519531 468.605469 C 548.699219 468.605469 551.277344 466.027344 551.277344 462.847656 C 551.277344 459.925781 549.101562 457.519531 546.285156 457.140625 L 546.285156 426.105469 L 568.824219 403.5625 L 568.824219 380.011719 L 567.292969 380.011719 L 567.292969 402.933594 Z M 454.542969 506.152344 L 475.269531 485.421875 L 475.269531 407.042969 L 497.992188 384.320312 L 497.992188 351.738281 L 504.390625 351.738281 C 503.496094 350.996094 502.632812 350.226562 501.777344 349.441406 L 497.992188 349.441406 L 497.992188 345.652344 C 497.203125 344.796875 496.4375 343.929688 495.691406 343.035156 L 495.691406 349.441406 L 463.15625 349.441406 L 440.4375 372.164062 L 362.054688 372.164062 L 341.328125 392.890625 C 337.941406 390.300781 333.082031 390.550781 329.980469 393.644531 C 326.609375 397.015625 326.609375 402.492188 329.980469 405.859375 C 333.355469 409.234375 338.828125 409.234375 342.199219 405.859375 C 345.296875 402.765625 345.542969 397.902344 342.949219 394.515625 L 363.007812 374.460938 L 441.390625 374.460938 L 464.105469 351.738281 L 495.691406 351.738281 L 495.691406 383.367188 L 472.972656 406.089844 L 472.972656 484.46875 L 452.914062 504.527344 C 449.527344 501.9375 444.667969 502.183594 441.566406 505.277344 C 438.199219 508.652344 438.199219 514.125 441.566406 517.5 C 444.941406 520.867188 450.414062 520.867188 453.789062 517.5 C 456.882812 514.398438 457.128906 509.539062 454.542969 506.152344 Z M 647.878906 115.910156 L 631.230469 132.554688 L 631.230469 178.253906 L 610.550781 198.933594 L 612.847656 199.886719 L 633.527344 179.207031 L 633.527344 133.507812 L 649.5 117.535156 C 652.886719 120.125 657.746094 119.878906 660.847656 116.785156 C 664.21875 113.410156 664.21875 107.9375 660.847656 104.566406 C 657.472656 101.195312 652 101.195312 648.628906 104.566406 C 645.53125 107.664062 645.285156 112.523438 647.878906 115.910156 Z M 808.027344 273.804688 C 812.15625 273.804688 815.519531 277.160156 815.519531 281.292969 C 815.519531 285.425781 812.15625 288.78125 808.027344 288.78125 C 803.894531 288.78125 800.535156 285.425781 800.535156 281.292969 C 800.535156 277.160156 803.894531 273.804688 808.027344 273.804688 Z M 665.972656 265.976562 L 682.4375 282.441406 L 798.316406 282.441406 C 798.882812 287.296875 803.019531 291.078125 808.027344 291.078125 C 813.421875 291.078125 817.816406 286.6875 817.816406 281.292969 C 817.816406 275.894531 813.421875 271.503906 808.027344 271.503906 C 803.019531 271.503906 798.882812 275.285156 798.316406 280.144531 L 683.386719 280.144531 L 666.925781 263.679688 L 603.992188 263.679688 C 604.480469 264.4375 604.957031 265.199219 605.414062 265.976562 Z M 610.550781 401.171875 L 631.230469 421.851562 L 631.230469 467.550781 L 647.878906 484.195312 C 645.285156 487.582031 645.53125 492.441406 648.628906 495.542969 C 652 498.910156 657.472656 498.910156 660.847656 495.542969 C 664.21875 492.167969 664.21875 486.695312 660.847656 483.320312 C 657.746094 480.226562 652.886719 479.980469 649.5 482.574219 L 633.527344 466.601562 L 633.527344 420.898438 L 612.847656 400.21875 Z M 717.042969 353.332031 L 712.085938 358.285156 L 657.058594 358.285156 L 634.085938 335.316406 L 604.707031 335.316406 C 604.386719 335.832031 604.054688 336.339844 603.726562 336.847656 L 633.453125 336.847656 L 656.425781 359.816406 L 712.722656 359.816406 L 718.128906 354.414062 C 720.382812 356.140625 723.625 355.976562 725.6875 353.910156 C 727.941406 351.664062 727.941406 348.015625 725.6875 345.765625 C 723.441406 343.515625 719.792969 343.515625 717.546875 345.765625 C 715.480469 347.832031 715.316406 351.074219 717.042969 353.332031 Z M 830.238281 298.480469 L 765.46875 298.480469 L 750.738281 313.21875 L 665.394531 313.21875 L 643.945312 291.769531 L 627.382812 291.769531 L 627.382812 294.070312 L 642.996094 294.070312 L 664.441406 315.515625 L 751.683594 315.515625 L 766.421875 300.78125 L 830.238281 300.78125 C 830.800781 305.003906 834.414062 308.269531 838.789062 308.269531 C 843.5625 308.269531 847.433594 304.402344 847.433594 299.632812 C 847.433594 294.859375 843.5625 290.992188 838.789062 290.992188 C 834.414062 290.992188 830.800781 294.257812 830.238281 298.480469 Z M 633.066406 363.367188 L 632.433594 364.898438 L 654.132812 386.601562 L 683.070312 386.601562 C 683.445312 389.417969 685.855469 391.59375 688.773438 391.59375 C 691.953125 391.59375 694.53125 389.015625 694.53125 385.835938 C 694.53125 382.65625 691.953125 380.078125 688.773438 380.078125 C 685.855469 380.078125 683.445312 382.253906 683.070312 385.070312 L 654.765625 385.070312 Z M 772.914062 333.753906 C 772.914062 337.886719 769.550781 341.246094 765.417969 341.246094 C 761.289062 341.246094 757.929688 337.886719 757.929688 333.753906 C 757.929688 329.625 761.289062 326.265625 765.417969 326.265625 C 769.550781 326.265625 772.914062 329.625 772.914062 333.753906 Z M 755.707031 332.605469 L 717.292969 332.605469 L 701.714844 348.179688 L 660.792969 348.179688 L 633.734375 321.125 L 627.382812 321.125 L 627.382812 323.421875 L 632.785156 323.421875 L 659.839844 350.480469 L 702.667969 350.480469 L 718.242188 334.902344 L 755.707031 334.902344 C 756.277344 339.757812 760.414062 343.542969 765.417969 343.542969 C 770.816406 343.542969 775.210938 339.152344 775.210938 333.753906 C 775.210938 328.359375 770.816406 323.964844 765.417969 323.964844 C 760.414062 323.964844 756.277344 327.75 755.707031 332.605469 Z M 573.628906 518.046875 C 573.628906 522.179688 570.273438 525.539062 566.140625 525.539062 C 562.007812 525.539062 558.652344 522.179688 558.652344 518.046875 C 558.652344 513.914062 562.007812 510.558594 566.140625 510.558594 C 570.273438 510.558594 573.628906 513.914062 573.628906 518.046875 Z M 583.753906 419.554688 L 583.753906 356.652344 C 582.996094 357.140625 582.230469 357.609375 581.457031 358.066406 L 581.457031 418.601562 L 564.992188 435.066406 L 564.992188 508.335938 C 560.136719 508.90625 556.355469 513.042969 556.355469 518.046875 C 556.355469 523.445312 560.746094 527.835938 566.140625 527.835938 C 571.539062 527.835938 575.925781 523.445312 575.925781 518.046875 C 575.925781 513.042969 572.144531 508.90625 567.289062 508.335938 L 567.289062 436.015625 Z M 603.621094 483.019531 C 603.621094 485.769531 601.382812 488.011719 598.628906 488.011719 C 595.875 488.011719 593.636719 485.769531 593.636719 483.019531 C 593.636719 480.261719 595.875 478.023438 598.628906 478.023438 C 601.382812 478.023438 603.621094 480.261719 603.621094 483.019531 Z M 597.929688 349.441406 L 597.929688 344.457031 C 597.429688 345.027344 596.917969 345.585938 596.398438 346.136719 L 596.398438 349.441406 L 593.074219 349.441406 C 592.21875 350.226562 591.355469 350.996094 590.460938 351.738281 L 596.398438 351.738281 L 596.398438 403.5625 L 613.113281 420.277344 L 613.113281 448.886719 L 597.863281 464.136719 L 597.863281 476.539062 C 594.625 476.921875 592.097656 479.675781 592.097656 483.019531 C 592.097656 486.613281 595.027344 489.542969 598.628906 489.542969 C 602.222656 489.542969 605.152344 486.613281 605.152344 483.019531 C 605.152344 479.675781 602.628906 476.921875 599.394531 476.539062 L 599.394531 464.769531 L 614.640625 449.519531 L 614.640625 419.644531 L 597.929688 402.933594 L 597.929688 351.738281 L 630.742188 351.738281 L 653.460938 374.460938 L 731.84375 374.460938 L 751.898438 394.515625 C 749.308594 397.902344 749.554688 402.765625 752.648438 405.859375 C 756.023438 409.234375 761.496094 409.234375 764.871094 405.859375 C 768.242188 402.492188 768.242188 397.015625 764.871094 393.644531 C 761.769531 390.550781 756.910156 390.300781 753.523438 392.890625 L 732.796875 372.164062 L 654.414062 372.164062 L 631.691406 349.441406 Z M 729.945312 197.933594 L 713.972656 213.902344 L 668.269531 213.902344 L 647.589844 234.582031 L 648.542969 236.878906 L 669.222656 216.203125 L 714.921875 216.203125 L 731.566406 199.554688 C 734.953125 202.148438 739.816406 201.902344 742.914062 198.800781 C 746.285156 195.429688 746.285156 189.960938 742.914062 186.585938 C 739.539062 183.210938 734.070312 183.210938 730.695312 186.585938 C 727.597656 189.683594 727.351562 194.546875 729.945312 197.933594 Z M 491.125 336.847656 C 490.796875 336.339844 490.464844 335.832031 490.144531 335.316406 L 460.765625 335.316406 L 437.792969 358.285156 L 382.765625 358.285156 L 377.808594 353.332031 C 379.535156 351.074219 379.367188 347.832031 377.304688 345.765625 C 375.058594 343.515625 371.410156 343.515625 369.164062 345.765625 C 366.910156 348.015625 366.910156 351.664062 369.164062 353.910156 C 371.226562 355.976562 374.464844 356.140625 376.722656 354.414062 L 382.128906 359.816406 L 438.425781 359.816406 L 461.398438 336.847656 Z M 730.390625 243.8125 C 733.140625 243.8125 735.382812 246.050781 735.382812 248.804688 C 735.382812 251.558594 733.140625 253.796875 730.390625 253.796875 C 727.636719 253.796875 725.398438 251.558594 725.398438 248.804688 C 725.398438 246.050781 727.636719 243.8125 730.390625 243.8125 Z M 593.636719 117.089844 C 593.636719 114.339844 595.875 112.09375 598.628906 112.09375 C 601.382812 112.09375 603.621094 114.339844 603.621094 117.089844 C 603.621094 119.84375 601.382812 122.082031 598.628906 122.082031 C 595.875 122.082031 593.636719 119.84375 593.636719 117.089844 Z M 597.929688 249.5 L 597.929688 197.175781 L 614.640625 180.460938 L 614.640625 150.585938 L 599.394531 135.335938 L 599.394531 123.566406 C 602.628906 123.183594 605.152344 120.429688 605.152344 117.089844 C 605.152344 113.492188 602.222656 110.5625 598.628906 110.5625 C 595.027344 110.5625 592.097656 113.492188 592.097656 117.089844 C 592.097656 120.429688 594.625 123.183594 597.863281 123.566406 L 597.863281 135.96875 L 613.113281 151.21875 L 613.113281 179.828125 L 596.398438 196.542969 L 596.398438 249.5 L 591.773438 249.5 C 592.34375 250.003906 592.90625 250.515625 593.460938 251.035156 L 596.398438 251.035156 L 596.398438 253.96875 C 596.917969 254.523438 597.429688 255.078125 597.929688 255.648438 L 597.929688 251.035156 L 650.9375 251.035156 L 667.652344 234.320312 L 696.257812 234.320312 L 711.507812 249.570312 L 723.910156 249.570312 C 724.292969 252.808594 727.050781 255.328125 730.390625 255.328125 C 733.984375 255.328125 736.914062 252.40625 736.914062 248.804688 C 736.914062 245.207031 733.984375 242.28125 730.390625 242.28125 C 727.050781 242.28125 724.292969 244.800781 723.910156 248.039062 L 712.140625 248.039062 L 696.890625 232.789062 L 667.019531 232.789062 L 650.304688 249.5 Z M 406.078125 380.078125 C 402.898438 380.078125 400.316406 382.65625 400.316406 385.835938 C 400.316406 389.015625 402.898438 391.59375 406.078125 391.59375 C 408.996094 391.59375 411.40625 389.417969 411.78125 386.601562 L 440.71875 386.601562 L 462.417969 364.898438 L 461.785156 363.367188 L 440.082031 385.070312 L 411.78125 385.070312 C 411.40625 382.253906 408.996094 380.078125 406.078125 380.078125 Z M 450.550781 306.453125 L 430.84375 326.15625 C 428.585938 324.429688 425.34375 324.59375 423.28125 326.660156 C 421.03125 328.90625 421.03125 332.558594 423.28125 334.804688 C 425.527344 337.054688 429.175781 337.054688 431.425781 334.804688 C 433.488281 332.738281 433.652344 329.5 431.925781 327.242188 L 451.1875 307.984375 L 469.394531 307.984375 L 469.394531 306.453125 Z M 443.914062 278.609375 L 421.371094 301.148438 L 390.335938 301.148438 C 389.957031 298.332031 387.554688 296.15625 384.632812 296.15625 C 381.453125 296.15625 378.875 298.734375 378.875 301.914062 C 378.875 305.09375 381.453125 307.671875 384.632812 307.671875 C 387.554688 307.671875 389.957031 305.496094 390.335938 302.679688 L 422.007812 302.679688 L 444.546875 280.140625 L 469.394531 280.140625 L 469.394531 278.609375 Z M 489.144531 409.683594 L 512.117188 386.714844 L 512.117188 357.300781 C 511.597656 356.984375 511.089844 356.652344 510.582031 356.320312 L 510.582031 386.082031 L 487.613281 409.050781 L 487.613281 465.351562 L 493.019531 470.757812 C 491.292969 473.015625 491.457031 476.253906 493.519531 478.316406 C 495.769531 480.566406 499.414062 480.566406 501.664062 478.316406 C 503.914062 476.070312 503.914062 472.421875 501.664062 470.171875 C 499.601562 468.109375 496.359375 467.945312 494.101562 469.671875 L 489.144531 464.714844 Z M 501.664062 129.933594 C 503.914062 127.6875 503.914062 124.035156 501.664062 121.789062 C 499.414062 119.539062 495.769531 119.539062 493.519531 121.789062 C 491.457031 123.855469 491.292969 127.089844 493.019531 129.351562 L 487.613281 134.753906 L 487.613281 191.054688 L 510.582031 214.027344 L 510.582031 243.789062 C 511.089844 243.453125 511.597656 243.121094 512.117188 242.804688 L 512.117188 213.394531 L 489.144531 190.421875 L 489.144531 135.390625 L 494.101562 130.4375 C 496.359375 132.164062 499.601562 131.996094 501.664062 129.933594 Z M 539.449219 219.613281 L 540.980469 219.613281 L 540.980469 203.179688 L 521.269531 183.46875 C 522.996094 181.214844 522.835938 177.972656 520.773438 175.910156 C 518.519531 173.65625 514.875 173.65625 512.625 175.910156 C 510.378906 178.15625 510.378906 181.804688 512.625 184.050781 C 514.691406 186.117188 517.929688 186.28125 520.1875 184.554688 L 539.449219 203.816406 Z M 650.9375 278.609375 L 627.382812 278.609375 L 627.382812 280.140625 L 650.304688 280.140625 L 672.84375 302.679688 L 704.519531 302.679688 C 704.894531 305.496094 707.296875 307.671875 710.21875 307.671875 C 713.398438 307.671875 715.976562 305.09375 715.976562 301.914062 C 715.976562 298.734375 713.398438 296.15625 710.21875 296.15625 C 707.296875 296.15625 704.894531 298.332031 704.519531 301.148438 L 673.480469 301.148438 Z M 546.285156 174 L 546.285156 142.964844 C 549.101562 142.585938 551.277344 140.179688 551.277344 137.261719 C 551.277344 134.082031 548.699219 131.5 545.519531 131.5 C 542.335938 131.5 539.757812 134.082031 539.757812 137.261719 C 539.757812 140.179688 541.933594 142.585938 544.75 142.964844 L 544.75 174.636719 L 567.292969 197.175781 L 567.292969 234.0625 L 568.824219 234.0625 L 568.824219 196.542969 Z M 627.382812 306.453125 L 627.382812 307.984375 L 643.664062 307.984375 L 662.921875 327.242188 C 661.195312 329.5 661.363281 332.738281 663.425781 334.804688 C 665.675781 337.054688 669.324219 337.054688 671.570312 334.804688 C 673.820312 332.558594 673.820312 328.90625 671.570312 326.660156 C 669.507812 324.59375 666.265625 324.429688 664.003906 326.15625 L 644.300781 306.453125 Z M 447.257812 234.582031 L 426.582031 213.902344 L 380.878906 213.902344 L 364.90625 197.933594 C 367.5 194.546875 367.253906 189.683594 364.15625 186.585938 C 360.78125 183.210938 355.3125 183.210938 351.9375 186.585938 C 348.566406 189.960938 348.566406 195.429688 351.9375 198.800781 C 355.035156 201.902344 359.898438 202.148438 363.285156 199.554688 L 379.925781 216.203125 L 425.628906 216.203125 L 446.308594 236.878906 Z M 286.824219 288.78125 C 282.695312 288.78125 279.332031 285.425781 279.332031 281.292969 C 279.332031 277.160156 282.695312 273.804688 286.824219 273.804688 C 290.957031 273.804688 294.316406 277.160156 294.316406 281.292969 C 294.316406 285.425781 290.957031 288.78125 286.824219 288.78125 Z M 296.535156 280.144531 C 295.964844 275.285156 291.832031 271.503906 286.824219 271.503906 C 281.429688 271.503906 277.035156 275.894531 277.035156 281.292969 C 277.035156 286.6875 281.429688 291.078125 286.824219 291.078125 C 291.832031 291.078125 295.964844 287.296875 296.535156 282.441406 L 412.414062 282.441406 L 428.878906 265.976562 L 489.4375 265.976562 C 489.894531 265.199219 490.375 264.4375 490.859375 263.679688 L 427.925781 263.679688 L 411.464844 280.144531 Z M 469.394531 294.070312 L 469.394531 291.769531 L 450.90625 291.769531 L 429.457031 313.21875 L 344.113281 313.21875 L 329.382812 298.480469 L 264.609375 298.480469 C 264.050781 294.257812 260.4375 290.992188 256.0625 290.992188 C 251.289062 290.992188 247.417969 294.859375 247.417969 299.632812 C 247.417969 304.402344 251.289062 308.269531 256.0625 308.269531 C 260.4375 308.269531 264.050781 305.003906 264.609375 300.78125 L 328.429688 300.78125 L 343.167969 315.515625 L 430.410156 315.515625 L 451.851562 294.070312 Z M 321.9375 333.753906 C 321.9375 329.625 325.300781 326.265625 329.429688 326.265625 C 333.5625 326.265625 336.921875 329.625 336.921875 333.753906 C 336.921875 337.886719 333.5625 341.246094 329.429688 341.246094 C 325.300781 341.246094 321.9375 337.886719 321.9375 333.753906 Z M 339.144531 334.902344 L 376.605469 334.902344 L 392.183594 350.480469 L 435.011719 350.480469 L 462.066406 323.421875 L 469.394531 323.421875 L 469.394531 321.125 L 461.113281 321.125 L 434.058594 348.179688 L 393.132812 348.179688 L 377.558594 332.605469 L 339.144531 332.605469 C 338.574219 327.75 334.4375 323.964844 329.429688 323.964844 C 324.035156 323.964844 319.640625 328.359375 319.640625 333.753906 C 319.640625 339.152344 324.035156 343.542969 329.429688 343.542969 C 334.4375 343.542969 338.574219 339.757812 339.144531 334.902344 Z M 513.679688 31.960938 C 517.808594 31.960938 521.167969 35.320312 521.167969 39.453125 C 521.167969 43.585938 517.808594 46.941406 513.679688 46.941406 C 509.546875 46.941406 506.1875 43.585938 506.1875 39.453125 C 506.1875 35.320312 509.546875 31.960938 513.679688 31.960938 Z M 512.53125 49.164062 L 512.53125 129.234375 L 496.953125 144.8125 L 496.953125 187.636719 L 524.011719 214.695312 L 524.011719 236.984375 C 524.769531 236.703125 525.535156 236.445312 526.308594 236.191406 L 526.308594 213.742188 L 499.25 186.683594 L 499.25 145.765625 L 514.824219 130.1875 L 514.824219 49.164062 C 519.683594 48.59375 523.464844 44.457031 523.464844 39.453125 C 523.464844 34.054688 519.074219 29.664062 513.679688 29.664062 C 508.28125 29.664062 503.886719 34.054688 503.886719 39.453125 C 503.886719 44.457031 507.671875 48.59375 512.53125 49.164062 Z M 482.53125 215.046875 L 484.066406 214.414062 L 462.363281 192.714844 L 462.363281 164.410156 C 465.179688 164.035156 467.355469 161.625 467.355469 158.703125 C 467.355469 155.527344 464.777344 152.945312 461.597656 152.945312 C 458.414062 152.945312 455.839844 155.527344 455.839844 158.703125 C 455.839844 161.625 458.015625 164.035156 460.832031 164.410156 L 460.832031 193.347656 Z M 539.164062 8.6875 C 539.164062 13.066406 542.425781 16.675781 546.652344 17.238281 L 546.652344 81.054688 L 531.917969 95.792969 L 531.917969 183.035156 L 553.363281 204.480469 L 553.363281 219.613281 L 555.660156 219.613281 L 555.660156 203.53125 L 534.214844 182.082031 L 534.214844 96.746094 L 548.949219 82.007812 L 548.949219 17.238281 C 553.175781 16.675781 556.4375 13.066406 556.4375 8.6875 C 556.4375 3.917969 552.574219 0.046875 547.800781 0.046875 C 543.027344 0.046875 539.164062 3.917969 539.164062 8.6875 Z M 573.628906 82.058594 C 573.628906 86.191406 570.273438 89.546875 566.140625 89.546875 C 562.007812 89.546875 558.652344 86.191406 558.652344 82.058594 C 558.652344 77.925781 562.007812 74.566406 566.140625 74.566406 C 570.273438 74.566406 573.628906 77.925781 573.628906 82.058594 Z M 556.355469 82.058594 C 556.355469 87.066406 560.136719 91.199219 564.992188 91.769531 L 564.992188 165.042969 L 581.457031 181.503906 L 581.457031 242.039062 C 582.230469 242.496094 582.996094 242.96875 583.753906 243.453125 L 583.753906 180.550781 L 567.289062 164.09375 L 567.289062 91.769531 C 572.144531 91.199219 575.925781 87.066406 575.925781 82.058594 C 575.925781 76.664062 571.539062 72.269531 566.140625 72.269531 C 560.746094 72.269531 556.355469 76.664062 556.355469 82.058594 Z M 364.464844 253.796875 C 361.710938 253.796875 359.46875 251.558594 359.46875 248.804688 C 359.46875 246.050781 361.710938 243.8125 364.464844 243.8125 C 367.214844 243.8125 369.457031 246.050781 369.457031 248.804688 C 369.457031 251.558594 367.214844 253.796875 364.464844 253.796875 Z M 443.914062 251.035156 L 495.691406 251.035156 L 495.691406 257.070312 C 496.4375 256.179688 497.203125 255.308594 497.992188 254.457031 L 497.992188 251.035156 L 501.390625 251.035156 C 501.945312 250.515625 502.507812 250.003906 503.078125 249.5 L 497.992188 249.5 L 497.992188 215.785156 L 475.269531 193.0625 L 475.269531 114.683594 L 454.542969 93.953125 C 457.128906 90.566406 456.882812 85.707031 453.789062 82.609375 C 450.414062 79.238281 444.941406 79.238281 441.566406 82.609375 C 438.199219 85.984375 438.199219 91.453125 441.566406 94.828125 C 444.667969 97.925781 449.527344 98.167969 452.914062 95.582031 L 472.972656 115.636719 L 472.972656 194.015625 L 495.691406 216.734375 L 495.691406 249.5 L 444.546875 249.5 L 427.832031 232.789062 L 397.960938 232.789062 L 382.710938 248.039062 L 370.9375 248.039062 C 370.554688 244.800781 367.800781 242.28125 364.464844 242.28125 C 360.867188 242.28125 357.9375 245.207031 357.9375 248.804688 C 357.9375 252.40625 360.867188 255.328125 364.464844 255.328125 C 367.800781 255.328125 370.554688 252.808594 370.9375 249.570312 L 383.34375 249.570312 L 398.589844 234.320312 L 427.199219 234.320312 L 443.914062 251.035156 " fill-opacity="1" fill-rule="nonzero"/></g></svg>