<svg xmlns="http://www.w3.org/2000/svg" xmlns:xlink="http://www.w3.org/1999/xlink" width="1720" zoomAndPan="magnify" viewBox="0 0 1290 599.999999" height="800" preserveAspectRatio="xMidYMid meet" version="1.0"><defs><clipPath id="982be82621"><path d="M 0 0 L 417.75 0 L 417.75 347.25 L 0 347.25 Z M 0 0 " clip-rule="nonzero"/></clipPath></defs><g clip-path="url(#982be82621)"><path fill="#00a1e4" d="M 116.535156 6.640625 C 115.503906 5.640625 113.945312 5.640625 112.914062 6.640625 C 111.910156 7.671875 111.910156 9.230469 112.914062 10.261719 C 113.78125 11.101562 115.039062 11.234375 116.023438 10.644531 L 144.722656 39.300781 L 144.722656 56.949219 L 171.71875 83.90625 L 240.039062 83.90625 L 255.261719 68.707031 L 412.691406 68.707031 C 412.980469 69.808594 413.984375 70.632812 415.175781 70.632812 C 416.585938 70.632812 417.742188 69.488281 417.742188 68.074219 C 417.742188 66.667969 416.59375 65.511719 415.175781 65.511719 C 413.984375 65.511719 412.980469 66.335938 412.691406 67.4375 L 254.738281 67.4375 L 239.519531 82.632812 L 172.246094 82.632812 L 145.996094 56.421875 L 145.996094 38.773438 L 116.921875 9.742188 C 117.511719 8.765625 117.386719 7.511719 116.535156 6.640625 M 7.648438 35.863281 C 6.242188 35.863281 5.085938 37.007812 5.085938 38.421875 C 5.085938 39.828125 6.234375 40.984375 7.648438 40.984375 C 8.84375 40.984375 9.847656 40.160156 10.132812 39.058594 L 90.445312 39.058594 L 106.1875 54.773438 L 106.1875 89.511719 L 161.414062 144.65625 L 235.71875 144.65625 L 251.566406 160.480469 L 334.917969 160.480469 C 335.203125 161.582031 336.207031 162.40625 337.402344 162.40625 C 338.808594 162.40625 339.964844 161.257812 339.964844 159.84375 C 339.964844 158.4375 338.820312 157.28125 337.402344 157.28125 C 336.207031 157.28125 335.203125 158.105469 334.917969 159.207031 L 252.085938 159.207031 L 236.238281 143.382812 L 161.933594 143.382812 L 107.449219 88.984375 L 107.449219 54.246094 L 90.96875 37.789062 L 10.132812 37.789062 C 9.847656 36.675781 8.84375 35.863281 7.648438 35.863281 Z M 144.1875 74.296875 C 143.152344 73.292969 141.59375 73.292969 140.5625 74.296875 C 139.558594 75.328125 139.558594 76.882812 140.5625 77.914062 C 141.433594 78.757812 142.6875 78.890625 143.675781 78.300781 L 170.707031 105.289062 L 247.679688 105.289062 L 264.363281 88.632812 L 319.671875 88.632812 C 319.957031 89.734375 320.960938 90.558594 322.15625 90.558594 C 323.5625 90.558594 324.71875 89.414062 324.71875 87.996094 C 324.71875 86.59375 323.574219 85.4375 322.15625 85.4375 C 320.960938 85.4375 319.957031 86.261719 319.671875 87.363281 L 263.84375 87.363281 L 247.160156 104.019531 L 171.242188 104.019531 L 144.589844 77.402344 C 145.164062 76.417969 145.027344 75.175781 144.1875 74.296875 Z M 182.363281 63.578125 C 180.957031 63.578125 179.800781 64.722656 179.800781 66.140625 C 179.800781 67.542969 180.949219 68.699219 182.363281 68.699219 C 183.558594 68.699219 184.5625 67.875 184.847656 66.773438 L 230.523438 66.773438 L 251.457031 45.875 L 325.652344 45.875 L 337.070312 34.472656 L 390.773438 34.472656 C 391.058594 35.574219 392.0625 36.398438 393.257812 36.398438 C 394.664062 36.398438 395.820312 35.253906 395.820312 33.839844 C 395.820312 32.433594 394.675781 31.277344 393.257812 31.277344 C 392.0625 31.277344 391.058594 32.101562 390.773438 33.203125 L 336.539062 33.203125 L 325.125 44.601562 L 250.929688 44.601562 L 229.996094 65.503906 L 184.847656 65.503906 C 184.5625 64.402344 183.558594 63.578125 182.363281 63.578125 Z M 154.25 3.058594 C 151.242188 0.0976562 146.464844 0.0976562 143.460938 3.058594 C 140.492188 6.058594 140.492188 10.832031 143.460938 13.832031 C 145.996094 16.339844 149.789062 16.726562 152.722656 15.007812 L 181.179688 43.421875 L 214.460938 43.421875 L 232.980469 24.929688 L 265.007812 24.929688 C 265.859375 28.207031 268.855469 30.640625 272.390625 30.640625 C 276.585938 30.640625 280.011719 27.21875 280.011719 23.03125 C 280.011719 18.839844 276.585938 15.417969 272.390625 15.417969 C 268.847656 15.417969 265.859375 17.855469 265.007812 21.132812 L 231.402344 21.132812 L 212.882812 39.625 L 182.769531 39.625 L 155.421875 12.308594 C 157.144531 9.390625 156.75 5.59375 154.25 3.058594 Z M 7.648438 43.179688 C 3.453125 43.179688 0.0273438 46.597656 0.0273438 50.789062 C 0.0273438 54.980469 3.453125 58.402344 7.648438 58.402344 C 11.191406 58.402344 14.179688 55.964844 15.03125 52.6875 L 75.621094 52.6875 L 85.757812 62.808594 L 85.757812 94.210938 L 153.53125 161.886719 L 153.53125 206.902344 L 186.757812 240.078125 C 185.035156 243.007812 185.421875 246.796875 187.933594 249.332031 C 190.9375 252.292969 195.71875 252.292969 198.722656 249.332031 C 201.691406 246.332031 201.691406 241.558594 198.722656 238.558594 C 196.183594 236.050781 192.390625 235.664062 189.457031 237.382812 L 157.34375 205.316406 L 157.34375 160.300781 L 89.566406 92.628906 L 89.566406 61.222656 L 77.199219 48.875 L 15.03125 48.875 C 14.179688 45.613281 11.191406 43.179688 7.648438 43.179688 Z M 287.257812 192.503906 C 288.667969 192.503906 289.824219 191.355469 289.824219 189.941406 C 289.824219 188.535156 288.675781 187.378906 287.257812 187.378906 C 286.066406 187.378906 285.0625 188.203125 284.773438 189.304688 L 251.484375 189.304688 L 231.089844 168.941406 L 171.089844 168.941406 L 171.089844 196.109375 L 194.722656 219.707031 L 223.007812 219.707031 C 223.296875 220.808594 224.300781 221.632812 225.492188 221.632812 C 226.902344 221.632812 228.058594 220.484375 228.058594 219.070312 C 228.058594 217.664062 226.910156 216.511719 225.492188 216.511719 C 224.300781 216.511719 223.296875 217.335938 223.007812 218.4375 L 195.253906 218.4375 L 172.363281 195.582031 L 172.363281 170.214844 L 230.5625 170.214844 L 250.964844 190.578125 L 284.773438 190.578125 C 285.0625 191.679688 286.066406 192.503906 287.257812 192.503906 Z M 7.648438 64.984375 C 6.242188 64.984375 5.085938 66.128906 5.085938 67.542969 C 5.085938 68.949219 6.234375 70.105469 7.648438 70.105469 C 8.84375 70.105469 9.847656 69.28125 10.132812 68.179688 L 62.042969 68.179688 L 68.339844 74.46875 L 68.339844 98.492188 L 40.410156 126.386719 L 40.410156 206.765625 L 73.730469 240.035156 L 73.730469 277.503906 C 72.625 277.789062 71.800781 278.792969 71.800781 279.984375 C 71.800781 281.390625 72.949219 282.542969 74.367188 282.542969 C 75.773438 282.542969 76.929688 281.398438 76.929688 279.984375 C 76.929688 278.792969 76.105469 277.789062 75.003906 277.503906 L 75.003906 239.507812 L 41.683594 206.238281 L 41.683594 126.90625 L 69.613281 99.019531 L 69.613281 73.9375 L 62.5625 66.898438 L 10.132812 66.898438 C 9.847656 65.808594 8.84375 64.984375 7.648438 64.984375 Z M 50.539062 96.148438 C 53.503906 93.148438 53.503906 88.375 50.539062 85.375 C 47.53125 82.410156 42.753906 82.410156 39.75 85.375 C 37.238281 87.910156 36.851562 91.695312 38.574219 94.625 L 24.359375 108.816406 L 24.359375 219.851562 L 46.097656 241.558594 L 46.097656 298.691406 C 42.816406 299.539062 40.375 302.53125 40.375 306.058594 C 40.375 310.25 43.800781 313.671875 48 313.671875 C 52.195312 313.671875 55.621094 310.25 55.621094 306.058594 C 55.621094 302.523438 53.183594 299.539062 49.902344 298.691406 L 49.902344 239.980469 L 28.167969 218.285156 L 28.167969 110.402344 L 41.265625 97.328125 C 44.207031 99.046875 48.007812 98.652344 50.539062 96.148438 Z M 28.644531 240.570312 C 28.644531 239.167969 27.496094 238.011719 26.082031 238.011719 C 24.671875 238.011719 23.515625 239.15625 23.515625 240.570312 C 23.515625 241.761719 24.339844 242.765625 25.445312 243.050781 L 25.445312 286.1875 L 16.386719 295.234375 L 16.386719 342.03125 C 15.28125 342.320312 14.457031 343.320312 14.457031 344.511719 C 14.457031 345.917969 15.605469 347.074219 17.023438 347.074219 C 18.429688 347.074219 19.585938 345.925781 19.585938 344.511719 C 19.585938 343.320312 18.761719 342.316406 17.660156 342.03125 L 17.660156 295.753906 L 26.71875 286.707031 L 26.71875 243.050781 C 27.828125 242.765625 28.644531 241.761719 28.644531 240.570312 Z M 82.042969 122.644531 C 81.011719 121.640625 79.453125 121.640625 78.421875 122.644531 C 77.414062 123.675781 77.414062 125.234375 78.421875 126.261719 C 79.289062 127.105469 80.546875 127.238281 81.53125 126.648438 L 125.730469 170.777344 L 125.730469 214.558594 L 178.714844 267.464844 L 276.011719 267.464844 C 276.300781 268.566406 277.304688 269.390625 278.496094 269.390625 C 279.90625 269.390625 281.0625 268.242188 281.0625 266.828125 C 281.0625 265.421875 279.914062 264.265625 278.496094 264.265625 C 277.304688 264.265625 276.300781 265.089844 276.011719 266.191406 L 179.242188 266.191406 L 127.003906 214.03125 L 127.003906 170.25 L 82.429688 125.742188 C 83.019531 124.765625 82.886719 123.523438 82.042969 122.644531 Z M 85.34375 111.628906 C 86.347656 110.601562 86.347656 109.042969 85.34375 108.011719 C 84.3125 107.007812 82.75 107.007812 81.71875 108.011719 C 80.878906 108.878906 80.742188 110.132812 81.335938 111.121094 L 57.148438 135.269531 L 57.148438 196.09375 L 92.777344 231.671875 L 92.777344 313.664062 C 91.675781 313.949219 90.851562 314.953125 90.851562 316.144531 C 90.851562 317.550781 92 318.703125 93.414062 318.703125 C 94.824219 318.703125 95.980469 317.558594 95.980469 316.144531 C 95.980469 314.953125 95.15625 313.949219 94.050781 313.664062 L 94.050781 231.152344 L 58.421875 195.574219 L 58.421875 135.800781 L 82.242188 112.015625 C 83.21875 112.605469 84.472656 112.480469 85.34375 111.628906 Z M 97.640625 156.628906 C 97.613281 151.003906 93.101562 146.507812 87.46875 146.472656 C 81.835938 146.5 77.335938 151.003906 77.300781 156.628906 C 77.324219 161.375 80.535156 165.324219 84.921875 166.453125 L 84.921875 200.320312 L 108.175781 223.539062 L 108.175781 255.304688 C 103.792969 256.441406 100.582031 260.378906 100.554688 265.125 C 100.582031 270.75 105.09375 275.246094 110.722656 275.28125 C 116.355469 275.253906 120.859375 270.75 120.894531 265.125 C 120.867188 260.378906 117.65625 256.429688 113.269531 255.304688 L 113.269531 221.433594 L 90.015625 198.214844 L 90.015625 166.453125 C 94.402344 165.324219 97.613281 161.375 97.640625 156.628906 Z M 7.648438 20.253906 C 6.242188 20.253906 5.085938 21.398438 5.085938 22.816406 C 5.085938 24.21875 6.234375 25.375 7.648438 25.375 C 8.84375 25.375 9.847656 24.550781 10.132812 23.449219 L 100.554688 23.449219 L 125.15625 48.015625 L 125.15625 84.757812 L 167.367188 126.90625 L 265.71875 126.90625 C 266.003906 128.007812 267.007812 128.832031 268.203125 128.832031 C 269.609375 128.832031 270.765625 127.6875 270.765625 126.269531 C 270.765625 124.867188 269.617188 123.710938 268.203125 123.710938 C 267.007812 123.710938 266.003906 124.535156 265.71875 125.636719 L 167.890625 125.636719 L 126.417969 84.226562 L 126.417969 47.484375 L 101.074219 22.179688 L 10.132812 22.179688 C 9.847656 21.070312 8.84375 20.253906 7.648438 20.253906 Z M 7.648438 20.253906 " fill-opacity="1" fill-rule="nonzero"/></g></svg>