<svg width="326" height="326" xmlns="http://www.w3.org/2000/svg" xmlns:xlink="http://www.w3.org/1999/xlink" xml:space="preserve" overflow="hidden"><g><path d="M20.1567 266.334 197.076 266.334 197.076 209.532 20.1567 209.532Z" fill="#FFFFFF"/><path d="M21.747 264.742 195.484 264.742 195.484 211.124 21.747 211.124 21.747 264.742ZM197.076 267.924 20.1565 267.924C19.2763 267.924 18.5646 267.213 18.5646 266.332L18.5646 209.532C18.5646 208.652 19.2761 207.94 20.1565 207.94L197.076 207.94C197.955 207.94 198.669 208.652 198.669 209.532L198.669 266.332C198.669 267.211 197.955 267.924 197.076 267.924Z"/><path d="M20.1567 116.466 197.076 116.466 197.076 59.6663 20.1567 59.6663Z" fill="#FFFFFF"/><path d="M21.747 114.874 195.484 114.874 195.484 61.2581 21.747 61.2581 21.747 114.874ZM197.076 118.058 20.1565 118.058C19.2763 118.058 18.5646 117.347 18.5646 116.466L18.5646 59.6663C18.5646 58.7877 19.2761 58.0739 20.1565 58.0739L197.076 58.0739C197.955 58.0739 198.669 58.7877 198.669 59.6663L198.669 116.466C198.669 117.347 197.955 118.058 197.076 118.058Z"/><path d="M20.1567 191.399 197.076 191.399 197.076 134.599 20.1567 134.599Z" fill="#00A1E4"/><path d="M21.747 189.807 195.484 189.807 195.484 136.191 21.747 136.191 21.747 189.807ZM197.076 192.991 20.1565 192.991C19.2763 192.991 18.5646 192.279 18.5646 191.399L18.5646 134.601C18.5646 133.721 19.2761 133.008 20.1565 133.008L197.076 133.008C197.955 133.008 198.669 133.721 198.669 134.601L198.669 191.399C198.669 192.279 197.955 192.991 197.076 192.991Z"/><path d="M42.3182 87.4982C42.3182 83.6282 45.4564 80.49 49.3263 80.49 53.1984 80.49 56.3364 83.6282 56.3364 87.4982 56.3364 91.3681 53.1984 94.5063 49.3263 94.5063 45.4564 94.5063 42.3182 91.3683 42.3182 87.4982Z" fill="#FFFFFF"/><path d="M49.3263 82.0818C46.3401 82.0818 43.91 84.5119 43.91 87.4982 43.91 90.4863 46.3401 92.9145 49.3263 92.9145 52.3145 92.9145 54.7446 90.4865 54.7446 87.4982 54.7446 84.5119 52.3145 82.0818 49.3263 82.0818ZM49.3263 96.0987C44.5834 96.0987 40.7262 92.2411 40.7262 87.4982 40.7262 82.7553 44.5832 78.8961 49.3263 78.8961 54.0692 78.8961 57.9284 82.7553 57.9284 87.4982 57.9284 92.2411 54.0692 96.0987 49.3263 96.0987Z"/><path d="M42.3182 87.4982C42.3182 83.6282 45.4564 80.49 49.3263 80.49 53.1984 80.49 56.3364 83.6282 56.3364 87.4982 56.3364 91.3681 53.1984 94.5063 49.3263 94.5063 45.4564 94.5063 42.3182 91.3683 42.3182 87.4982Z" fill="#FFFFFF"/><path d="M49.3263 82.0818C46.3401 82.0818 43.91 84.5119 43.91 87.4982 43.91 90.4863 46.3401 92.9145 49.3263 92.9145 52.3145 92.9145 54.7446 90.4865 54.7446 87.4982 54.7446 84.5119 52.3145 82.0818 49.3263 82.0818ZM49.3263 96.0987C44.5834 96.0987 40.7262 92.2411 40.7262 87.4982 40.7262 82.7553 44.5832 78.8961 49.3263 78.8961 54.0692 78.8961 57.9284 82.7553 57.9284 87.4982 57.9284 92.2411 54.0692 96.0987 49.3263 96.0987Z"/><path d="M42.3182 163C42.3182 159.128 45.4564 155.991 49.3263 155.991 53.1984 155.991 56.3364 159.128 56.3364 163 56.3364 166.87 53.1984 170.008 49.3263 170.008 45.4564 170.008 42.3182 166.87 42.3182 163Z" fill="#FFFFFF"/><path d="M49.3263 157.583C46.3401 157.583 43.91 160.012 43.91 163 43.91 165.986 46.3401 168.416 49.3263 168.416 52.3145 168.416 54.7446 165.986 54.7446 163 54.7446 160.012 52.3145 157.583 49.3263 157.583ZM49.3263 171.6C44.5834 171.6 40.7262 167.741 40.7262 163 40.7262 158.257 44.5832 154.399 49.3263 154.399 54.0692 154.399 57.9284 158.257 57.9284 163 57.9284 167.741 54.0692 171.6 49.3263 171.6Z"/><path d="M42.3182 237.931C42.3182 234.062 45.4564 230.925 49.3263 230.925 53.1984 230.925 56.3364 234.062 56.3364 237.931 56.3364 241.804 53.1984 244.942 49.3263 244.942 45.4564 244.942 42.3182 241.804 42.3182 237.931Z" fill="#FFFFFF"/><path d="M49.3263 232.515C46.3401 232.515 43.91 234.946 43.91 237.931 43.91 240.92 46.3401 243.349 49.3263 243.349 52.3145 243.349 54.7446 240.92 54.7446 237.931 54.7446 234.946 52.3145 232.515 49.3263 232.515ZM49.3263 246.534C44.5834 246.534 40.7262 242.675 40.7262 237.931 40.7262 233.19 44.5832 229.333 49.3263 229.333 54.0692 229.333 57.9284 233.19 57.9284 237.931 57.9284 242.675 54.0692 246.534 49.3263 246.534Z"/><path d="M42.3182 237.931C42.3182 234.062 45.4564 230.925 49.3263 230.925 53.1984 230.925 56.3364 234.062 56.3364 237.931 56.3364 241.804 53.1984 244.942 49.3263 244.942 45.4564 244.942 42.3182 241.804 42.3182 237.931Z" fill="#FFFFFF"/><path d="M49.3263 232.515C46.3401 232.515 43.91 234.946 43.91 237.931 43.91 240.92 46.3401 243.349 49.3263 243.349 52.3145 243.349 54.7446 240.92 54.7446 237.931 54.7446 234.946 52.3145 232.515 49.3263 232.515ZM49.3263 246.534C44.5834 246.534 40.7262 242.675 40.7262 237.931 40.7262 233.19 44.5832 229.333 49.3263 229.333 54.0692 229.333 57.9284 233.19 57.9284 237.931 57.9284 242.675 54.0692 246.534 49.3263 246.534Z"/><path d="M78.2692 163C78.2692 159.128 81.4074 155.991 85.2795 155.991 89.1494 155.991 92.2876 159.128 92.2876 163 92.2876 166.87 89.1494 170.008 85.2795 170.008 81.4074 170.008 78.2692 166.87 78.2692 163Z" fill="#FFFFFF"/><path d="M85.2773 157.583C82.2911 157.583 79.861 160.012 79.861 163 79.861 165.986 82.2911 168.416 85.2773 168.416 88.2655 168.416 90.6956 165.986 90.6956 163 90.6956 160.012 88.2655 157.583 85.2773 157.583ZM85.2773 171.6C80.5364 171.6 76.6774 167.741 76.6774 163 76.6774 158.257 80.5366 154.399 85.2773 154.399 90.0202 154.399 93.88 158.257 93.88 163 93.88 167.741 90.0204 171.6 85.2773 171.6Z"/><path d="M42.0909 261.736 41.7159 261.581C41.5074 261.374 41.5074 261.039 41.7159 260.832 52.9717 249.575 68.5854 231.944 83.4862 213.669 83.6709 213.444 84.0059 213.411 84.2326 213.593 84.4599 213.781 84.4945 214.113 84.3095 214.342 69.387 232.642 53.7457 250.303 42.4666 261.581L42.0911 261.736Z"/><path d="M30.3964 260.859 30.049 260.728C29.8274 260.535 29.8057 260.2 29.9975 259.979L40.5339 247.917C40.7279 247.696 41.063 247.674 41.2825 247.868 41.5039 248.059 41.5258 248.394 41.3339 248.615L30.7976 260.678 30.3966 260.859Z"/><path d="M57.3064 229.902 56.9553 229.769C56.7354 229.575 56.7135 229.241 56.9076 229.022L70.3077 213.8C70.5033 213.579 70.8384 213.558 71.0576 213.751 71.2771 213.945 71.2972 214.279 71.1053 214.498L57.7054 229.722 57.3066 229.902Z"/><path d="M24.7881 252.308 24.4588 252.192C24.2301 252.011 24.1916 251.676 24.3727 251.447 34.6585 238.491 45.5293 225.726 56.6875 213.505 56.8853 213.288 57.2223 213.272 57.4361 213.472 57.654 213.669 57.6684 214.004 57.4709 214.219 46.3307 226.422 35.4745 239.169 25.2038 252.106L24.7883 252.308Z"/><path d="M25.3239 235.649 24.9822 235.523C24.7586 235.336 24.7295 235.001 24.9178 234.776 30.7039 227.901 36.7919 221.133 43.0131 214.661 43.2164 214.451 43.5532 214.442 43.7636 214.645 43.9759 214.849 43.9816 215.185 43.7781 215.396 37.5729 221.851 31.4999 228.601 25.7305 235.461L25.3239 235.649Z"/><path d="M25.1285 221.878 24.7463 221.718C24.5429 221.505 24.5503 221.17 24.7608 220.967L32.7445 213.262C32.9568 213.061 33.2912 213.065 33.4947 213.276 33.6975 213.487 33.6922 213.824 33.4816 214.027L25.4962 221.73 25.1285 221.878Z"/><path d="M53.7253 261.736 53.385 261.613C53.1599 261.425 53.1303 261.088 53.3191 260.865 66.6584 244.969 80.5108 229.114 94.4887 213.741 94.6862 213.524 95.0229 213.509 95.2392 213.704 95.4571 213.902 95.4716 214.24 95.2756 214.455 81.3049 229.82 67.4641 245.661 54.1314 261.548L53.7253 261.738Z"/><path d="M66.1735 261.305 65.8353 261.182C65.6102 260.994 65.5791 260.662 65.7657 260.433 78.7554 244.781 92.2909 229.194 105.986 214.099 106.187 213.882 106.516 213.869 106.736 214.064 106.956 214.262 106.974 214.596 106.773 214.811 93.0872 229.894 79.5627 245.472 66.5837 261.112L66.1733 261.305Z"/><path d="M78.2692 261.736 77.9269 261.611C77.7039 261.423 77.6763 261.086 77.8668 260.861L116.837 215.029C117.038 214.806 117.368 214.778 117.587 214.968 117.807 215.156 117.843 215.492 117.642 215.715L78.6739 261.55 78.2692 261.736Z"/><path d="M89.8319 261.736 89.4972 261.618C89.2701 261.433 89.2374 261.1 89.4199 260.871 102.344 245.028 115.72 229.217 129.17 213.871 129.371 213.652 129.701 213.63 129.92 213.824 130.14 214.015 130.158 214.352 129.975 214.573 116.526 229.906 103.149 245.71 90.2436 261.542L89.8317 261.736Z"/><path d="M100.899 261.736 100.569 261.62C100.35 261.436 100.313 261.102 100.496 260.875 113.068 245.27 126.188 229.73 139.49 214.684 139.692 214.463 140.021 214.442 140.241 214.639 140.46 214.833 140.479 215.167 140.296 215.386 126.992 230.42 113.873 245.949 101.32 261.54L100.899 261.736Z"/><path d="M112.646 261.305 112.281 261.167C112.061 260.971 112.043 260.635 112.244 260.417 125.73 245.575 138.85 230.082 151.257 214.367 151.439 214.137 151.769 214.099 151.989 214.279 152.226 214.461 152.263 214.794 152.08 215.025 139.655 230.759 126.517 246.272 113.031 261.131L112.647 261.305Z"/><path d="M123.754 260.859 123.424 260.732C123.186 260.543 123.168 260.208 123.351 259.983L159.363 217.828C159.545 217.603 159.875 217.579 160.113 217.769 160.332 217.959 160.351 218.293 160.168 218.516L124.174 260.672 123.754 260.859Z"/><path d="M135.062 261.305 134.715 261.178C134.495 260.989 134.459 260.656 134.66 260.431L169.903 218.753C170.085 218.528 170.415 218.502 170.653 218.69 170.872 218.88 170.891 219.212 170.708 219.437L135.465 261.116 135.062 261.305Z"/><path d="M147.542 261.305 147.194 261.169C146.975 260.977 146.956 260.64 147.139 260.423 159.052 246.984 170.58 232.859 181.412 218.436 181.595 218.203 181.925 218.152 182.163 218.332 182.382 218.506 182.437 218.839 182.254 219.074 171.403 233.519 159.857 247.668 147.944 261.125L147.542 261.305Z"/><path d="M158.924 261.305 158.613 261.196C158.375 261.018 158.338 260.685 158.503 260.451 169.189 246.461 180.571 232.807 192.355 219.864 192.557 219.649 192.904 219.633 193.106 219.83 193.325 220.028 193.343 220.364 193.142 220.58 181.376 233.499 170.012 247.128 159.344 261.096L158.924 261.305Z"/><path d="M169.116 260.859 168.768 260.73C168.548 260.541 168.512 260.206 168.713 259.981L191.184 233.826C191.366 233.603 191.715 233.579 191.934 233.771 192.153 233.961 192.172 234.297 191.989 234.52L169.518 260.674 169.116 260.859Z"/><path d="M178.96 261.305 178.595 261.169C178.375 260.971 178.375 260.636 178.558 260.419L190.855 246.747C191.056 246.528 191.403 246.51 191.604 246.706 191.824 246.901 191.843 247.238 191.659 247.455L179.344 261.127 178.96 261.305Z"/><path d="M189.5 261.305 189.153 261.169C188.933 260.973 188.915 260.638 189.098 260.419L192.282 256.871C192.483 256.652 192.812 256.635 193.032 256.83 193.252 257.026 193.27 257.362 193.068 257.579L189.903 261.127 189.5 261.305Z"/><path d="M234.223 203.737C245.348 214.671 256.455 225.607 267.58 236.543 273.435 242.317 279.328 248.104 285.732 253.116 289.173 255.817 293.016 258.371 297.206 258.375 301.415 258.377 305.879 254.837 305.841 250.094 305.806 246.391 303.262 243.418 300.865 240.893 283.17 222.227 264.67 204.529 245.458 187.88 241.943 193.04 238.412 198.199 234.223 203.737Z" fill="#FFFFFF"/><path d="M236.345 203.578 268.697 235.408C274.442 241.059 280.371 246.903 286.702 251.864 289.978 254.416 293.509 256.779 297.206 256.783L297.223 256.783C299.037 256.783 300.957 255.95 302.348 254.553 303.574 253.303 304.269 251.723 304.251 250.103 304.232 247.009 302 244.398 299.713 241.99 282.53 223.872 264.396 206.473 245.769 190.255 242.841 194.532 239.803 198.938 236.345 203.578ZM297.223 259.966 297.206 259.966C292.539 259.964 288.459 257.274 284.744 254.368 278.266 249.301 272.265 243.392 266.463 237.675L233.106 204.871C232.539 204.31 232.484 203.414 232.959 202.774 237.149 197.245 240.699 192.028 244.14 186.983 244.396 186.608 244.799 186.359 245.256 186.303 245.695 186.241 246.152 186.38 246.5 186.678 265.677 203.296 284.361 221.168 302.018 239.799 304.617 242.542 307.398 245.828 307.434 250.082 307.453 252.556 306.446 254.941 304.598 256.797 302.622 258.782 299.858 259.966 297.223 259.966Z"/><path d="M190.855 204.779C161.778 204.779 138.21 181.207 138.21 152.131 138.21 123.052 161.778 99.48 190.855 99.48 219.93 99.48 243.5 123.052 243.5 152.131 243.5 181.207 219.93 204.779 190.855 204.779ZM190.855 204.779C161.778 204.779 138.21 181.207 138.21 152.131 138.21 123.052 161.778 99.48 190.855 99.48 219.93 99.48 243.5 123.052 243.5 152.131 243.5 181.207 219.93 204.779 190.855 204.779ZM190.855 82.81C152.574 82.81 121.54 113.844 121.54 152.131 121.54 190.415 152.574 221.448 190.855 221.448 229.135 221.448 260.169 190.415 260.169 152.131 260.169 113.844 229.135 82.81 190.855 82.81Z" fill="#FFFFFF"/><path d="M139.802 152.131C139.802 180.283 162.693 203.185 190.855 203.185 218.997 203.185 241.908 180.283 241.908 152.131 241.908 123.976 218.997 101.074 190.855 101.074 162.693 101.074 139.802 123.976 139.802 152.131ZM190.855 206.371C160.937 206.371 136.617 182.039 136.617 152.131 136.617 122.221 160.936 97.8882 190.855 97.8882 220.754 97.8882 245.09 122.221 245.09 152.131 245.09 182.039 220.754 206.371 190.855 206.371ZM190.855 84.402C153.507 84.402 123.132 114.785 123.132 152.131 123.132 189.476 153.507 219.858 190.855 219.858 228.202 219.858 258.577 189.476 258.577 152.131 258.577 114.785 228.202 84.402 190.855 84.402ZM190.855 223.04C151.75 223.04 119.947 191.23 119.947 152.131 119.947 113.03 151.75 81.2182 190.855 81.2182 229.959 81.2182 261.761 113.03 261.761 152.131 261.761 191.23 229.959 223.04 190.855 223.04Z"/><path d="M243.169 205.722 243.023 205.7C242.731 205.62 242.585 205.327 242.657 205.047L243.883 200.779C243.958 200.497 244.249 200.327 244.523 200.415 244.816 200.494 244.981 200.789 244.891 201.071L243.682 205.337C243.61 205.571 243.389 205.722 243.169 205.722Z"/><path d="M249.008 213.196 248.934 213.194C248.642 213.155 248.441 212.889 248.476 212.597 249.118 207.617 249.904 202.579 250.802 197.622 250.856 197.331 251.148 197.147 251.424 197.194 251.715 197.247 251.899 197.522 251.862 197.814 250.966 202.751 250.178 207.77 249.521 212.736 249.483 213.002 249.262 213.196 249.008 213.196Z"/><path d="M256.564 220.451C256.273 220.451 256.034 220.216 256.034 219.92 256.034 217.425 256.417 213.237 256.766 209.544 256.967 207.293 257.151 205.346 257.206 204.122 257.223 203.83 257.442 203.58 257.773 203.619 258.064 203.633 258.285 203.881 258.266 204.175 258.211 205.421 258.029 207.375 257.828 209.64 257.479 213.311 257.094 217.472 257.094 219.92 257.094 220.216 256.857 220.451 256.564 220.451Z"/><path d="M264.324 227.6C264.03 227.6 263.792 227.369 263.792 227.079L263.391 209.376C263.391 209.082 263.627 208.84 263.903 208.832 264.249 208.844 264.451 209.059 264.451 209.35L264.854 227.056C264.854 227.349 264.635 227.592 264.341 227.6L264.324 227.6Z"/><path d="M271.698 235.43C271.424 235.43 271.185 235.205 271.168 234.919L270.471 216.378C270.471 216.085 270.69 215.838 270.984 215.829 271.277 215.856 271.533 216.046 271.533 216.337L272.228 234.88C272.245 235.171 272.009 235.418 271.715 235.43L271.698 235.43Z"/><path d="M279.218 242.031C278.925 242.031 278.686 241.812 278.686 241.53L277.736 224.21C277.718 223.917 277.955 223.666 278.248 223.653 278.559 223.611 278.778 223.86 278.798 224.151L279.731 241.472C279.749 241.763 279.529 242.015 279.236 242.029L279.218 242.031Z"/><path d="M286.647 248.132C286.373 248.132 286.135 247.919 286.117 247.641L284.816 230.782C284.799 230.489 285.018 230.232 285.311 230.211 285.568 230.182 285.841 230.407 285.879 230.698L287.177 247.561C287.195 247.852 286.976 248.108 286.684 248.13L286.647 248.132Z"/><path d="M293.673 253.614C293.419 253.614 293.18 253.411 293.161 253.137L291.623 238.348C291.606 238.056 291.807 237.796 292.101 237.767 292.374 237.732 292.668 237.947 292.685 238.24L294.205 253.03C294.24 253.321 294.021 253.581 293.728 253.611L293.673 253.614Z"/><path d="M300.572 252.826C300.316 252.826 300.097 252.642 300.042 252.38L298.98 245.775C298.925 245.485 299.127 245.213 299.42 245.167 299.713 245.114 299.987 245.313 300.024 245.605L301.102 252.212C301.139 252.501 300.938 252.773 300.664 252.82L300.572 252.826Z"/><path d="M190.855 203.185C162.693 203.185 139.802 180.283 139.802 152.131 139.802 149.706 139.966 147.318 140.296 144.981 140.808 146.756 141.376 148.515 141.997 150.251 141.997 153.027 142.309 154.171 143.315 157.435 143.992 159.812 144.651 162.194 145.511 164.515 146.353 166.775 147.78 171.732 151.934 177.406L151.934 177.408C155.776 182.074 161.449 187.068 163.992 188.856 169.994 192.894 172.757 194.464 178.503 195.799 182.218 196.722 185.493 197.059 188.439 197.059 191.971 197.059 195.045 196.574 197.9 196.042 208.861 194.025 215.375 191.734 224.03 185.463 224.323 185.286 224.615 185.172 224.926 185.112 226.628 183.818 228.294 182.449 230.031 180.898 232.046 178.985 235.596 174.984 235.87 174.482 236.895 173.277 237.589 171.77 238.504 170.469 231.111 189.587 212.539 203.185 190.855 203.185ZM148.384 185.838C148.292 185.745 148.219 185.651 148.127 185.554 144.285 181.244 142.126 176.91 140.662 172.714 142.619 177.463 145.236 181.876 148.384 185.838ZM233.984 184.98C236.198 182.073 238.139 178.936 239.748 175.611 239.619 175.971 239.475 176.334 239.345 176.695 238.594 178.467 237.771 180.221 236.93 181.962 236.126 182.887 235.119 183.907 233.984 184.98Z" fill="#DEDEDE"/><path d="M189.116 204.896C187.122 204.896 185.145 204.738 183.187 204.38L183.132 204.368C179.967 203.997 176.765 203.623 173.69 202.729 168.055 200.9 162.986 197.751 158.21 194.306 156.197 192.651 153.013 190.866 148.384 185.838 145.236 181.876 142.619 177.463 140.662 172.715 139.875 170.449 139.289 168.224 138.741 166.063 137.826 158.932 137.697 151.746 138.631 144.583 138.704 144.577 138.777 144.575 138.85 144.575 139.344 144.575 139.82 144.688 140.259 144.888 140.278 144.919 140.278 144.95 140.296 144.981 139.966 147.318 139.802 149.706 139.802 152.131 139.802 180.283 162.693 203.185 190.855 203.185 212.539 203.185 231.111 189.587 238.504 170.469 238.905 169.889 239.363 169.351 239.895 168.898 240.298 168.656 240.736 168.544 241.194 168.544 241.542 168.544 241.888 168.612 242.199 168.738 241.395 171.033 240.572 173.322 239.748 175.611 238.139 178.936 236.198 182.073 233.984 184.98 230.543 188.221 225.841 191.928 221.229 194.795 220.278 195.509 219.564 195.997 217.552 197.249 212.556 199.887 207.103 201.56 201.632 202.899 198.997 203.607 196.38 204.407 193.654 204.632 192.135 204.803 190.617 204.896 189.116 204.896Z"/><path d="M237.37 209.065C236.985 208.779 236.638 208.435 236.345 208.053L237.37 209.065Z" fill="#DEDEDE"/><path d="M242.274 209.415 237.918 205.129C242 201.499 245.659 197.403 248.824 192.929 250.544 194.448 252.265 195.973 253.984 197.511 253.912 197.634 253.855 197.755 253.783 197.872 253.051 199.089 252.173 200.218 251.24 201.299 251.439 200.134 251.641 198.972 251.862 197.814 251.897 197.522 251.715 197.247 251.422 197.194 251.404 197.19 251.367 197.188 251.33 197.188 251.093 197.188 250.855 197.364 250.8 197.622 250.489 199.351 250.195 201.09 249.904 202.835 247.872 205.466 245.346 207.723 242.418 209.333 242.366 209.36 242.328 209.389 242.274 209.417ZM244.378 200.392C244.157 200.392 243.938 200.546 243.883 200.779L242.657 205.047C242.585 205.329 242.731 205.62 243.025 205.702L243.169 205.722C243.39 205.722 243.61 205.571 243.682 205.337L244.891 201.071C244.983 200.789 244.816 200.494 244.525 200.415 244.488 200.398 244.433 200.392 244.378 200.392Z" fill="#DEDEDE"/><path d="M240.097 209.986C239.107 209.986 238.156 209.64 237.37 209.065L236.345 208.053C236.106 207.727 235.887 207.371 235.723 206.995 236.472 206.387 237.204 205.765 237.918 205.129L242.274 209.415C241.542 209.81 240.809 209.986 240.097 209.986ZM253.984 197.511C252.265 195.973 250.544 194.448 248.824 192.929 249.19 192.408 249.556 191.881 249.904 191.346 249.941 191.346 249.976 191.344 250.013 191.344 250.379 191.344 250.782 191.401 251.203 191.52 253.728 192.19 255.101 195.185 253.984 197.511Z"/><path d="M235.723 206.995C235.136 205.599 235.21 203.928 236.4 202.471 236.875 201.648 237.773 201.276 238.522 200.756L238.559 200.716C242.366 197.28 243.005 197.507 245.311 194.821L245.493 194.609C246.573 192.943 247.964 191.399 249.904 191.346 249.556 191.88 249.19 192.407 248.824 192.929 245.659 197.403 241.998 201.499 237.918 205.129 237.204 205.765 236.472 206.387 235.723 206.995Z"/><path d="M243.169 205.722 243.023 205.7C242.731 205.62 242.585 205.327 242.657 205.047L243.883 200.779C243.938 200.546 244.157 200.39 244.378 200.39 244.433 200.39 244.488 200.398 244.523 200.415 244.816 200.494 244.981 200.789 244.891 201.071L243.682 205.337C243.61 205.571 243.389 205.722 243.169 205.722Z"/><path d="M249.904 202.833C250.197 201.09 250.489 199.351 250.802 197.622 250.856 197.362 251.093 197.186 251.332 197.186 251.367 197.186 251.404 197.188 251.424 197.194 251.715 197.247 251.899 197.522 251.862 197.812 251.643 198.972 251.441 200.134 251.24 201.297 250.874 201.726 250.489 202.148 250.123 202.563 250.051 202.655 249.976 202.743 249.904 202.833Z"/><path d="M174.587 139.885 166.334 147.581 188.823 172.57 213.691 136.377 204.468 129.056 187.122 153.521Z" fill="#00A1E4"/><path d="M168.567 147.679 188.659 170.003 211.531 136.701 204.799 131.349 188.421 154.441C188.147 154.833 187.707 155.08 187.213 155.11 186.738 155.137 186.28 154.952 185.951 154.597L174.496 142.143 168.567 147.679ZM188.823 174.162C188.384 174.162 187.945 173.972 187.634 173.635L165.164 148.647C164.578 148.001 164.614 147.009 165.255 146.418L173.507 138.721C173.819 138.432 174.221 138.273 174.66 138.295 175.081 138.312 175.484 138.496 175.759 138.809L186.957 150.994 203.169 128.134C203.426 127.777 203.828 127.541 204.249 127.479 204.689 127.422 205.127 127.537 205.475 127.81L214.678 135.133C215.338 135.653 215.467 136.592 214.989 137.279L190.141 173.472C189.867 173.873 189.409 174.127 188.934 174.159L188.824 174.162Z"/><path d="M184.432 228.746C181.449 228.724 178.448 228.445 175.502 227.919 176.984 226.015 178.448 224.11 179.893 222.195 183.041 222.686 186.243 222.968 189.5 223.029 187.798 224.92 186.115 226.827 184.431 228.746ZM185.859 228.74C187.524 226.825 189.226 224.926 190.91 223.04 192.447 223.038 193.984 222.989 195.484 222.892L195.484 228.183C195.118 228.294 194.752 228.347 194.368 228.347 194.258 228.347 194.148 228.343 194.039 228.337 191.733 228.625 189.409 228.625 187.085 228.699 186.682 228.717 186.262 228.73 185.859 228.738ZM174.331 227.694C171.422 227.109 168.567 226.285 165.804 225.231L170.25 219.989C172.996 220.828 175.832 221.501 178.704 222.002 177.259 223.905 175.795 225.804 174.331 227.694ZM164.761 224.822C163.553 224.327 162.364 223.789 161.192 223.207 160.003 222.637 158.832 222.049 157.679 221.432L160.168 218.516C160.351 218.293 160.333 217.957 160.113 217.769 160.003 217.683 159.875 217.642 159.766 217.642 159.619 217.642 159.454 217.704 159.363 217.828L156.728 220.916C154.569 219.735 152.501 218.444 150.524 216.985 151.056 216.331 151.568 215.678 152.08 215.025 152.263 214.794 152.226 214.461 151.989 214.279 151.897 214.203 151.787 214.166 151.659 214.166 151.512 214.166 151.348 214.234 151.257 214.367 150.726 215.025 150.214 215.684 149.683 216.339 148.951 215.766 148.237 215.169 147.56 214.543 146.554 213.61 146.261 212.325 146.48 211.124L151.549 211.124C156.929 214.729 162.858 217.614 169.152 219.645L164.761 224.822Z" fill="#DEDEDE"/><path d="M195.484 228.183 195.484 222.892C195.942 222.862 196.4 222.829 196.838 222.79 197.972 224.024 198.191 226.103 196.82 227.379 196.454 227.766 195.977 228.03 195.484 228.183ZM151.549 211.124 146.48 211.124C146.664 210.135 147.194 209.204 147.963 208.574 149.134 209.458 150.323 210.311 151.549 211.124Z"/><path d="M150.524 216.985C150.25 216.771 149.975 216.558 149.683 216.339 150.214 215.684 150.726 215.025 151.257 214.367 151.348 214.234 151.512 214.166 151.659 214.166 151.787 214.166 151.897 214.203 151.989 214.279 152.226 214.461 152.263 214.794 152.08 215.025 151.568 215.678 151.056 216.331 150.524 216.985Z"/><path d="M157.679 221.432C157.35 221.262 157.039 221.09 156.728 220.916L159.363 217.828C159.454 217.704 159.619 217.642 159.766 217.642 159.875 217.642 160.003 217.683 160.113 217.769 160.333 217.957 160.351 218.293 160.168 218.516L157.679 221.432Z"/><path d="M165.804 225.231C165.456 225.098 165.109 224.961 164.761 224.822L169.152 219.645C169.519 219.762 169.884 219.877 170.25 219.989L165.804 225.231Z"/><path d="M175.502 227.917C175.1 227.846 174.715 227.772 174.331 227.694 175.795 225.804 177.259 223.905 178.704 222.002 179.107 222.068 179.509 222.135 179.894 222.195 178.448 224.108 176.984 226.015 175.502 227.917Z"/><path d="M184.834 228.748C184.688 228.748 184.56 228.748 184.432 228.746 186.115 226.827 187.799 224.92 189.5 223.029 189.958 223.038 190.397 223.04 190.855 223.04 190.873 223.04 190.891 223.04 190.91 223.04 189.226 224.926 187.524 226.825 185.859 228.74 185.512 228.744 185.164 228.748 184.834 228.748Z"/><path d="M190.855 223.04C190.397 223.04 189.958 223.036 189.5 223.029 186.243 222.968 183.041 222.686 179.894 222.195 179.509 222.135 179.107 222.07 178.704 222.002 175.832 221.501 172.995 220.828 170.25 219.989 169.884 219.877 169.518 219.762 169.152 219.645 162.858 217.614 156.929 214.729 151.549 211.124 150.323 210.311 149.134 209.458 147.963 208.574 148.585 208.077 149.354 207.77 150.232 207.77 150.268 207.77 150.323 207.77 150.36 207.772 150.415 207.77 150.47 207.768 150.506 207.768 152.08 207.768 153.178 208.939 154.275 209.912 154.806 210.309 156.655 211.87 159.381 213.487 166.682 217.781 175.648 221.096 181.943 221.849 183.883 221.986 186.335 222.051 188.567 222.051 191.257 222.051 193.636 221.959 194.514 221.785 194.551 221.785 194.569 221.783 194.606 221.783 195.521 221.783 196.288 222.186 196.838 222.79 196.4 222.829 195.942 222.862 195.484 222.892 193.983 222.989 192.447 223.04 190.91 223.04 190.891 223.04 190.873 223.04 190.855 223.04Z"/></g></svg>