<?xml version="1.0" encoding="UTF-8"?>
<!DOCTYPE svg PUBLIC "-//W3C//DTD SVG 1.1//EN" "http://www.w3.org/Graphics/SVG/1.1/DTD/svg11.dtd">
<svg xmlns="http://www.w3.org/2000/svg" version="1.1" width="360px" height="360px" style="shape-rendering:geometricPrecision; text-rendering:geometricPrecision; image-rendering:optimizeQuality; fill-rule:evenodd; clip-rule:evenodd" xmlns:xlink="http://www.w3.org/1999/xlink">
<g><path style="opacity:1" fill="#fefefe" d="M -0.5,-0.5 C 119.5,-0.5 239.5,-0.5 359.5,-0.5C 359.5,119.5 359.5,239.5 359.5,359.5C 239.5,359.5 119.5,359.5 -0.5,359.5C -0.5,239.5 -0.5,119.5 -0.5,-0.5 Z"/></g>
<g><path style="opacity:1" fill="#d2eafd" d="M 169.5,44.5 C 172.449,45.6141 174.615,47.6141 176,50.5C 181.677,77.5603 187.677,104.56 194,131.5C 214.106,145.135 234.606,158.135 255.5,170.5C 246.061,176.392 236.394,182.059 226.5,187.5C 223.472,221.76 207.472,229.593 178.5,211C 146.918,192.626 115.418,174.126 84,155.5C 83.9115,153.887 84.7448,152.72 86.5,152C 110.268,138.366 134.102,124.866 158,111.5C 167.565,116.7 177.065,122.033 186.5,127.5C 187.238,123.871 187.071,120.204 186,116.5C 181.207,96.2032 176.54,75.8698 172,55.5C 170.883,53.8757 169.383,52.8757 167.5,52.5C 128.628,74.1861 90.1283,96.5194 52,119.5C 50.5432,122.366 50.2099,125.366 51,128.5C 57.0021,155.851 63.0021,183.185 69,210.5C 70.8083,212.396 72.975,212.896 75.5,212C 80.8982,208.302 86.5648,205.136 92.5,202.5C 95.1667,204.167 97.8333,205.833 100.5,207.5C 97.8464,209.057 95.1797,210.89 92.5,213C 93.6872,214.019 94.6872,215.186 95.5,216.5C 91.3412,218.746 87.3412,221.246 83.5,224C 93.5113,230.061 103.678,235.895 114,241.5C 116.616,240.385 119.116,239.051 121.5,237.5C 124.339,239.42 127.339,241.087 130.5,242.5C 136.994,239.808 142.328,236.475 146.5,232.5C 164.437,236.345 180.437,232.679 194.5,221.5C 204.314,225.325 212.98,223.659 220.5,216.5C 237.66,207.421 254.66,198.087 271.5,188.5C 276.097,192.142 281.097,195.308 286.5,198C 287.728,199.49 287.728,200.99 286.5,202.5C 247.201,224.483 208.201,246.983 169.5,270C 164.197,273.246 158.863,273.246 153.5,270C 130.167,256.333 106.833,242.667 83.5,229C 80.4388,226.965 77.1055,225.799 73.5,225.5C 72.8826,225.389 72.3826,225.056 72,224.5C 71.51,225.793 71.3433,227.127 71.5,228.5C 70.4489,225.656 70.4489,222.656 71.5,219.5C 69.5853,219.784 67.9187,219.451 66.5,218.5C 59.2258,188.299 52.3924,157.966 46,127.5C 45.1122,123.598 45.6122,119.931 47.5,116.5C 88.5949,92.9629 129.262,68.9629 169.5,44.5 Z"/></g>
<g><path style="opacity:1" fill="#193e7b" d="M 255.5,170.5 C 271.103,162.364 286.436,153.697 301.5,144.5C 302.779,149.551 302.779,154.551 301.5,159.5C 276.726,173.056 252.059,186.889 227.5,201C 225.842,206.474 223.509,211.641 220.5,216.5C 212.98,223.659 204.314,225.325 194.5,221.5C 173.979,210.566 153.646,199.066 133.5,187C 130.691,185.259 127.691,184.092 124.5,183.5C 124.063,181.926 123.063,180.759 121.5,180C 108.585,172.626 95.7513,165.126 83,157.5C 85.6369,172.337 88.8036,187.004 92.5,201.5C 92.5,201.833 92.5,202.167 92.5,202.5C 86.5648,205.136 80.8982,208.302 75.5,212C 72.975,212.896 70.8083,212.396 69,210.5C 63.0021,183.185 57.0021,155.851 51,128.5C 50.2099,125.366 50.5432,122.366 52,119.5C 90.1283,96.5194 128.628,74.1861 167.5,52.5C 169.383,52.8757 170.883,53.8757 172,55.5C 176.54,75.8698 181.207,96.2032 186,116.5C 187.071,120.204 187.238,123.871 186.5,127.5C 177.065,122.033 167.565,116.7 158,111.5C 134.102,124.866 110.268,138.366 86.5,152C 84.7448,152.72 83.9115,153.887 84,155.5C 115.418,174.126 146.918,192.626 178.5,211C 207.472,229.593 223.472,221.76 226.5,187.5C 236.394,182.059 246.061,176.392 255.5,170.5 Z"/></g>
<g><path style="opacity:1" fill="#3f6fab" d="M 169.5,44.5 C 129.262,68.9629 88.5949,92.9629 47.5,116.5C 47.0269,115.094 46.0269,114.427 44.5,114.5C 82.664,91.8634 120.997,69.3634 159.5,47C 162.536,44.9937 165.869,44.1604 169.5,44.5 Z"/></g>
<g><path style="opacity:1" fill="#c6dff2" d="M 158.5,74.5 C 159.586,74.62 160.253,75.2867 160.5,76.5C 160.167,77.1667 159.833,77.8333 159.5,78.5C 154.334,81.2484 149.334,84.2484 144.5,87.5C 143.253,85.9936 143.253,84.4936 144.5,83C 149.397,80.3922 154.063,77.5589 158.5,74.5 Z"/></g>
<g><path style="opacity:1" fill="#e9ecf2" d="M 159.5,82.5 C 160.5,82.5 161.5,82.5 162.5,82.5C 162.67,83.8221 162.337,84.9887 161.5,86C 156.5,88.8333 151.5,91.6667 146.5,94.5C 145.167,93.1667 145.167,91.8333 146.5,90.5C 151.065,88.0588 155.398,85.3921 159.5,82.5 Z"/></g>
<g><path style="opacity:1" fill="#ebeef3" d="M 134.5,96.5 C 135.586,96.62 136.253,97.2867 136.5,98.5C 136.167,99.1667 135.833,99.8333 135.5,100.5C 125.359,106.67 115.026,112.336 104.5,117.5C 104.33,116.178 104.663,115.011 105.5,114C 115.338,108.303 125.004,102.47 134.5,96.5 Z"/></g>
<g><path style="opacity:1" fill="#538ec9" d="M 133.5,88.5 C 134.586,88.62 135.253,89.2867 135.5,90.5C 134.99,92.0879 133.99,93.2545 132.5,94C 115.705,103.3 99.0381,112.8 82.5,122.5C 81.1667,121.167 81.1667,119.833 82.5,118.5C 99.7277,108.726 116.728,98.7257 133.5,88.5 Z"/></g>
<g><path style="opacity:1" fill="#538ec9" d="M 135.5,104.5 C 136.5,104.5 137.5,104.5 138.5,104.5C 138.67,105.822 138.337,106.989 137.5,108C 125.663,115.086 113.663,121.92 101.5,128.5C 100.167,127.167 100.167,125.833 101.5,124.5C 113.226,118.311 124.559,111.644 135.5,104.5 Z"/></g>
<g><path style="opacity:1" fill="#776dd6" d="M 96.5,118.5 C 97.5,118.5 98.5,118.5 99.5,118.5C 99.67,119.822 99.3366,120.989 98.5,122C 93.5845,124.707 88.7512,127.541 84,130.5C 83.2797,128.888 83.4464,127.388 84.5,126C 88.7324,123.725 92.7324,121.225 96.5,118.5 Z"/></g>
<g><path style="opacity:1" fill="#776dd5" d="M 84.5,133.5 C 86.1765,134.183 86.8432,135.517 86.5,137.5C 85.5,137.5 84.5,137.5 83.5,137.5C 83.4326,136.041 83.7659,134.708 84.5,133.5 Z"/></g>
<g><path style="opacity:1" fill="#dae0ea" d="M 77.5,137.5 C 78.8333,137.5 80.1667,137.5 81.5,137.5C 81.5,138.5 81.5,139.5 81.5,140.5C 80.1667,140.5 78.8333,140.5 77.5,140.5C 77.5,139.5 77.5,138.5 77.5,137.5 Z"/></g>
<g><path style="opacity:1" fill="#5d96d0" d="M 156.5,128.5 C 157.756,128.461 158.756,128.961 159.5,130C 149.5,136 139.5,142 129.5,148C 127.926,148.699 126.593,148.365 125.5,147C 135.897,140.807 146.23,134.641 156.5,128.5 Z"/></g>
<g><path style="opacity:1" fill="#5d97d0" d="M 161.5,132.5 C 162.978,132.238 164.311,132.571 165.5,133.5C 157.538,139.154 149.205,144.32 140.5,149C 139.056,149.781 137.723,149.614 136.5,148.5C 145.068,143.392 153.401,138.059 161.5,132.5 Z"/></g>
<g><path style="opacity:1" fill="#bdd6ea" d="M 72.5,140.5 C 73.5,140.5 74.5,140.5 75.5,140.5C 75.7778,142.346 75.1112,143.68 73.5,144.5C 72.5713,143.311 72.238,141.978 72.5,140.5 Z"/></g>
<g><path style="opacity:1" fill="#254581" d="M 44.5,114.5 C 46.0269,114.427 47.0269,115.094 47.5,116.5C 45.6122,119.931 45.1122,123.598 46,127.5C 52.3924,157.966 59.2258,188.299 66.5,218.5C 64.2654,217.772 62.4321,216.439 61,214.5C 54.3831,183.471 47.5497,152.471 40.5,121.5C 41.0864,118.651 42.4197,116.318 44.5,114.5 Z"/></g>
<g><path style="opacity:1" fill="#7d71db" d="M 210.5,155.5 C 210.752,158.32 210.252,160.986 209,163.5C 207.188,165.3 205.355,166.967 203.5,168.5C 200.215,168.928 197.215,169.928 194.5,171.5C 187.367,171.892 180.367,171.225 173.5,169.5C 169.544,167.212 166.211,164.212 163.5,160.5C 164.808,152.021 169.808,146.854 178.5,145C 187.941,143.56 196.941,144.894 205.5,149C 207.79,150.777 209.457,152.944 210.5,155.5 Z"/></g>
<g><path style="opacity:1" fill="#796ed8" d="M 67.5,143.5 C 69.1765,144.183 69.8432,145.517 69.5,147.5C 68.5,147.5 67.5,147.5 66.5,147.5C 66.4326,146.041 66.7659,144.708 67.5,143.5 Z"/></g>
<g><path style="opacity:1" fill="#f3f2fc" d="M 191.5,159.5 C 192.568,160.434 193.901,160.768 195.5,160.5C 195.5,157.833 195.5,155.167 195.5,152.5C 196.568,151.566 197.901,151.232 199.5,151.5C 199.5,155.167 199.5,158.833 199.5,162.5C 190.445,162.325 181.445,161.491 172.5,160C 172.043,159.586 171.709,159.086 171.5,158.5C 172.667,158.167 173.833,157.833 175,157.5C 180.434,158.754 185.934,159.421 191.5,159.5 Z"/></g>
<g><path style="opacity:1" fill="#5d96d0" d="M 167.5,136.5 C 169.288,136.215 170.955,136.548 172.5,137.5C 157.176,146.496 141.843,155.496 126.5,164.5C 124.646,163.824 124.313,162.824 125.5,161.5C 139.894,153.644 153.894,145.311 167.5,136.5 Z"/></g>
<g><path style="opacity:1" fill="#d2e9fb" d="M 33.5,163.5 C 28.7671,166.89 23.7671,169.89 18.5,172.5C 13.8607,169.845 9.19404,167.179 4.5,164.5C 3.50457,170.128 3.17124,175.794 3.5,181.5C 2.18341,175.654 2.18341,169.654 3.5,163.5C 8.76466,160.619 13.9313,157.619 19,154.5C 23.9649,157.393 28.7982,160.393 33.5,163.5 Z"/></g>
<g><path style="opacity:1" fill="#5f97d0" d="M 129.5,151.5 C 134.322,151.561 134.655,152.727 130.5,155C 126.905,156.713 123.405,158.547 120,160.5C 118.941,160.37 118.108,159.87 117.5,159C 121.732,156.725 125.732,154.225 129.5,151.5 Z"/></g>
<g><path style="opacity:1" fill="#0a2d60" d="M 124.5,183.5 C 113.806,189.512 103.139,195.512 92.5,201.5C 88.8036,187.004 85.6369,172.337 83,157.5C 95.7513,165.126 108.585,172.626 121.5,180C 123.063,180.759 124.063,181.926 124.5,183.5 Z"/></g>
<g><path style="opacity:1" fill="#7d71db" d="M 352.5,163.5 C 353.452,169.075 353.786,174.741 353.5,180.5C 349.535,182.818 345.535,185.152 341.5,187.5C 340.833,182.5 340.167,177.5 339.5,172.5C 335.144,169.799 330.811,167.132 326.5,164.5C 330.705,161.475 335.205,158.808 340,156.5C 343.936,159.218 348.102,161.552 352.5,163.5 Z"/></g>
<g><path style="opacity:1" fill="#bbb4ec" d="M 195.5,152.5 C 195.5,155.167 195.5,157.833 195.5,160.5C 193.901,160.768 192.568,160.434 191.5,159.5C 192.5,159.5 193.5,159.5 194.5,159.5C 194.198,156.941 194.532,154.607 195.5,152.5 Z"/></g>
<g><path style="opacity:1" fill="#3a6ca9" d="M 301.5,159.5 C 300.554,165.559 297.887,170.726 293.5,175C 285.936,179.274 278.602,183.774 271.5,188.5C 254.66,198.087 237.66,207.421 220.5,216.5C 223.509,211.641 225.842,206.474 227.5,201C 252.059,186.889 276.726,173.056 301.5,159.5 Z"/></g>
<g><path style="opacity:1" fill="#92c9f3" d="M 163.5,160.5 C 166.211,164.212 169.544,167.212 173.5,169.5C 170.191,168.758 167.357,167.091 165,164.5C 164.536,165.094 164.369,165.761 164.5,166.5C 164.5,168.167 164.5,169.833 164.5,171.5C 163.518,168.038 163.185,164.371 163.5,160.5 Z"/></g>
<g><path style="opacity:1" fill="#5892cc" d="M 33.5,163.5 C 34.6525,169.319 34.8192,175.319 34,181.5C 31.5574,183.301 29.0574,184.968 26.5,186.5C 24.3635,187.403 22.3635,188.569 20.5,190C 19.2506,190.74 18.2506,190.573 17.5,189.5C 18.4889,184.025 18.8222,178.358 18.5,172.5C 23.7671,169.89 28.7671,166.89 33.5,163.5 Z"/></g>
<g><path style="opacity:1" fill="#d3cff3" d="M 352.5,163.5 C 353.814,165.915 354.481,168.748 354.5,172C 354.498,175.021 354.164,177.854 353.5,180.5C 353.786,174.741 353.452,169.075 352.5,163.5 Z"/></g>
<g><path style="opacity:1" fill="#193d7a" d="M 18.5,172.5 C 18.8222,178.358 18.4889,184.025 17.5,189.5C 15.5168,188.529 13.5168,187.529 11.5,186.5C 8.7972,184.819 6.13053,183.153 3.5,181.5C 3.17124,175.794 3.50457,170.128 4.5,164.5C 9.19404,167.179 13.8607,169.845 18.5,172.5 Z"/></g>
<g><path style="opacity:1" fill="#29b1f5" d="M 326.5,164.5 C 330.811,167.132 335.144,169.799 339.5,172.5C 339.5,177.833 339.5,183.167 339.5,188.5C 335.353,185.925 331.02,183.591 326.5,181.5C 325.184,175.68 325.184,170.013 326.5,164.5 Z"/></g>
<g><path style="opacity:1" fill="#5b95cf" d="M 164.5,166.5 C 170.354,173.17 177.854,176.504 187,176.5C 196.376,176.334 204.209,173 210.5,166.5C 211.662,171.046 210.329,174.879 206.5,178C 193.796,185.228 181.129,185.228 168.5,178C 166.266,176.362 164.933,174.195 164.5,171.5C 164.5,169.833 164.5,168.167 164.5,166.5 Z"/></g>
<g><path style="opacity:1" fill="#45b2f3" d="M 210.5,155.5 C 211.715,159.033 211.715,162.699 210.5,166.5C 204.209,173 196.376,176.334 187,176.5C 177.854,176.504 170.354,173.17 164.5,166.5C 164.369,165.761 164.536,165.094 165,164.5C 167.357,167.091 170.191,168.758 173.5,169.5C 180.367,171.225 187.367,171.892 194.5,171.5C 198.044,171.868 201.044,170.868 203.5,168.5C 205.355,166.967 207.188,165.3 209,163.5C 210.252,160.986 210.752,158.32 210.5,155.5 Z"/></g>
<g><path style="opacity:1" fill="#b7dbf8" d="M 203.5,168.5 C 201.044,170.868 198.044,171.868 194.5,171.5C 197.215,169.928 200.215,168.928 203.5,168.5 Z"/></g>
<g><path style="opacity:1" fill="#7790e5" d="M 339.5,172.5 C 340.167,177.5 340.833,182.5 341.5,187.5C 341.158,188.338 340.492,188.672 339.5,188.5C 339.5,183.167 339.5,177.833 339.5,172.5 Z"/></g>
<g><path style="opacity:1" fill="#5792cd" d="M 124.5,183.5 C 127.691,184.092 130.691,185.259 133.5,187C 153.646,199.066 173.979,210.566 194.5,221.5C 180.437,232.679 164.437,236.345 146.5,232.5C 130.769,225.151 115.436,216.818 100.5,207.5C 97.8333,205.833 95.1667,204.167 92.5,202.5C 92.5,202.167 92.5,201.833 92.5,201.5C 103.139,195.512 113.806,189.512 124.5,183.5 Z"/></g>
<g><path style="opacity:1" fill="#eeeeee" d="M 11.5,186.5 C 13.5168,187.529 15.5168,188.529 17.5,189.5C 18.2506,190.573 19.2506,190.74 20.5,190C 22.3635,188.569 24.3635,187.403 26.5,186.5C 28.9266,188.558 31.5932,190.391 34.5,192C 29.3976,194.968 24.231,197.801 19,200.5C 13.769,197.801 8.60236,194.968 3.5,192C 6.40676,190.391 9.07342,188.558 11.5,186.5 Z"/></g>
<g><path style="opacity:1" fill="#6295cd" d="M 287.5,202.5 C 289.345,206.397 288.345,209.397 284.5,211.5C 284.167,211.5 283.833,211.5 283.5,211.5C 283.843,209.517 283.176,208.183 281.5,207.5C 283.869,206.31 285.869,204.643 287.5,202.5 Z"/></g>
<g><path style="opacity:1" fill="#ededee" d="M 283.5,211.5 C 283.833,211.5 284.167,211.5 284.5,211.5C 286.031,212.971 287.031,214.804 287.5,217C 287.561,218.711 286.894,220.044 285.5,221C 245.5,244 205.5,267 165.5,290C 162.833,290.667 160.167,290.667 157.5,290C 149.628,285.3 141.628,280.8 133.5,276.5C 132.893,276.624 132.56,276.957 132.5,277.5C 128.894,273.863 124.56,271.53 119.5,270.5C 119.918,269.778 120.584,269.278 121.5,269C 105.004,259.92 88.6705,250.586 72.5,241C 71.4238,239.274 71.2571,237.441 72,235.5C 73.5185,234.837 74.6851,233.837 75.5,232.5C 102.473,247.988 129.473,263.488 156.5,279C 160.027,279.808 163.36,279.641 166.5,278.5C 205.741,256.594 244.741,234.261 283.5,211.5 Z"/></g>
<g><path style="opacity:1" fill="#d3ebfe" d="M 311.5,215.5 C 313.857,215.337 316.19,215.503 318.5,216C 329.428,221.935 340.094,228.268 350.5,235C 339.833,241.333 329.167,247.667 318.5,254C 316.167,254.667 313.833,254.667 311.5,254C 300.572,248.065 289.906,241.732 279.5,235C 290.064,228.223 300.73,221.723 311.5,215.5 Z"/></g>
<g><path style="opacity:1" fill="#c0e2fa" d="M 100.5,207.5 C 115.436,216.818 130.769,225.151 146.5,232.5C 142.328,236.475 136.994,239.808 130.5,242.5C 127.339,241.087 124.339,239.42 121.5,237.5C 119.116,239.051 116.616,240.385 114,241.5C 103.678,235.895 93.5113,230.061 83.5,224C 87.3412,221.246 91.3412,218.746 95.5,216.5C 94.6872,215.186 93.6872,214.019 92.5,213C 95.1797,210.89 97.8464,209.057 100.5,207.5 Z"/></g>
<g><path style="opacity:1" fill="#21427e" d="M 73.5,225.5 C 101.274,241.892 129.274,258.059 157.5,274C 160.146,274.497 162.813,274.664 165.5,274.5C 166.434,275.568 166.768,276.901 166.5,278.5C 163.36,279.641 160.027,279.808 156.5,279C 129.473,263.488 102.473,247.988 75.5,232.5C 73.8333,231.5 72.5,230.167 71.5,228.5C 71.3433,227.127 71.51,225.793 72,224.5C 72.3826,225.056 72.8826,225.389 73.5,225.5 Z"/></g>
<g><path style="opacity:1" fill="#5994ce" d="M 77.5,251.5 C 74.0884,255.273 71.4218,259.606 69.5,264.5C 56.1112,256.477 42.7779,248.477 29.5,240.5C 25.5337,236.189 22.3671,231.523 20,226.5C 24.423,227.515 28.923,228.348 33.5,229C 48.3138,236.24 62.9805,243.74 77.5,251.5 Z"/></g>
<g><path style="opacity:1" fill="#5994ce" d="M 330.5,236.5 C 325.626,239.859 320.459,242.859 315,245.5C 309.541,242.859 304.374,239.859 299.5,236.5C 304.406,233.127 309.573,230.127 315,227.5C 320.424,230.126 325.59,233.126 330.5,236.5 Z"/></g>
<g><path style="opacity:1" fill="#4173b0" d="M 330.5,236.5 C 325.59,233.126 320.424,230.126 315,227.5C 309.573,230.127 304.406,233.127 299.5,236.5C 298.226,235.811 298.226,234.977 299.5,234C 304.537,231.15 309.537,228.317 314.5,225.5C 319.955,228.061 325.288,230.895 330.5,234C 331.774,234.977 331.774,235.811 330.5,236.5 Z"/></g>
<g><path style="opacity:1" fill="#cfe8fb" d="M 313.5,235.5 C 314.675,235.281 315.675,235.614 316.5,236.5C 314.948,237.798 313.948,237.465 313.5,235.5 Z"/></g>
<g><path style="opacity:1" fill="#85a5cb" d="M 280.5,238.5 C 279.523,241.287 279.19,244.287 279.5,247.5C 278.194,244.313 278.194,240.98 279.5,237.5C 280.107,237.624 280.44,237.957 280.5,238.5 Z"/></g>
<g><path style="opacity:1" fill="#679bd1" d="M 348.5,249.5 C 348.813,245.958 348.479,242.625 347.5,239.5C 348.688,238.636 349.855,237.636 351,236.5C 351.667,240.5 351.667,244.5 351,248.5C 350.329,249.252 349.496,249.586 348.5,249.5 Z"/></g>
<g><path style="opacity:1" fill="#edeeef" d="M 29.5,240.5 C 42.7779,248.477 56.1112,256.477 69.5,264.5C 71.4218,259.606 74.0884,255.273 77.5,251.5C 78.3382,251.842 78.6716,252.508 78.5,253.5C 73.6645,256.519 71.8312,260.853 73,266.5C 73.3826,267.056 73.8826,267.389 74.5,267.5C 92.7837,278.648 111.45,289.314 130.5,299.5C 132.135,298.954 133.801,298.62 135.5,298.5C 138.032,299.596 140.365,300.929 142.5,302.5C 142.389,303.117 142.056,303.617 141.5,304C 143.555,304.687 145.221,305.854 146.5,307.5C 145.652,308.991 144.319,309.658 142.5,309.5C 137.213,306.619 131.547,304.786 125.5,304C 93.0924,284.601 60.4258,265.601 27.5,247C 24.8755,244.048 25.5422,241.881 29.5,240.5 Z"/></g>
<g><path style="opacity:1" fill="#3d6eaa" d="M 281.5,207.5 C 283.176,208.183 283.843,209.517 283.5,211.5C 244.741,234.261 205.741,256.594 166.5,278.5C 166.768,276.901 166.434,275.568 165.5,274.5C 203.804,251.677 242.471,229.343 281.5,207.5 Z"/></g>
<g><path style="opacity:1" fill="#3b6dab" d="M 347.5,239.5 C 348.479,242.625 348.813,245.958 348.5,249.5C 347.167,250.5 345.833,251.5 344.5,252.5C 335.806,257.179 327.14,261.846 318.5,266.5C 317.521,263.375 317.187,260.042 317.5,256.5C 327.5,250.833 337.5,245.167 347.5,239.5 Z"/></g>
<g><path style="opacity:1" fill="#eef3f8" d="M 286.5,202.5 C 286.833,202.5 287.167,202.5 287.5,202.5C 285.869,204.643 283.869,206.31 281.5,207.5C 242.471,229.343 203.804,251.677 165.5,274.5C 162.813,274.664 160.146,274.497 157.5,274C 129.274,258.059 101.274,241.892 73.5,225.5C 77.1055,225.799 80.4388,226.965 83.5,229C 106.833,242.667 130.167,256.333 153.5,270C 158.863,273.246 164.197,273.246 169.5,270C 208.201,246.983 247.201,224.483 286.5,202.5 Z"/></g>
<g><path style="opacity:1" fill="#3d6fac" d="M 280.5,238.5 C 291.194,244.512 301.861,250.512 312.5,256.5C 313.069,260.329 312.402,263.663 310.5,266.5C 302.167,261.833 293.833,257.167 285.5,252.5C 283.131,251.31 281.131,249.643 279.5,247.5C 279.19,244.287 279.523,241.287 280.5,238.5 Z"/></g>
<g><path style="opacity:1" fill="#cfe7f8" d="M 286.5,246.5 C 288.332,247.14 288.665,248.14 287.5,249.5C 286.614,248.675 286.281,247.675 286.5,246.5 Z"/></g>
<g><path style="opacity:1" fill="#c2ddf2" d="M 282.5,244.5 C 284.225,244.843 284.725,245.843 284,247.5C 282.961,246.756 282.461,245.756 282.5,244.5 Z"/></g>
<g><path style="opacity:1" fill="#c6e1f5" d="M 290.5,249.5 C 292.337,249.639 292.67,250.306 291.5,251.5C 290.702,251.043 290.369,250.376 290.5,249.5 Z"/></g>
<g><path style="opacity:1" fill="#eeeeee" d="M 285.5,252.5 C 293.833,257.167 302.167,261.833 310.5,266.5C 313.243,269.059 315.91,269.059 318.5,266.5C 327.14,261.846 335.806,257.179 344.5,252.5C 346.355,253.69 348.188,255.023 350,256.5C 350.749,257.635 350.583,258.635 349.5,259.5C 338.291,266.518 326.791,272.851 315,278.5C 313.833,278.333 312.667,278.167 311.5,278C 301.33,271.748 290.997,265.748 280.5,260C 279.253,258.506 279.253,257.006 280.5,255.5C 282.145,254.304 283.811,253.304 285.5,252.5 Z"/></g>
<g><path style="opacity:1" fill="#d4ebfd" d="M 82.5,254.5 C 85.2532,256.568 88.2532,257.902 91.5,258.5C 90.5,258.5 89.5,258.5 88.5,258.5C 88.5614,260.592 89.5614,262.092 91.5,263C 98.6628,266.747 105.663,270.747 112.5,275C 115.275,275.778 117.775,275.278 120,273.5C 122.823,274.983 125.657,276.483 128.5,278C 129.435,280.381 129.768,282.881 129.5,285.5C 131.099,285.768 132.432,285.434 133.5,284.5C 137.515,285.478 138.848,287.812 137.5,291.5C 136.833,291.167 136.167,290.833 135.5,290.5C 135.53,289.503 135.03,288.836 134,288.5C 129.406,290.384 128.573,293.05 131.5,296.5C 133.153,296.66 134.486,297.326 135.5,298.5C 133.801,298.62 132.135,298.954 130.5,299.5C 111.45,289.314 92.7837,278.648 74.5,267.5C 74.8527,261.804 77.5193,257.47 82.5,254.5 Z"/></g>
<g><path style="opacity:1" fill="#5a94ce" d="M 312.5,256.5 C 314.167,256.5 315.833,256.5 317.5,256.5C 317.187,260.042 317.521,263.375 318.5,266.5C 315.91,269.059 313.243,269.059 310.5,266.5C 312.402,263.663 313.069,260.329 312.5,256.5 Z"/></g>
<g><path style="opacity:1" fill="#5c96cf" d="M 78.5,253.5 C 79.9587,253.433 81.2921,253.766 82.5,254.5C 77.5193,257.47 74.8527,261.804 74.5,267.5C 73.8826,267.389 73.3826,267.056 73,266.5C 71.8312,260.853 73.6645,256.519 78.5,253.5 Z"/></g>
<g><path style="opacity:1" fill="#d3ebfd" d="M 258.5,271.5 C 253.246,274.959 247.58,277.626 241.5,279.5C 237.465,277.152 233.465,274.818 229.5,272.5C 228.791,271.596 227.791,271.263 226.5,271.5C 231.842,268.408 237.342,265.408 243,262.5C 248.459,265.141 253.626,268.141 258.5,271.5 Z"/></g>
<g><path style="opacity:1" fill="#5c96cf" d="M 91.5,258.5 C 98.4723,262.655 105.472,266.822 112.5,271C 114.885,271.556 117.218,271.39 119.5,270.5C 124.56,271.53 128.894,273.863 132.5,277.5C 133.369,279.717 133.702,282.05 133.5,284.5C 132.432,285.434 131.099,285.768 129.5,285.5C 129.768,282.881 129.435,280.381 128.5,278C 125.657,276.483 122.823,274.983 120,273.5C 117.775,275.278 115.275,275.778 112.5,275C 105.663,270.747 98.6628,266.747 91.5,263C 89.5614,262.092 88.5614,260.592 88.5,258.5C 89.5,258.5 90.5,258.5 91.5,258.5 Z"/></g>
<g><path style="opacity:1" fill="#a9b7cf" d="M 226.5,271.5 C 227.791,271.263 228.791,271.596 229.5,272.5C 227.55,277.735 226.883,283.402 227.5,289.5C 226.51,283.69 226.177,277.69 226.5,271.5 Z"/></g>
<g><path style="opacity:1" fill="#193e7a" d="M 229.5,272.5 C 233.465,274.818 237.465,277.152 241.5,279.5C 242.806,285.599 242.806,291.599 241.5,297.5C 239.5,296.5 237.5,295.5 235.5,294.5C 232.869,292.847 230.203,291.181 227.5,289.5C 226.883,283.402 227.55,277.735 229.5,272.5 Z"/></g>
<g><path style="opacity:1" fill="#5b94ce" d="M 258.5,271.5 C 258.666,277.509 258.499,283.509 258,289.5C 255.176,290.818 252.676,292.485 250.5,294.5C 247.577,295.295 244.91,296.628 242.5,298.5C 241.893,298.376 241.56,298.043 241.5,297.5C 242.806,291.599 242.806,285.599 241.5,279.5C 247.58,277.626 253.246,274.959 258.5,271.5 Z"/></g>
<g><path style="opacity:1" fill="#3f6cae" d="M 135.5,290.5 C 131.262,290.72 129.928,292.72 131.5,296.5C 128.573,293.05 129.406,290.384 134,288.5C 135.03,288.836 135.53,289.503 135.5,290.5 Z"/></g>
<g><path style="opacity:1" fill="#7e72db" d="M 135.5,290.5 C 136.167,290.833 136.833,291.167 137.5,291.5C 140.723,293.364 143.89,295.364 147,297.5C 148.177,301.492 146.677,303.158 142.5,302.5C 140.365,300.929 138.032,299.596 135.5,298.5C 134.486,297.326 133.153,296.66 131.5,296.5C 129.928,292.72 131.262,290.72 135.5,290.5 Z"/></g>
<g><path style="opacity:1" fill="#efefef" d="M 235.5,294.5 C 237.5,295.5 239.5,296.5 241.5,297.5C 241.56,298.043 241.893,298.376 242.5,298.5C 244.91,296.628 247.577,295.295 250.5,294.5C 252.942,295.899 255.276,297.566 257.5,299.5C 252.762,302.898 247.762,305.898 242.5,308.5C 237.334,305.752 232.334,302.752 227.5,299.5C 230.231,297.808 232.898,296.142 235.5,294.5 Z"/></g>
</svg>
