<!DOCTYPE svg PUBLIC "-//W3C//DTD SVG 1.1//EN" "http://www.w3.org/Graphics/SVG/1.1/DTD/svg11.dtd">
<!-- Uploaded to: SVG Repo, www.svgrepo.com, Transformed by: SVG Repo Mixer Tools -->
<svg width="800px" height="800px" viewBox="0 0 48 48" xmlns="http://www.w3.org/2000/svg" fill="#000000">
<g id="SVGRepo_bgCarrier" stroke-width="0"/>
<g id="SVGRepo_tracerCarrier" stroke-linecap="round" stroke-linejoin="round"/>
<g id="SVGRepo_iconCarrier">
<defs>
<style>.a{fill:none;stroke:#000000;stroke-linecap:round;stroke-linejoin:round;}</style>
</defs>
<path class="a" d="M24,4.5h0a7.61,7.61,0,0,1,7.61,7.61v9.42A7.61,7.61,0,0,1,24,29.14h0a7.61,7.61,0,0,1-7.61-7.61V12.11A7.61,7.61,0,0,1,24,4.5Zm2.94,28.65v9.71a.64.64,0,0,1-.63.64H21.69a.64.64,0,0,1-.63-.64V33.15"/>
<path class="a" d="M12.23,23.79a12,12,0,0,0,23.54,0"/>
</g>
</svg>